<svg width="511" height="542" viewBox="0 0 511 542" fill="none" xmlns="http://www.w3.org/2000/svg">
<path d="M62.069 379.44L46.6752 379.793L38.802 379.91C36.2168 379.91 33.5141 379.91 30.9289 380.028H30.4588V379.558L30.3413 366.397V365.809H30.9289L46.4402 365.927C51.6106 365.927 56.7811 366.044 61.9515 366.162H62.304V366.514C62.304 368.747 62.1865 370.98 62.1865 373.212L62.069 379.44ZM62.069 379.44L61.9515 372.742C61.9515 370.51 61.834 368.394 61.834 366.279L62.1865 366.632C57.0161 366.749 51.8456 366.867 46.6752 366.867L31.1639 366.984L31.7514 366.397L31.6339 379.558L31.1639 379.088C33.7491 379.088 36.3343 379.088 38.802 379.205L46.5577 379.323L62.069 379.44Z" fill="#EBEBEB"/>
<path d="M44.6777 396.009L29.2838 396.362L21.4107 396.48C18.8255 396.48 16.1227 396.48 13.5375 396.597H13.0675V396.127L12.95 382.966V382.378H13.5375L29.0488 382.496C34.2193 382.496 39.3897 382.613 44.5602 382.731H44.9127V383.083C44.9127 385.316 44.7952 387.549 44.7952 389.781L44.6777 396.009ZM44.6777 396.009L44.5602 389.311C44.5602 387.079 44.4426 384.964 44.4426 382.848L44.7952 383.201C39.6247 383.318 34.4543 383.436 29.2838 383.436L13.7725 383.553L14.3601 382.966L14.1251 396.009L13.655 395.539C16.2402 395.539 18.8255 395.539 21.2932 395.657L29.0488 395.774L44.6777 396.009Z" fill="#EBEBEB"/>
<path d="M79.4604 382.848H48.3202V396.009H79.4604V382.848Z" fill="#EBEBEB"/>
<path d="M433.285 193.892L417.891 194.245L410.018 194.362C407.433 194.362 404.73 194.362 402.145 194.48H401.675V194.01L401.557 180.849V180.261H402.145L417.656 180.379C422.826 180.379 427.997 180.496 433.167 180.614H433.52V180.966C433.52 183.199 433.402 185.431 433.402 187.664L433.285 193.892ZM433.285 193.892L433.167 187.194C433.167 184.961 433.05 182.846 433.05 180.731L433.402 181.084C428.232 181.201 423.061 181.319 417.891 181.319L402.38 181.436L402.967 180.849L402.85 194.01L402.38 193.54C404.965 193.54 407.55 193.54 410.018 193.657L417.773 193.775L433.285 193.892Z" fill="#FE9563"/>
<path d="M415.893 210.46L400.499 210.813L392.626 210.93C390.041 210.93 387.338 210.93 384.753 211.048H384.283V210.578L384.165 197.417V196.829H384.753L400.264 196.946C405.435 196.946 410.605 197.064 415.775 197.182H416.128V197.534C416.128 199.767 416.011 201.999 416.011 204.232L415.893 210.46ZM415.893 210.46L415.775 203.762C415.775 201.529 415.658 199.414 415.658 197.299L416.011 197.652C410.84 197.769 405.67 197.887 400.499 197.887L384.988 198.004L385.575 197.417L385.458 210.578L384.988 210.108C387.573 210.108 390.158 210.108 392.626 210.225L400.382 210.343L415.893 210.46Z" fill="#FE9563"/>
<path d="M450.675 197.417H419.534V210.578H450.675V197.417Z" fill="#FE9563"/>
<path d="M480.523 382.848H449.382V396.009H480.523V382.848Z" fill="#EBEBEB"/>
<path d="M480.523 52.4094H449.382V65.5706H480.523V52.4094Z" fill="#FE9563"/>
<path d="M497.915 82.14L482.521 82.4925L474.648 82.61C472.063 82.61 469.36 82.61 466.775 82.7275H466.305V82.2575L466.187 69.0963V68.5088H466.775L482.286 68.6263C487.456 68.6263 492.627 68.7438 497.797 68.8613H498.15V69.2139C498.15 71.4465 498.032 73.6792 498.032 75.9119L497.915 82.14ZM497.915 82.14L497.797 75.4419C497.797 73.2092 497.68 71.094 497.68 68.9788L498.032 69.3314C492.862 69.4489 487.692 69.5664 482.521 69.5664L467.01 69.6839L467.597 69.0963L467.48 82.2575L467.01 81.7874C469.595 81.7874 472.18 81.7874 474.648 81.9049L482.404 82.0225L497.915 82.14Z" fill="#EBEBEB"/>
<path d="M44.6774 65.5706L29.2836 65.9231L21.4104 66.0407C18.8252 66.0407 16.1225 66.0407 13.5373 66.1582H13.0672V65.6881L12.9497 52.527V51.9395H13.5373L29.0486 52.057C34.219 52.057 39.3895 52.1745 44.5599 52.292H44.9124V52.6445C44.9124 54.8772 44.7949 57.1099 44.7949 59.3426L44.6774 65.5706ZM44.6774 65.5706L44.5599 58.8725C44.5599 56.6399 44.4424 54.5247 44.4424 52.4095L44.7949 52.762C39.6245 52.8795 34.454 52.997 29.2836 52.997L13.7723 53.1146L14.3598 52.527L14.2423 65.6881L13.7723 65.2181C16.3575 65.2181 18.9427 65.2181 21.4104 65.3356L29.1661 65.4531L44.6774 65.5706Z" fill="#EBEBEB"/>
<path d="M57.7048 299.858H88.845V286.697H57.7048V299.858Z" fill="#EBEBEB"/>
<path d="M75.1127 270.038L90.5065 269.686L98.3797 269.568C100.965 269.568 103.668 269.568 106.253 269.451H106.723V269.921L106.84 283.2V283.787H106.253L90.7415 283.67C85.5711 283.67 80.4007 283.552 75.2302 283.435H74.8777V283.082C74.8777 280.849 74.9952 278.617 74.9952 276.384L75.1127 270.038ZM75.1127 270.038L75.2302 276.737C75.2302 278.969 75.3477 281.084 75.3477 283.2L74.9952 282.847C80.1656 282.73 85.3361 282.612 90.5065 282.612L106.018 282.495L105.665 283.2L105.783 270.038L106.253 270.509C103.668 270.509 101.082 270.509 98.6147 270.391L90.8591 270.273L75.1127 270.038Z" fill="#EBEBEB"/>
<path d="M506.022 512.155H305.668L301.555 429.897H510.253L506.022 512.155Z" fill="#999999"/>
<path d="M313.423 439.063H400.615L399.088 467.618H315.303L313.423 439.063ZM399.44 440.003H314.363L316.008 466.56H397.913L399.44 440.003Z" fill="#DBDBDB"/>
<path d="M315.185 474.668H396.972L395.679 500.403H316.712L315.185 474.668ZM395.914 475.608H316.242L317.77 499.345H394.739L395.914 475.608Z" fill="#DBDBDB"/>
<path d="M348.088 449.522H363.952L363.012 456.455H348.91L348.088 449.522ZM362.894 450.462H349.38L349.968 455.28H362.306L362.894 450.462Z" fill="#DBDBDB"/>
<path d="M348.088 484.069H363.952L363.012 491.002H348.91L348.088 484.069ZM362.894 485.127H349.38L349.968 489.945H362.306L362.894 485.127Z" fill="#DBDBDB"/>
<path d="M411.897 439.063H499.09L497.562 467.618H413.777L411.897 439.063ZM498.032 440.003H412.955L414.6 466.56H496.505L498.032 440.003Z" fill="#DBDBDB"/>
<path d="M413.66 474.668H495.447L494.155 500.403H415.188L413.66 474.668ZM494.507 475.608H414.718L416.245 499.345H493.215L494.507 475.608Z" fill="#DBDBDB"/>
<path d="M446.68 449.521H462.544L461.604 456.454H447.502L446.68 449.521ZM461.369 450.461H447.855L448.443 455.279H460.781L461.369 450.461Z" fill="#DBDBDB"/>
<path d="M446.68 484.069H462.544L461.604 491.002H447.502L446.68 484.069ZM461.369 485.127H447.855L448.443 489.945H460.781L461.369 485.127Z" fill="#DBDBDB"/>
<path d="M488.16 512.154L489.335 521.085L491.92 539.064H496.856V512.154H488.16Z" fill="#999999"/>
<path d="M488.16 512.154L489.335 521.085H496.856V512.154H488.16Z" fill="#868484"/>
<path d="M323.648 512.154L322.472 521.085L319.887 539.064H314.952V512.154H323.648Z" fill="#999999"/>
<path d="M323.648 512.154L322.472 521.085H314.952V512.154H323.648Z" fill="#868484"/>
<path d="M451.231 429.947V369.311H435.955V429.947H451.231Z" fill="#C7C7C7"/>
<path d="M451.212 372.701V366.003H435.936V372.701H451.212Z" fill="#DBDBDB"/>
<path d="M451.269 383.687V381.22H435.993V383.687H451.269Z" fill="#DBDBDB"/>
<path d="M451.22 421.945V415.247H435.944V421.945H451.22Z" fill="#DBDBDB"/>
<path d="M435.921 429.876V359.135H425.227V429.876H435.921Z" fill="#DBDBDB"/>
<path d="M433.902 392.981V365.836H427.557V392.981H433.902Z" fill="#EBEBEB"/>
<path d="M356.798 429.845L407.109 380.114L399.591 372.509L349.28 422.24L356.798 429.845Z" fill="#C7C7C7"/>
<path d="M367.094 416.593L386.399 397.51L381.938 392.997L362.633 412.08L367.094 416.593Z" fill="#DBDBDB"/>
<path d="M425.347 429.858V376.156H407.25V429.858H425.347Z" fill="#A6A6A6"/>
<path d="M425.321 424.308V419.255H407.224V424.308H425.321Z" fill="#C7C7C7"/>
<path d="M425.26 416.022V414.025H407.164V416.022H425.26Z" fill="#C7C7C7"/>
<path d="M482.544 425.099L462.61 378.667L451.165 383.581L471.098 430.012L482.544 425.099Z" fill="#A6A6A6"/>
<path d="M480.404 420.058L478.549 415.739L467.103 420.653L468.958 424.972L480.404 420.058Z" fill="#C7C7C7"/>
<path d="M468.628 392.547L466.773 388.227L455.328 393.141L457.182 397.461L468.628 392.547Z" fill="#C7C7C7"/>
<path d="M470.618 397.25L469.877 395.522L458.431 400.436L459.173 402.164L470.618 397.25Z" fill="#C7C7C7"/>
<path d="M467.126 89.5427V0" stroke="#FE9563" stroke-width="1.1751" stroke-miterlimit="10"/>
<path d="M424.119 131.141L427.527 138.779H506.846L510.254 131.141L476.528 107.757H457.844L424.119 131.141Z" fill="#FE9563"/>
<path d="M455.494 85.3123L457.845 107.757H476.529L478.879 85.3123H455.494Z" fill="#FE9563"/>
<path d="M424.119 131.141L427.527 138.779H506.846L510.254 131.141H424.119Z" fill="#FFC7AC"/>
<path d="M374.647 64.9831V0" stroke="#FE9563" stroke-width="1.1751" stroke-miterlimit="10"/>
<path d="M331.521 106.582L335.046 114.22H414.248L417.773 106.582L383.93 83.1971H365.246L331.521 106.582Z" fill="#FE9563"/>
<path d="M362.896 60.6351L365.247 83.1971H383.931L386.281 60.6351H362.896Z" fill="#FE9563"/>
<path d="M331.521 106.582L335.046 114.22H414.248L417.773 106.582H331.521Z" fill="#FFC7AC"/>
<path d="M33.8654 114.339L105.899 101.765L95.4407 52.2933L23.407 64.8669L33.8654 114.339Z" fill="#FE9563"/>
<path d="M68.8835 51.5886L94.3832 47.1232L95.4408 52.2936L68.531 56.994L68.8835 51.5886Z" fill="#FE9563"/>
<path d="M33.9836 114.222L105.9 101.766L101.199 55.5844L29.1656 68.0404L33.9836 114.222Z" fill="#FFC7AC"/>
<path d="M75.2299 55.2317L100.612 50.7664L101.2 55.5843L74.2898 60.1672L75.2299 55.2317Z" fill="#FFC7AC"/>
<path d="M64.7689 163.691L153.959 169.214L155.604 107.404L66.4141 101.881L64.7689 163.691Z" fill="#FE9563"/>
<path d="M124.23 99.0607L155.722 101.058L155.605 107.404L122.232 105.406L124.23 99.0607Z" fill="#FE9563"/>
<path d="M64.8881 163.692L154.078 169.215L161.481 112.928L72.2912 107.405L64.8881 163.692Z" fill="#FFC7AC"/>
<path d="M130.694 105.172L162.304 107.053L161.482 112.928L128.109 110.93L130.694 105.172Z" fill="#FFC7AC"/>
<path d="M423.415 273.798V249.356L448.445 261.577L423.415 273.798Z" fill="#FE9563"/>
<path d="M495.566 267.57V255.584L507.787 261.577L495.566 267.57Z" fill="#FE9563"/>
<path d="M485.813 267.57V255.584L498.034 261.577L485.813 267.57Z" fill="#FE9563"/>
<path d="M376.294 255.584V267.57L364.073 261.577L376.294 255.584Z" fill="#EBEBEB"/>
<path d="M386.046 255.584V267.57L373.825 261.577L386.046 255.584Z" fill="#FE9563"/>
<path d="M364.189 251.471H361.722V271.8H364.189V251.471Z" fill="#EBEBEB"/>
<path d="M510.254 251.471H507.786V271.8H510.254V251.471Z" fill="#FE9563"/>
<path d="M459.255 458.806C459.725 446.937 459.49 435.069 458.785 423.318C457.14 398.993 453.145 374.786 447.622 350.932C444.567 337.536 440.689 324.374 436.693 311.213C436.576 310.861 435.988 310.978 436.106 311.331C448.444 357.63 458.55 405.456 457.845 453.636C457.61 467.149 456.083 480.31 454.79 493.706C454.79 494.059 455.378 494.177 455.378 493.824C457.845 482.543 458.785 470.557 459.255 458.806Z" fill="#FE9563"/>
<path d="M436.106 311.448C436.106 311.448 417.422 358.805 421.652 369.851C425.882 381.014 434.461 383.365 434.461 383.365C434.461 383.365 423.062 399.699 431.053 414.975C439.043 430.251 456.787 429.546 457.963 446.82C457.728 446.82 458.785 374.434 436.106 311.448Z" fill="#FE9563"/>
<path d="M455.729 416.973C455.729 416.855 455.729 416.855 455.729 416.738C453.144 384.54 447.386 352.46 437.633 321.555C437.633 321.437 437.398 321.437 437.515 321.555C441.158 335.421 444.449 349.287 447.269 363.271C444.801 360.803 441.628 359.393 438.338 358.335C438.22 358.335 438.22 358.453 438.338 358.453C441.746 359.98 445.036 361.625 447.504 364.563C448.091 367.266 448.561 370.086 449.031 372.789C444.919 368.089 439.043 365.856 433.285 363.623C433.168 363.623 433.168 363.741 433.285 363.741C439.278 366.208 445.271 369.381 449.384 374.552C450.794 382.425 452.087 390.298 453.144 398.171C450.089 394.998 446.329 392.883 441.981 391.826C441.863 391.826 441.746 391.943 441.863 392.061C446.329 393.353 450.089 395.821 453.144 399.229C453.144 399.229 453.144 399.229 453.262 399.229C453.614 402.049 453.967 404.752 454.319 407.572C451.969 405.574 449.384 404.047 446.564 402.872C446.446 402.872 446.446 402.989 446.564 402.989C449.501 404.282 452.087 406.044 454.319 408.159H454.437C454.789 410.862 455.024 413.447 455.377 416.15C451.147 410.98 445.859 407.219 439.513 404.869C439.396 404.869 439.278 404.987 439.396 405.104C445.506 407.689 450.794 411.92 455.024 417.09C455.142 417.208 455.259 417.208 455.377 417.208C455.729 421.321 456.082 425.316 456.435 429.429C456.435 429.429 456.552 429.546 456.552 429.429C456.435 425.316 456.082 421.086 455.729 416.973Z" fill="#263238"/>
<path d="M440.807 353.635C437.517 351.402 433.521 350.462 429.643 350.109C429.526 350.109 429.526 350.227 429.643 350.227C433.639 350.814 437.047 352.225 440.689 353.87C440.807 353.987 440.924 353.752 440.807 353.635Z" fill="#263238"/>
<path d="M443.038 403.694C440.453 402.166 437.515 401.344 434.577 400.874C434.46 400.874 434.46 400.991 434.577 400.991C437.515 401.579 440.218 402.636 442.92 403.929C443.038 403.929 443.155 403.811 443.038 403.694Z" fill="#263238"/>
<path d="M508.257 370.673C500.501 376.196 492.98 382.424 486.635 389.593C479.819 397.113 475.001 405.691 471.476 415.21C464.426 434.716 460.548 455.868 460.195 476.55C459.96 488.184 461.018 499.7 463.485 511.098C463.603 511.568 464.19 511.451 464.073 510.98C461.018 491.004 461.135 470.557 464.426 450.698C467.598 431.074 472.651 409.804 485.107 393.94C491.923 385.245 500.384 378.429 508.727 371.379C509.197 370.908 508.609 370.321 508.257 370.673Z" fill="#FE9563"/>
<path d="M463.015 462.449C463.015 462.449 469.361 451.638 478.762 442.354C488.045 433.071 495.918 426.373 497.211 420.262C498.386 414.152 487.81 409.569 487.81 409.569C487.81 409.569 500.736 411.919 504.261 406.514C507.787 401.108 509.549 369.733 509.549 369.733C509.549 369.733 486.047 386.537 475.119 410.039C464.073 433.424 463.015 462.449 463.015 462.449Z" fill="#FE9563"/>
<path d="M501.323 377.724C491.452 387.477 481.464 397.818 475.706 410.509C473.708 414.857 472.063 419.44 470.536 424.023C470.183 424.963 469.948 425.903 469.596 426.843V426.96C466.775 436.479 464.66 446.349 462.897 455.985C462.897 456.103 463.015 456.103 463.015 455.985C464.073 451.05 465.13 446.114 466.423 441.179H466.54C468.538 440.356 470.536 439.769 472.651 439.651C472.768 439.651 472.768 439.416 472.651 439.416C470.536 439.534 468.538 439.886 466.54 440.474C467.715 436.009 468.89 431.543 470.301 427.195C474.883 426.138 479.584 425.433 484.284 425.433V425.315C479.584 425.08 475.119 425.55 470.536 426.49C470.771 425.785 471.006 424.963 471.241 424.258C474.296 423.552 477.351 422.965 480.524 422.73V422.612C477.469 422.73 474.413 422.965 471.476 423.67C472.768 419.91 474.178 416.149 475.706 412.507C476.999 409.451 478.526 406.631 480.171 403.928C482.639 403.341 485.107 402.871 487.692 402.636C487.81 402.636 487.81 402.518 487.692 402.518C485.342 402.401 482.874 402.518 480.641 403.223C481.934 401.226 483.227 399.228 484.519 397.348C489.807 396.173 495.095 395.115 500.501 396.055C500.618 396.055 500.618 395.938 500.501 395.938C495.33 394.645 490.277 395.35 485.224 396.408C485.812 395.703 486.399 394.88 486.87 394.175C490.16 393.117 493.333 392.647 496.74 392.647C496.858 392.647 496.858 392.53 496.74 392.53C493.685 392.177 490.512 392.53 487.575 393.352C491.922 387.947 496.74 382.894 501.441 377.841C501.676 377.606 501.558 377.489 501.323 377.724Z" fill="#263238"/>
<path d="M501.088 399.111C499.561 398.993 497.916 398.758 496.388 398.993C496.153 398.993 496.271 399.346 496.388 399.346C497.916 399.346 499.443 399.228 500.971 399.346C501.088 399.228 501.206 399.111 501.088 399.111Z" fill="#263238"/>
<path d="M484.167 429.546C481.7 429.546 479.232 430.133 476.882 430.956V431.073C479.232 430.486 481.7 430.251 484.05 429.898C484.402 429.898 484.402 429.546 484.167 429.546Z" fill="#263238"/>
<path d="M479.114 418.97C478.057 418.97 476.999 419.087 476.059 419.205C475.942 419.205 475.942 419.44 476.059 419.44C476.999 419.44 478.174 419.44 479.114 419.322C479.232 419.322 479.232 418.97 479.114 418.97Z" fill="#263238"/>
<path d="M394.154 403.929C401.675 406.514 409.196 409.922 416.011 414.152C423.179 418.735 429.172 424.493 434.225 431.426C444.449 445.527 452.439 461.744 457.492 478.548C460.312 487.949 462.193 497.467 462.78 507.22C462.78 507.573 462.31 507.573 462.193 507.22C460.077 490.299 455.259 473.847 447.974 458.454C440.806 443.295 431.875 427.313 418.126 417.325C410.606 411.92 402.262 408.277 393.802 404.516C393.449 404.399 393.684 403.811 394.154 403.929Z" fill="#FE9563"/>
<path d="M451.969 467.854C451.969 467.854 444.331 460.568 434.578 455.163C424.824 449.757 416.951 446.232 414.601 441.532C412.251 436.831 419.654 430.721 419.654 430.721C419.654 430.721 409.783 435.539 405.67 432.013C401.557 428.488 392.979 403.458 392.979 403.458C392.979 403.458 415.894 411.567 430.112 428.136C444.331 444.587 451.969 467.854 451.969 467.854Z" fill="#FE9563"/>
<path d="M450.795 462.684C439.396 441.18 424.12 421.791 403.203 408.982C408.726 412.507 413.779 416.503 418.479 420.968C414.249 420.851 409.901 421.556 406.141 423.553C406.023 423.553 406.141 423.671 406.258 423.671C410.489 422.261 414.484 421.321 418.949 421.556C419.067 421.556 419.067 421.556 419.067 421.556C419.772 422.261 420.594 422.966 421.299 423.671C419.067 423.788 416.834 424.023 414.719 424.493V424.611C417.069 424.141 419.302 424.023 421.652 424.023C425.53 427.901 429.055 432.014 432.463 436.244C430.935 436.009 429.29 436.127 427.88 436.597C427.763 436.597 427.763 436.832 427.88 436.715C429.525 436.48 431.17 436.48 432.815 436.597C433.403 437.42 434.108 438.242 434.696 438.947C429.995 438.712 425.412 439.065 420.829 440.24C420.712 440.24 420.829 440.357 420.829 440.357C425.53 439.417 430.348 439.182 435.048 439.417C435.636 440.24 436.223 440.945 436.811 441.767C433.991 441.65 431.288 442.002 428.585 442.708C428.468 442.708 428.468 442.943 428.585 442.825C431.405 442.238 434.226 442.002 437.163 442.12C439.631 445.528 441.981 448.936 444.214 452.461C443.039 452.226 441.746 452.343 440.571 452.696C440.454 452.696 440.571 452.813 440.571 452.813C441.864 452.696 443.156 452.813 444.449 453.048C446.447 456.221 448.444 459.394 450.324 462.684C450.442 463.154 450.912 462.919 450.795 462.684Z" fill="#263238"/>
<path d="M432.933 444.822C430.7 444.587 428.468 444.94 426.235 445.645C426.117 445.645 426.235 445.762 426.235 445.762C428.468 445.41 430.583 445.175 432.816 445.057C433.168 445.057 433.168 444.822 432.933 444.822Z" fill="#263238"/>
<path d="M413.073 418.618C412.016 418.5 410.958 418.618 410.018 418.853C409.9 418.853 409.9 419.088 410.018 419.088C411.076 418.97 412.016 418.97 413.073 418.97C413.191 418.97 413.191 418.735 413.073 418.618Z" fill="#263238"/>
<path d="M481.465 538.83H429.878L437.163 484.893L439.044 471.027H472.181L474.179 484.893L481.465 538.83Z" fill="#455A64"/>
<path d="M474.179 484.893H437.163L439.043 471.027H472.181L474.179 484.893Z" fill="#263238"/>
<path d="M476.999 466.209H434.343V477.96H476.999V466.209Z" fill="#455A64"/>
<path d="M352.318 73.4434H159.132C148.321 73.4434 139.625 82.3741 139.625 93.3026V491.192C139.625 502.12 148.438 511.051 159.132 511.051H352.318C363.129 511.051 371.942 502.12 371.942 491.192V93.3026C371.942 82.3741 363.129 73.4434 352.318 73.4434ZM359.721 478.853C359.721 489.311 351.848 497.772 342.212 497.772H169.355C159.719 497.772 151.846 489.311 151.846 478.853V108.461C151.846 87.0745 159.719 86.1344 169.355 86.1344H204.02C206.018 86.1344 207.663 88.3671 207.663 91.3049V92.48C207.663 99.1781 211.306 99.1781 215.771 99.1781H295.913C300.379 99.1781 304.021 99.1781 304.021 92.48V91.3049C304.021 88.4846 305.667 86.1344 307.664 86.1344H342.33C351.966 86.1344 359.839 88.9547 359.839 108.461V478.853H359.721Z" fill="#37474F"/>
<path d="M266.653 90.8349H244.797C244.091 90.8349 243.504 90.2473 243.504 89.5422C243.504 88.8372 244.091 88.2496 244.797 88.2496H266.653C267.358 88.2496 267.946 88.8372 267.946 89.5422C267.946 90.1298 267.358 90.8349 266.653 90.8349Z" fill="#263238"/>
<path d="M359.719 108.462V478.853C359.719 489.312 351.846 497.773 342.21 497.773H169.353C159.717 497.773 151.844 489.312 151.844 478.853V108.462C151.844 87.0748 159.717 86.1348 169.353 86.1348H204.018C206.016 86.1348 207.661 88.3675 207.661 91.3052V92.4803C207.661 99.1784 211.304 99.1784 215.769 99.1784H295.911C300.377 99.1784 304.02 99.1784 304.02 92.4803V91.3052C304.02 88.485 305.665 86.1348 307.662 86.1348H342.328C351.846 86.0173 359.719 88.955 359.719 108.462Z" fill="white"/>
<path d="M359.72 108.462V154.761H151.727V108.462C151.727 87.075 159.6 86.1349 169.236 86.1349H203.902C205.899 86.1349 207.544 88.3676 207.544 91.3053V92.4804C207.544 99.1785 211.187 99.1785 215.653 99.1785H295.795C300.26 99.1785 303.903 99.1785 303.903 92.4804V91.3053C303.903 88.4851 305.548 86.1349 307.546 86.1349H342.211C351.847 86.0174 359.72 88.9551 359.72 108.462Z" fill="#FE9563"/>
<path d="M172.762 134.314L166.652 128.556L172.762 122.798L173.82 123.855L168.649 128.556L173.82 133.374L172.762 134.314Z" fill="white"/>
<path d="M343.622 125.03C343.622 125.735 343.034 126.205 342.446 126.205C341.859 126.205 341.271 125.618 341.271 125.03C341.271 124.443 341.859 123.855 342.446 123.855C343.034 123.855 343.622 124.325 343.622 125.03Z" fill="white"/>
<path d="M343.622 129.261C343.622 129.966 343.034 130.436 342.446 130.436C341.859 130.436 341.271 129.848 341.271 129.261C341.271 128.556 341.859 128.086 342.446 128.086C343.034 128.086 343.622 128.673 343.622 129.261Z" fill="white"/>
<path d="M343.622 133.608C343.622 134.313 343.034 134.783 342.446 134.783C341.859 134.783 341.271 134.196 341.271 133.608C341.271 132.903 341.859 132.433 342.446 132.433C343.034 132.433 343.622 132.903 343.622 133.608Z" fill="white"/>
<path d="M197.909 94.3604C197.792 94.4779 197.674 94.5954 197.557 94.7129C197.439 94.8304 197.439 94.8304 197.322 94.9479C196.382 94.1254 195.324 93.6553 194.149 93.6553C192.856 93.6553 191.799 94.1254 190.976 94.9479C190.859 94.8304 190.859 94.8304 190.741 94.7129C190.624 94.5954 190.506 94.4779 190.389 94.3604C190.506 94.2429 190.624 94.1254 190.859 94.0079C191.211 93.7728 191.446 93.5378 191.799 93.4203C192.269 93.1853 192.621 93.0678 193.091 92.9503C193.326 92.9503 193.561 92.8328 193.796 92.8328C193.914 92.8328 194.384 92.8328 194.384 92.8328C194.502 92.8328 194.737 92.8328 194.854 92.8328C195.207 92.8328 195.677 92.9503 196.029 93.0678C196.264 93.1853 196.617 93.3028 196.852 93.4203C197.087 93.5378 197.439 93.7728 197.674 94.0079C197.674 94.1254 197.792 94.2429 197.909 94.3604Z" fill="white"/>
<path d="M192.034 96.0056C191.799 95.8881 191.681 95.6531 191.446 95.5356C192.034 94.948 192.739 94.5955 193.561 94.478C194.854 94.3605 195.912 94.713 196.852 95.5356C196.617 95.7706 196.499 95.8881 196.264 96.0056C195.677 95.418 194.971 95.0655 194.149 95.0655C193.326 95.0655 192.621 95.418 192.034 96.0056Z" fill="white"/>
<path d="M195.793 96.4758C195.676 96.5933 195.441 96.8283 195.323 96.9459C194.971 96.5933 194.618 96.4758 194.266 96.4758C193.796 96.4758 193.443 96.5933 193.208 96.9459C193.091 96.8283 192.856 96.5933 192.738 96.4758C193.443 95.6532 194.853 95.5357 195.793 96.4758Z" fill="white"/>
<path d="M194.618 97.5335C194.618 97.7685 194.383 98.0036 194.148 98.0036C193.913 98.0036 193.678 97.7685 193.678 97.5335C193.678 97.2985 193.913 97.0635 194.148 97.0635C194.501 97.0635 194.618 97.181 194.618 97.5335Z" fill="white"/>
<path d="M165.36 95.4181C165.36 94.713 165.948 94.0079 166.77 94.0079C167.475 94.0079 168.18 94.5955 168.18 95.4181C168.18 96.2406 167.593 96.8282 166.77 96.8282C165.948 96.8282 165.36 96.1231 165.36 95.4181Z" fill="white"/>
<path d="M169.708 95.4181C169.708 94.713 170.296 94.0079 171.118 94.0079C171.824 94.0079 172.529 94.5955 172.529 95.4181C172.529 96.2406 171.941 96.8282 171.118 96.8282C170.296 96.8282 169.708 96.1231 169.708 95.4181Z" fill="white"/>
<path d="M174.056 95.4181C174.056 94.713 174.644 94.0079 175.467 94.0079C176.172 94.0079 176.877 94.5955 176.877 95.4181C176.877 96.2406 176.289 96.8282 175.467 96.8282C174.644 96.8282 174.056 96.1231 174.056 95.4181Z" fill="white"/>
<path d="M178.287 95.4181C178.287 94.713 178.874 94.0079 179.697 94.0079C180.402 94.0079 181.107 94.5955 181.107 95.4181C181.107 96.2406 180.519 96.8282 179.697 96.8282C178.992 96.8282 178.287 96.1231 178.287 95.4181Z" fill="white"/>
<path d="M182.635 95.4181C182.635 94.713 183.222 94.0079 184.045 94.0079C184.75 94.0079 185.455 94.5955 185.455 95.4181C185.455 96.2406 184.868 96.8282 184.045 96.8282C183.34 96.8282 182.635 96.1231 182.635 95.4181Z" fill="white"/>
<path d="M344.092 98.3554H332.811V93.1849H344.092V98.3554ZM333.398 97.7678H343.504V93.7725H333.398V97.7678Z" fill="white"/>
<path d="M341.036 94.1246H333.751V97.5324H341.036V94.1246Z" fill="white"/>
<path d="M345.031 94.3596H344.091V97.1799H345.031V94.3596Z" fill="white"/>
<path d="M183.339 475.21H181.811V482.378H178.873V478.736H173.585V482.378H170.648V475.21H169.003L176.171 467.807L183.339 475.21Z" fill="#EBEBEB"/>
<path d="M342.448 467.807H325.174V470.275H342.448V467.807Z" fill="#EBEBEB"/>
<path d="M342.448 473.917H325.174V476.385H342.448V473.917Z" fill="#EBEBEB"/>
<path d="M342.448 479.91H325.174V482.378H342.448V479.91Z" fill="#EBEBEB"/>
<path d="M260.66 474.153L255.724 479.324L250.789 474.153L251.729 473.331L255.724 477.678L259.72 473.331L260.66 474.153Z" fill="#EBEBEB"/>
<path d="M255.725 484.729C250.789 484.729 246.794 480.733 246.794 475.798C246.794 470.863 250.789 466.867 255.725 466.867C260.66 466.867 264.656 470.863 264.656 475.798C264.656 480.733 260.66 484.729 255.725 484.729ZM255.725 468.16C251.494 468.16 247.969 471.568 247.969 475.915C247.969 480.146 251.377 483.671 255.725 483.671C259.955 483.671 263.48 480.263 263.48 475.915C263.48 471.568 259.955 468.16 255.725 468.16Z" fill="#EBEBEB"/>
<path d="M338.1 354.998V357.348H335.75" stroke="#FE9563" stroke-width="1.1751" stroke-miterlimit="10"/>
<path d="M331.167 357.348H177.934" stroke="#FE9563" stroke-width="1.1751" stroke-miterlimit="10" stroke-dasharray="4.58 4.58"/>
<path d="M175.7 357.348H173.35V354.998" stroke="#FE9563" stroke-width="1.1751" stroke-miterlimit="10"/>
<path d="M173.35 350.415V231.142" stroke="#FE9563" stroke-width="1.1751" stroke-miterlimit="10" stroke-dasharray="4.68 4.68"/>
<path d="M173.35 228.792V226.442H175.7" stroke="#FFC727" stroke-width="1.1751" stroke-miterlimit="10"/>
<path d="M180.283 226.442H333.516" stroke="#FE9563" stroke-width="1.1751" stroke-miterlimit="10" stroke-dasharray="4.58 4.58"/>
<path d="M335.75 226.442H338.1V228.792" stroke="#FFC727" stroke-width="1.1751" stroke-miterlimit="10"/>
<path d="M338.099 233.493V352.766" stroke="#FE9563" stroke-width="1.1751" stroke-miterlimit="10" stroke-dasharray="4.68 4.68"/>
<path d="M194.385 308.699C194.385 317.043 200.848 323.858 209.074 324.446H298.617C308.84 324.446 317.183 316.102 317.183 305.879C317.183 296.243 309.78 288.253 300.379 287.43C299.792 270.626 286.043 257.112 269.122 257.112C255.608 257.112 244.092 265.691 239.744 277.559C237.276 276.267 234.456 275.562 231.401 275.562C221.53 275.562 213.422 283.317 212.834 292.953C212.012 292.835 211.189 292.718 210.249 292.718C201.436 292.835 194.385 300.004 194.385 308.699Z" fill="#FE9563"/>
<path d="M263.834 303.882H247.618V324.446H263.834V303.882Z" fill="white"/>
<path d="M242.094 303.881H269.357L255.726 290.25L242.094 303.881Z" fill="white"/>
<path d="M217.65 132.904C215.888 132.904 214.36 131.494 214.36 129.614V125.619C214.36 125.266 214.595 125.031 214.948 125.031C215.3 125.031 215.535 125.266 215.535 125.619V129.614C215.535 130.671 216.475 131.612 217.533 131.612C218.708 131.612 219.531 130.671 219.531 129.614V125.619C219.531 125.266 219.766 125.031 220.118 125.031C220.471 125.031 220.706 125.266 220.706 125.619V129.614C220.941 131.377 219.531 132.904 217.65 132.904Z" fill="white"/>
<path d="M226.229 129.849H224.819V132.317C224.819 132.669 224.584 132.904 224.232 132.904C223.879 132.904 223.644 132.669 223.644 132.317V125.619C223.644 125.266 223.879 125.031 224.232 125.031H226.229C227.522 125.031 228.697 126.089 228.697 127.499C228.697 128.674 227.522 129.849 226.229 129.849ZM224.819 128.556H226.229C226.934 128.556 227.404 128.086 227.404 127.381C227.404 126.676 226.934 126.206 226.229 126.206H224.819V128.556Z" fill="white"/>
<path d="M230.224 132.199V125.501C230.224 125.148 230.459 124.913 230.811 124.913C231.164 124.913 231.399 125.148 231.399 125.501V131.494H234.454C234.807 131.494 235.042 131.729 235.042 132.081C235.042 132.434 234.807 132.669 234.454 132.669H230.811C230.459 132.904 230.224 132.551 230.224 132.199Z" fill="white"/>
<path d="M242.327 125.971C243.032 126.676 243.502 127.733 243.502 128.791C243.502 129.966 243.032 130.906 242.327 131.611C241.622 132.316 240.681 132.786 239.624 132.786C238.566 132.786 237.509 132.316 236.804 131.611C236.099 130.906 235.629 129.848 235.629 128.791C235.629 127.616 236.099 126.676 236.804 125.971C237.509 125.266 238.449 124.796 239.624 124.796C240.681 124.796 241.622 125.266 242.327 125.971ZM242.209 128.791C242.209 127.968 241.857 127.263 241.387 126.793C240.916 126.323 240.329 125.971 239.624 125.971C238.919 125.971 238.214 126.206 237.744 126.793C237.274 127.263 236.921 127.968 236.921 128.791C236.921 129.613 237.156 130.319 237.744 130.789C238.214 131.259 238.801 131.611 239.624 131.611C240.329 131.611 240.916 131.259 241.387 130.789C241.857 130.319 242.209 129.613 242.209 128.791Z" fill="white"/>
<path d="M249.26 131.024H246.558L245.97 132.434C245.853 132.669 245.617 132.787 245.382 132.787C245.265 132.787 245.265 132.787 245.147 132.787C244.795 132.669 244.677 132.316 244.795 131.964L247.263 125.266C247.38 125.031 247.615 124.913 247.85 124.913C248.085 124.913 248.32 125.031 248.438 125.266L250.905 131.964C251.023 132.316 250.905 132.669 250.553 132.787C250.553 132.787 250.435 132.787 250.318 132.787C250.083 132.787 249.848 132.669 249.73 132.434L249.26 131.024ZM248.79 129.731L247.85 127.264L246.91 129.731H248.79Z" fill="white"/>
<path d="M252.551 132.199V125.501C252.551 125.148 252.786 124.913 253.139 124.913H254.431C256.664 124.913 258.427 126.676 258.427 128.909C258.427 131.141 256.664 132.904 254.431 132.904H253.139C252.786 132.904 252.551 132.551 252.551 132.199ZM253.844 131.611H254.549C256.076 131.611 257.251 130.436 257.251 128.909C257.251 127.381 256.076 126.206 254.549 126.206H253.844V131.611Z" fill="white"/>
<path d="M266.653 132.787C266.535 132.787 266.653 132.787 266.653 132.787C266.535 132.669 266.535 132.669 266.653 132.787C266.535 132.669 266.535 132.669 266.535 132.669V132.552L263.715 125.971C263.597 125.619 263.715 125.266 264.067 125.149C264.42 125.031 264.772 125.149 264.89 125.501L267.123 130.789L269.355 125.501C269.473 125.149 269.825 125.031 270.178 125.149C270.53 125.266 270.648 125.619 270.53 125.971L267.71 132.552V132.669C267.71 132.669 267.71 132.669 267.71 132.787C267.71 132.787 267.71 132.787 267.593 132.787C267.593 132.787 267.593 132.787 267.475 132.787C267.475 132.787 267.475 132.787 267.358 132.787H267.24H267.123H267.005C267.005 132.787 266.77 132.787 266.653 132.787C266.77 132.787 266.653 132.787 266.653 132.787Z" fill="white"/>
<path d="M272.057 125.619C272.057 125.266 272.293 125.031 272.645 125.031C272.998 125.031 273.233 125.266 273.233 125.619V132.317C273.233 132.669 272.998 132.904 272.645 132.904C272.293 132.904 272.057 132.669 272.057 132.317V125.619Z" fill="white"/>
<path d="M275.466 132.199V125.501C275.466 125.148 275.701 124.913 276.053 124.913H277.346C279.579 124.913 281.341 126.676 281.341 128.909C281.341 131.141 279.579 132.904 277.346 132.904H276.053C275.701 132.904 275.466 132.551 275.466 132.199ZM276.641 131.611H277.346C278.874 131.611 280.049 130.436 280.049 128.909C280.049 127.381 278.874 126.206 277.346 126.206H276.641V131.611Z" fill="white"/>
<path d="M282.987 132.199V125.501C282.987 125.148 283.222 124.913 283.574 124.913H287.217C287.57 124.913 287.805 125.148 287.805 125.501C287.805 125.853 287.57 126.088 287.217 126.088H284.279V128.204H286.865C287.217 128.204 287.452 128.439 287.452 128.791C287.452 129.144 287.217 129.379 286.865 129.379H284.279V131.494H287.335C287.687 131.494 287.922 131.729 287.922 132.081C287.922 132.434 287.687 132.669 287.335 132.669H283.692C283.222 132.904 282.987 132.551 282.987 132.199Z" fill="white"/>
<path d="M295.912 125.971C296.618 126.676 297.088 127.733 297.088 128.791C297.088 129.966 296.618 130.906 295.912 131.611C295.207 132.316 294.267 132.786 293.21 132.786C292.152 132.786 291.095 132.316 290.39 131.611C289.684 130.906 289.214 129.848 289.214 128.791C289.214 127.616 289.684 126.676 290.39 125.971C291.095 125.266 292.035 124.796 293.21 124.796C294.267 124.796 295.207 125.266 295.912 125.971ZM295.795 128.791C295.795 127.968 295.442 127.263 294.972 126.793C294.502 126.323 293.915 125.971 293.21 125.971C292.505 125.971 291.8 126.206 291.33 126.793C290.86 127.263 290.507 127.968 290.507 128.791C290.507 129.613 290.742 130.319 291.33 130.789C291.8 131.259 292.387 131.611 293.21 131.611C293.915 131.611 294.502 131.259 294.972 130.789C295.442 130.319 295.795 129.613 295.795 128.791Z" fill="white"/>
<path d="M238.804 379.909C237.276 379.909 236.101 378.734 236.101 377.206V373.916C236.101 373.681 236.336 373.446 236.571 373.446C236.806 373.446 237.041 373.681 237.041 373.916V377.206C237.041 378.146 237.746 378.852 238.686 378.852C239.626 378.852 240.332 378.146 240.332 377.206V373.916C240.332 373.681 240.567 373.446 240.802 373.446C241.037 373.446 241.272 373.681 241.272 373.916V377.206C241.507 378.734 240.214 379.909 238.804 379.909Z" fill="#C7C7C7"/>
<path d="M243.622 381.202V377.676V375.796C243.622 375.561 243.857 375.326 244.092 375.326C244.327 375.326 244.562 375.561 244.562 375.679C244.915 375.444 245.385 375.326 245.855 375.326C247.147 375.326 248.087 376.384 248.087 377.676C248.087 378.969 247.03 380.027 245.855 380.027C245.385 380.027 244.915 379.909 244.562 379.674V381.319C244.562 381.554 244.327 381.789 243.975 381.789C243.857 381.672 243.622 381.437 243.622 381.202ZM244.562 377.559C244.562 377.911 244.68 378.264 244.915 378.499C245.15 378.734 245.502 378.851 245.855 378.851C246.207 378.851 246.442 378.734 246.677 378.499C246.912 378.264 247.03 377.911 247.03 377.559C247.03 377.206 246.912 376.854 246.677 376.619C246.442 376.384 246.09 376.266 245.855 376.266C245.502 376.266 245.15 376.384 244.915 376.619C244.68 376.854 244.562 377.206 244.562 377.559Z" fill="#C7C7C7"/>
<path d="M250.202 373.329C250.437 373.329 250.672 373.564 250.672 373.799V379.322C250.672 379.557 250.437 379.792 250.202 379.792C249.967 379.792 249.732 379.557 249.732 379.322V373.799C249.615 373.564 249.85 373.329 250.202 373.329Z" fill="#C7C7C7"/>
<path d="M252.318 379.204C251.965 378.734 251.613 378.264 251.613 377.559C251.613 376.972 251.848 376.384 252.318 375.914C252.788 375.444 253.258 375.209 253.963 375.209C254.551 375.209 255.138 375.444 255.491 375.914C255.961 376.384 256.196 376.972 256.196 377.559C256.196 378.264 255.961 378.852 255.491 379.204C255.138 379.674 254.551 379.909 253.963 379.909C253.376 379.909 252.788 379.674 252.318 379.204ZM252.788 377.559C252.788 377.912 252.906 378.264 253.141 378.499C253.376 378.734 253.728 378.852 254.081 378.852C254.433 378.852 254.668 378.734 254.903 378.499C255.138 378.264 255.256 377.912 255.256 377.559C255.256 377.207 255.138 376.854 254.903 376.619C254.668 376.384 254.316 376.267 254.081 376.267C253.728 376.267 253.376 376.384 253.141 376.619C252.906 376.854 252.788 377.207 252.788 377.559Z" fill="#C7C7C7"/>
<path d="M261.718 377.559V379.439C261.718 379.674 261.483 379.909 261.248 379.909C261.013 379.909 260.778 379.674 260.778 379.557C260.426 379.792 259.956 379.909 259.486 379.909C258.898 379.909 258.311 379.674 257.84 379.204C257.488 378.734 257.253 378.147 257.253 377.559C257.253 376.854 257.488 376.384 257.84 375.914C258.193 375.444 258.781 375.209 259.486 375.209C259.956 375.209 260.426 375.327 260.778 375.679C260.778 375.444 261.013 375.209 261.248 375.209C261.483 375.209 261.718 375.444 261.718 375.679V377.559ZM260.778 377.559C260.778 377.207 260.661 376.854 260.426 376.619C260.191 376.384 259.838 376.267 259.603 376.267C259.251 376.267 258.898 376.384 258.781 376.619C258.546 376.854 258.428 377.207 258.428 377.559C258.428 377.912 258.546 378.264 258.781 378.499C259.016 378.734 259.368 378.852 259.603 378.852C259.956 378.852 260.308 378.734 260.426 378.499C260.661 378.264 260.778 377.912 260.778 377.559Z" fill="#C7C7C7"/>
<path d="M267.83 379.439C267.83 379.674 267.595 379.909 267.359 379.909C267.124 379.909 266.889 379.674 266.889 379.557C266.537 379.792 266.067 379.909 265.597 379.909C264.304 379.909 263.364 378.852 263.364 377.559C263.364 376.266 264.422 375.209 265.597 375.209C266.067 375.209 266.537 375.326 266.889 375.561V373.799C266.889 373.564 267.124 373.329 267.359 373.329C267.595 373.329 267.83 373.564 267.83 373.799V377.559V379.439ZM265.597 376.266C265.244 376.266 264.892 376.384 264.774 376.619C264.539 376.854 264.422 377.207 264.422 377.559C264.422 377.912 264.539 378.264 264.774 378.499C265.009 378.734 265.362 378.852 265.597 378.852C265.949 378.852 266.302 378.734 266.537 378.499C266.772 378.264 266.889 377.912 266.889 377.559C266.889 377.207 266.772 376.854 266.537 376.619C266.184 376.384 265.949 376.266 265.597 376.266Z" fill="#C7C7C7"/>
<path d="M270.414 378.617C270.766 378.617 271.119 378.969 271.119 379.322C271.119 379.674 270.766 380.027 270.414 380.027C270.061 380.027 269.708 379.674 269.708 379.322C269.708 378.852 269.944 378.617 270.414 378.617Z" fill="#C7C7C7"/>
<path d="M272.53 378.617C272.882 378.617 273.235 378.969 273.235 379.322C273.235 379.674 272.882 380.027 272.53 380.027C272.177 380.027 271.825 379.674 271.825 379.322C271.825 378.852 272.177 378.617 272.53 378.617Z" fill="#C7C7C7"/>
<path d="M274.645 378.617C274.998 378.617 275.35 378.969 275.35 379.322C275.35 379.674 274.998 380.027 274.645 380.027C274.292 380.027 273.94 379.674 273.94 379.322C274.057 378.852 274.292 378.617 274.645 378.617Z" fill="#C7C7C7"/>
<path d="M328.701 386.725H182.754V395.891H328.701V386.725Z" fill="#EBEBEB"/>
<path d="M231.756 388.37H184.517V394.363H231.756V388.37Z" fill="#FE9563"/>
<path opacity="0.1" d="M194.035 388.37H189.099L184.517 394.363H189.452L194.035 388.37Z" fill="black"/>
<path opacity="0.1" d="M203.435 388.37H198.618L193.917 394.363H198.853L203.435 388.37Z" fill="black"/>
<path opacity="0.1" d="M212.954 388.37H208.018L203.435 394.363H208.253L212.954 388.37Z" fill="black"/>
<path opacity="0.1" d="M222.354 388.37H217.419L212.836 394.363H217.771L222.354 388.37Z" fill="black"/>
<path opacity="0.1" d="M231.755 388.37H226.937L222.236 394.363H227.172L231.755 388.37Z" fill="black"/>
<path opacity="0.1" d="M278.995 394.363V394.246L278.877 394.363H278.995Z" fill="black"/>
<path d="M391.097 178.851C390.157 179.791 389.217 180.731 388.277 181.671C387.689 182.258 387.219 182.728 386.632 183.316C379.111 176.03 370.18 172.153 359.605 172.153C349.146 172.153 340.098 176.03 332.577 183.433C332.107 182.963 331.52 182.376 331.05 181.906C330.109 180.966 329.169 180.026 328.229 179.086C328.229 179.086 328.229 179.086 328.112 179.086C328.112 179.086 328.112 179.086 328.112 178.968C328.229 178.968 328.229 178.851 328.347 178.851C329.522 177.793 330.697 176.735 331.872 175.678C334.34 173.563 337.16 171.917 340.098 170.507C343.506 168.862 347.148 167.57 351.026 166.865C352.789 166.512 354.669 166.395 356.432 166.159C357.019 166.042 361.015 166.042 361.132 166.042C362.425 166.16 363.6 166.159 364.892 166.277C368.3 166.63 371.591 167.452 374.881 168.627C377.231 169.45 379.464 170.507 381.579 171.8C383.812 173.093 386.044 174.62 388.042 176.265C389.217 176.97 390.157 177.911 391.097 178.851Z" fill="#F6EDDF"/>
<path d="M341.508 192.129C339.98 190.601 338.57 189.191 337.043 187.781C342.096 182.845 348.089 179.672 355.022 178.732C365.48 177.322 374.528 180.495 382.167 187.781C380.639 189.308 379.229 190.718 377.701 192.246C372.648 187.428 366.655 184.725 359.605 184.725C352.672 184.608 346.561 187.193 341.508 192.129Z" fill="#F6EDDF"/>
<path d="M373.354 196.476C371.944 197.886 370.416 199.414 368.889 200.824C366.304 198.357 363.248 196.946 359.606 196.946C355.963 196.946 352.907 198.357 350.322 200.824C348.795 199.297 347.384 197.886 345.974 196.476C353.025 189.191 365.599 188.603 373.354 196.476Z" fill="#F6EDDF"/>
<path d="M363.718 204.937C363.718 207.17 361.955 208.933 359.722 208.933C357.49 208.933 355.727 207.17 355.727 204.937C355.727 202.705 357.49 200.942 359.722 200.942C361.838 200.942 363.718 202.705 363.718 204.937Z" fill="#F6EDDF"/>
<path d="M121.412 464.283L117.887 512.579C117.887 521.98 118.004 530.323 118.474 534.554C118.474 534.554 118.474 534.554 118.474 534.671C118.592 536.316 118.827 537.374 119.179 537.609C119.179 537.609 119.179 537.609 119.179 537.727C121.999 539.607 197.558 542.192 200.144 541.487C202.846 540.664 200.731 533.026 197.911 530.558C195.091 528.091 166.536 514.224 166.536 514.224L169.591 465.928L121.412 464.283Z" fill="#774442"/>
<path d="M200.261 541.252C197.558 542.074 122.117 539.489 119.297 537.491C119.297 537.491 119.297 537.491 119.179 537.374C118.944 537.139 118.709 536.081 118.474 534.436C118.474 534.436 118.474 534.436 118.474 534.319C118.004 529.971 117.887 521.745 117.887 512.344C117.887 512.344 118.474 504.001 119.179 494.248L167.711 496.48L166.653 513.872C166.653 513.872 195.091 527.738 198.028 530.206C200.849 532.909 202.964 540.547 200.261 541.252Z" fill="#EBEBEB"/>
<path d="M200.613 541.486C197.91 542.309 121.176 540.194 118.356 538.196C117.299 537.491 117.063 511.756 118.591 498.713L167.945 500.593C167.945 500.593 167.828 513.871 168.415 514.106C173.233 516.574 195.678 528.09 198.263 530.323C201.201 532.791 203.316 540.664 200.613 541.486Z" fill="#FE9563"/>
<path d="M199.674 538.314C186.865 537.491 134.926 535.494 122.235 535.729C122.117 535.729 122.117 535.846 122.235 535.846C134.926 536.904 186.865 538.549 199.674 538.666C199.909 538.549 199.909 538.314 199.674 538.314Z" fill="#263238"/>
<path d="M193.564 527.385C190.509 527.15 187.454 528.443 185.808 530.206C184.163 531.851 182.636 534.318 182.636 536.904C182.636 537.021 182.753 537.021 182.753 536.904C183.693 531.851 188.394 527.62 193.564 527.503C193.682 527.62 193.682 527.385 193.564 527.385Z" fill="#263238"/>
<path d="M171.589 515.164C166.418 514.929 160.425 516.457 157.018 520.57C156.9 520.687 157.135 520.922 157.253 520.805C161.953 518.572 166.536 516.927 171.589 515.752C171.941 515.634 171.941 515.164 171.589 515.164Z" fill="#263238"/>
<path d="M175.467 516.809C170.296 516.574 164.303 518.102 160.896 522.215C160.778 522.332 161.013 522.567 161.131 522.45C165.831 520.217 170.414 518.572 175.467 517.397C175.819 517.397 175.819 516.809 175.467 516.809Z" fill="#263238"/>
<path d="M179.345 518.454C174.175 518.219 168.182 519.747 164.774 523.86C164.656 523.977 164.891 524.212 165.009 524.095C169.709 521.862 174.292 520.217 179.345 519.042C179.815 519.042 179.698 518.572 179.345 518.454Z" fill="#263238"/>
<path d="M183.222 520.217C178.052 519.982 172.059 521.51 168.651 525.623C168.533 525.74 168.768 525.975 168.886 525.858C173.586 523.625 178.169 521.98 183.222 520.805C183.692 520.805 183.692 520.217 183.222 520.217Z" fill="#263238"/>
<path d="M126.465 503.766C120.707 503.531 120.354 512.579 126.112 512.697C131.988 512.932 132.34 503.883 126.465 503.766Z" fill="#263238"/>
<path d="M177.583 501.651C175.115 499.418 171.707 501.416 170.062 503.531C169.357 504.471 168.652 505.646 167.947 506.821C166.537 509.407 165.479 512.344 165.009 515.165C165.009 515.4 164.892 515.635 164.892 515.87C164.892 515.987 164.892 515.987 164.892 515.987C164.892 516.222 164.774 516.34 164.774 516.575C164.774 516.692 164.892 516.692 164.892 516.692C165.009 516.927 165.127 517.162 165.362 517.162C165.479 517.162 165.597 517.162 165.714 517.162C166.772 516.457 167.829 515.87 168.887 515.165L169.474 514.812C172.06 513.167 174.645 511.522 176.643 509.172C178.64 507.056 180.05 503.766 177.583 501.651ZM170.885 512.344C170.062 512.932 169.239 513.402 168.299 513.99C167.477 514.46 166.654 515.047 165.949 515.635C165.832 515.635 165.832 515.752 165.714 515.87C165.597 515.987 165.479 515.987 165.479 516.105C165.479 515.987 165.597 515.87 165.597 515.87C166.419 513.872 167.124 511.874 168.064 509.877C168.182 509.524 168.417 509.054 168.652 508.702C169.239 507.526 169.944 506.351 170.65 505.294C171.825 503.649 176.995 499.536 177.348 505.176C177.465 507.996 173.117 510.817 170.885 512.344Z" fill="#263238"/>
<path d="M165.947 516.222C166.065 516.105 166.065 516.105 165.947 515.987C165.83 515.87 165.712 515.752 165.595 515.752L165.477 515.635C165.36 515.517 165.125 515.282 165.007 515.165C161.952 512.462 157.722 510.229 153.726 509.289C151.024 508.701 147.146 509.289 146.676 512.579C146.206 515.752 149.378 517.515 151.964 517.985C154.549 518.455 157.252 518.337 159.954 517.985C161.835 517.75 163.715 517.397 165.477 517.28C166.065 517.045 166.182 516.575 165.947 516.222ZM158.662 516.575C156.077 516.81 150.789 517.397 149.026 514.93C145.736 510.347 152.316 510.229 154.314 510.817C155.606 511.169 156.782 511.639 158.074 512.227C160.542 513.284 162.775 514.577 165.007 515.87C165.125 515.87 165.125 515.987 165.242 515.987C165.125 515.987 165.007 515.987 165.007 515.987C164.772 515.987 164.537 515.987 164.185 515.987C162.305 516.105 160.542 516.34 158.662 516.575Z" fill="#263238"/>
<path d="M117.885 491.545L171.94 493.778C171.94 493.778 174.408 418.336 173.233 386.726C171.94 352.295 157.134 249.709 157.134 249.709H112.48C112.48 249.709 123.878 352.648 124.113 387.078C124.348 419.041 117.885 491.545 117.885 491.545Z" fill="#37474F"/>
<path d="M148.32 249.709L121.528 342.542C118.355 298.593 112.48 249.709 112.48 249.709H148.32Z" fill="#263238"/>
<path d="M120.941 254.761L123.761 285.314L126.346 315.984C127.991 336.431 129.636 356.878 130.811 377.324C131.164 382.495 131.281 387.548 131.164 392.718C131.046 397.889 130.811 402.942 130.576 408.112C130.106 418.335 129.401 428.559 128.579 438.782C127.756 449.005 124.936 479.088 124.936 479.088C124.936 479.088 127.051 449.005 127.639 438.782C128.226 428.559 128.931 418.335 129.401 408.112C129.636 402.942 129.871 397.889 129.871 392.718C129.871 387.665 129.754 382.495 129.401 377.442C128.344 356.995 126.699 336.548 125.171 316.102L120.941 254.761Z" fill="#263238"/>
<path d="M170.178 483.671C161.953 483.084 164.303 483.201 156.077 482.731C152.082 482.496 125.525 480.968 121.764 481.438C121.647 481.438 121.647 481.556 121.764 481.556C125.525 482.378 152.082 483.319 156.077 483.554C164.303 483.906 161.953 483.671 170.178 483.906C170.296 483.906 170.413 483.671 170.178 483.671Z" fill="#263238"/>
<path d="M35.6283 436.903L10.9512 478.619C6.72084 487.079 3.07803 494.483 1.66791 498.595C1.66791 498.595 1.66791 498.595 1.66791 498.713C1.08036 500.241 0.845339 501.298 0.962849 501.651C0.962849 501.651 0.962849 501.651 0.962849 501.768C2.60799 504.706 69.1187 540.664 71.8214 541.134C74.5241 541.604 76.1693 533.848 74.6417 530.441C73.114 527.033 53.8424 501.886 53.8424 501.886L78.0494 460.052L35.6283 436.903Z" fill="#774442"/>
<path d="M71.8214 541.017C69.1187 540.546 2.60799 504.588 0.962849 501.651C0.962849 501.651 0.962849 501.651 0.962849 501.533C0.845339 501.181 1.08036 500.123 1.66791 498.595C1.66791 498.595 1.66791 498.595 1.66791 498.478C3.19554 494.483 6.72084 486.962 10.9512 478.501C10.9512 478.501 15.1816 471.216 20.2345 462.872L62.6556 486.492L53.9599 501.651C53.9599 501.651 73.2315 526.798 74.7592 530.206C76.1693 533.731 74.6417 541.487 71.8214 541.017Z" fill="#EBEBEB"/>
<path d="M72.1735 541.251C69.3532 540.781 1.66743 504.706 0.0222856 501.65C-0.565265 500.475 10.5982 477.326 17.7663 466.397L61.1275 490.135C61.1275 490.135 55.1345 502.003 55.6045 502.473C58.8948 506.821 73.8186 527.15 75.1112 530.323C76.5213 533.848 74.8762 541.721 72.1735 541.251Z" fill="#FE9563"/>
<path d="M72.6435 538.079C61.48 531.616 16.0037 506.704 4.48767 501.181C4.37016 501.181 4.37016 501.181 4.48767 501.298C15.4161 507.879 61.1275 532.438 72.526 538.314C72.761 538.314 72.8785 538.196 72.6435 538.079Z" fill="#263238"/>
<path d="M72.0555 525.505C69.4703 523.978 66.18 523.743 63.8298 524.565C61.5971 525.388 59.2469 526.798 58.0718 529.266C58.0718 529.383 58.1893 529.383 58.1893 529.383C61.2445 525.27 67.3551 523.625 72.0555 525.74C72.0555 525.74 72.173 525.623 72.0555 525.505Z" fill="#263238"/>
<path d="M57.8365 504.706C53.3711 502.121 47.2606 500.946 42.4427 503.061C42.2077 503.178 42.3252 503.413 42.5602 503.413C47.8481 503.531 52.5485 504.118 57.6015 505.294C57.954 505.411 58.189 504.941 57.8365 504.706Z" fill="#263238"/>
<path d="M60.5405 507.996C56.0751 505.411 49.9646 504.236 45.1467 506.351C44.9116 506.468 45.0291 506.703 45.2642 506.703C50.5521 506.821 55.2525 507.409 60.3055 508.584C60.658 508.701 60.893 508.114 60.5405 507.996Z" fill="#263238"/>
<path d="M63.3599 511.287C58.8946 508.702 52.784 507.527 47.9661 509.642C47.7311 509.759 47.8486 509.994 48.0836 509.994C53.3716 510.112 58.072 510.7 63.1249 511.875C63.4774 511.992 63.595 511.405 63.3599 511.287Z" fill="#263238"/>
<path d="M66.0628 514.459C61.5974 511.874 55.4869 510.699 50.669 512.814C50.434 512.932 50.5515 513.167 50.7865 513.167C56.0745 513.284 60.7749 513.872 65.8278 515.047C66.1803 515.164 66.4153 514.694 66.0628 514.459Z" fill="#263238"/>
<path d="M22.5839 474.506C17.531 471.803 13.1831 479.676 18.3536 482.379C23.4065 485.082 27.6369 477.209 22.5839 474.506Z" fill="#263238"/>
<path d="M69.2363 495.306C67.9437 492.133 64.0659 492.485 61.5982 493.661C60.5406 494.248 59.3655 494.836 58.3079 495.658C55.8402 497.421 53.6075 499.536 51.9623 501.886C51.8448 502.121 51.7273 502.239 51.6098 502.474C51.4923 502.474 51.4923 502.591 51.4923 502.591C51.3748 502.709 51.2573 502.826 51.1398 503.061C51.1398 503.179 51.1398 503.296 51.2573 503.296C51.2573 503.531 51.2573 503.884 51.4923 504.001C51.6098 504.119 51.7273 504.119 51.8448 504.119C53.0199 504.001 54.3125 503.884 55.6052 503.766H56.3102C59.3655 503.531 62.4207 503.179 65.241 501.886C67.7087 500.711 70.5289 498.361 69.2363 495.306ZM58.5429 501.886C57.4853 502.004 56.5452 502.121 55.6052 502.239C54.6651 502.356 53.725 502.474 52.7849 502.591C52.6674 502.591 52.5499 502.591 52.4324 502.591C52.3149 502.591 52.1974 502.591 52.0799 502.591C52.1974 502.474 52.1974 502.474 52.3149 502.356C53.96 500.946 55.4876 499.419 57.2503 498.126C57.6028 497.891 57.9554 497.538 58.3079 497.303C59.3655 496.598 60.4231 495.776 61.5982 495.188C63.3608 494.248 69.9414 492.838 67.7087 498.008C66.2986 500.946 61.1281 501.534 58.5429 501.886Z" fill="#263238"/>
<path d="M52.3139 503.296C52.4314 503.296 52.4314 503.179 52.4314 503.061C52.4314 502.944 52.3139 502.826 52.3139 502.709V502.591C52.1964 502.356 52.1964 502.121 52.0789 502.004C50.5513 498.126 47.731 494.248 44.6758 491.663C42.5606 489.9 38.8003 488.725 36.9201 491.428C35.0399 494.013 37.1551 497.068 39.2703 498.596C41.3855 500.241 43.8532 501.299 46.4384 502.121C48.2011 502.709 49.9637 503.296 51.7264 503.884C51.9614 504.001 52.3139 503.649 52.3139 503.296ZM45.7334 500.241C43.2656 499.301 38.3302 497.421 37.8602 494.366C36.9201 488.843 42.9131 491.663 44.4407 493.073C45.3808 493.896 46.3209 494.953 47.1435 495.893C48.7886 497.891 50.1987 500.124 51.7264 502.239C51.7264 502.356 51.8439 502.356 51.8439 502.474C51.7264 502.474 51.7264 502.356 51.6089 502.356C51.3738 502.239 51.1388 502.121 50.9038 502.004C49.1411 501.534 47.3785 500.946 45.7334 500.241Z" fill="#263238"/>
<path d="M152.55 249.709C152.315 250.649 149.26 265.103 145.97 277.559C143.62 286.607 141.152 294.598 139.859 295.42C138.332 296.36 130.576 299.768 127.991 300.826C127.991 300.826 110.717 386.961 101.669 413.636C93.3253 438.313 69.5883 485.317 69.5883 485.317L20.4691 458.289C20.4691 458.289 47.3789 411.873 51.6093 399.887C58.0723 381.32 82.0444 290.602 82.0444 290.602C82.0444 290.602 81.8094 262.165 91.4452 249.827H152.55V249.709Z" fill="#37474F"/>
<path d="M71.5873 474.153C64.4192 470.158 66.5344 471.215 59.2487 467.22C55.7234 465.34 32.3389 452.649 28.6961 451.356C28.5786 451.356 28.5786 451.474 28.5786 451.474C31.6339 453.824 55.1359 466.045 58.7787 467.925C66.0643 471.685 64.0667 470.51 71.3523 474.271C71.5873 474.388 71.7048 474.271 71.5873 474.153Z" fill="#263238"/>
<path d="M94.9722 282.612C96.3824 282.259 97.7925 282.142 99.2026 281.906C100.378 281.671 101.435 281.554 102.61 281.319C104.726 280.849 106.841 280.144 108.603 278.851C110.601 277.324 111.541 274.973 112.481 272.858C113.069 271.566 113.656 270.273 114.244 268.98C114.479 268.393 114.831 267.688 115.066 267.1C115.419 266.395 115.889 265.573 116.124 264.868C116.124 264.75 116.359 264.868 116.242 264.868C116.007 265.338 115.889 265.925 115.772 266.513C115.536 267.1 115.419 267.805 115.184 268.393C114.831 269.568 114.479 270.626 114.126 271.801C113.421 273.798 112.834 275.913 111.776 277.794C109.661 281.084 106.018 282.494 102.258 282.964C101.2 283.082 100.143 283.199 99.0851 283.199C97.7925 283.317 96.3824 283.434 94.9722 283.199C94.8547 282.964 94.7372 282.612 94.9722 282.612Z" fill="#263238"/>
<path d="M143.856 293.422C138.333 295.302 133.045 298.005 127.992 300.825C127.757 300.943 127.875 301.295 128.11 301.178C133.398 298.945 138.921 296.713 144.091 294.127C144.561 293.892 144.326 293.305 143.856 293.422Z" fill="#263238"/>
<path d="M145.501 256.994C145.501 256.759 145.148 256.759 145.148 256.994C145.148 263.34 144.795 268.863 144.208 274.738C143.973 277.441 141.74 292.6 137.04 291.542C136.217 291.307 135.865 290.602 135.747 289.427C135.63 288.017 136.1 286.254 136.335 284.727C136.805 281.554 137.275 278.381 137.51 275.208C137.98 269.215 138.097 263.222 137.275 257.229C137.275 256.994 136.922 256.994 136.922 257.229C136.922 265.455 136.687 273.798 135.512 282.024C134.925 286.019 132.927 291.895 137.04 292.482C141.27 293.07 143.973 283.199 144.443 280.496C145.971 272.858 146.088 264.633 145.501 256.994Z" fill="#263238"/>
<path d="M137.158 292.012C136.688 293.07 136.335 294.128 136.1 295.185C135.865 296.008 135.513 296.948 135.63 297.77C135.63 297.888 135.865 298.005 135.983 297.888C136.57 297.183 136.805 296.243 137.041 295.42C137.393 294.48 137.746 293.54 138.098 292.482C138.333 291.66 137.393 291.307 137.158 292.012Z" fill="#263238"/>
<path d="M32.6923 451.473C39.8604 437.96 51.1413 416.808 54.6666 410.227C58.0744 403.647 60.4246 396.714 62.6573 389.546C67.1227 375.092 71.3531 360.638 75.2309 346.067C79.2263 331.496 82.8691 316.807 86.3944 302.118C87.2169 298.475 88.2745 294.715 88.9796 291.072C89.6847 287.194 89.4496 283.669 88.9796 279.791C88.5096 276.266 88.392 272.741 88.8621 269.215C89.4496 265.69 90.2722 262.282 91.3298 258.874C91.9173 257.112 92.5049 255.349 93.0924 253.586C93.21 253.351 93.445 253.469 93.445 253.704C91.3298 260.872 89.0971 268.04 89.5671 275.561C89.8022 279.204 90.7422 282.729 90.7422 286.372C90.6247 290.015 89.6846 293.54 88.8621 297.065C85.4543 311.871 81.694 326.56 77.8161 341.249C73.9383 355.938 69.7079 370.509 65.3601 384.963C63.2449 392.013 61.2472 399.181 58.1919 405.88C55.1367 412.578 43.6207 433.259 35.9825 446.538C35.0425 448.183 33.9849 449.828 33.0448 451.591C32.8098 451.708 32.5748 451.591 32.6923 451.473Z" fill="#263238"/>
<path d="M128.344 174.268C143.737 182.729 169.942 198.357 180.636 199.533C188.861 200.473 227.522 174.855 239.156 164.867C242.681 161.812 222.704 139.72 218.591 142.658C207.31 150.766 176.875 169.803 175.583 170.038C170.53 170.978 150.435 165.337 132.456 161.929C112.362 158.169 120.823 170.155 128.344 174.268Z" fill="#774442"/>
<path d="M156.311 191.777L168.532 169.098C168.532 169.098 138.449 159.814 124.818 160.872C111.187 162.047 119.648 169.215 126.581 174.033C133.279 178.851 156.311 191.777 156.311 191.777Z" fill="#C7C7C7"/>
<path d="M156.311 191.777L168.532 169.098C168.532 169.098 138.449 159.814 124.818 160.872C111.187 162.047 119.648 169.215 126.581 174.033C133.279 178.851 156.311 191.777 156.311 191.777Z" fill="#FE9563"/>
<path d="M168.416 169.215L168.299 169.45C168.064 169.332 167.711 169.215 167.476 169.097C167.006 168.98 166.654 168.745 166.184 168.627L164.891 168.157C164.421 168.04 163.951 167.922 163.481 167.805L162.776 167.687C162.541 167.687 162.306 167.57 162.071 167.57C158.428 166.982 154.55 167.335 151.025 168.392C147.499 169.45 144.092 171.213 140.919 173.093C138.451 174.62 135.983 176.265 133.633 177.911C133.516 178.028 133.398 178.146 133.281 178.146C133.163 178.263 133.163 178.263 133.046 178.263C132.928 178.146 132.693 178.028 132.576 178.028C132.693 178.028 132.811 177.911 132.811 177.911C132.928 177.793 133.046 177.793 133.163 177.676C135.631 176.03 138.099 174.268 140.684 172.74C143.857 170.86 147.264 169.097 150.907 168.04C154.433 166.982 158.193 166.747 161.718 167.217C164.773 168.04 167.124 168.745 167.946 168.98C168.181 169.097 168.299 169.097 168.416 169.215ZM160.426 183.081C157.135 184.139 153.845 185.431 150.672 186.724C150.085 186.959 149.38 187.194 148.792 187.429C149.027 187.546 149.145 187.664 149.38 187.781C149.85 187.546 150.437 187.429 150.907 187.194C154.08 185.901 157.37 184.609 160.543 183.434C160.661 183.434 160.778 183.316 160.778 183.316L161.013 182.728C160.896 182.846 160.661 182.964 160.426 183.081ZM133.633 177.911C133.516 177.793 133.398 177.676 133.163 177.676C131.988 176.853 130.695 176.265 129.403 175.795C129.168 175.678 128.815 175.678 128.58 175.56C128.933 175.795 129.403 176.03 129.755 176.265C130.813 176.618 131.871 177.206 132.811 177.793C132.928 177.911 133.046 178.028 133.281 178.028C133.633 178.263 133.868 178.498 134.221 178.733C134.456 178.968 134.808 179.203 135.043 179.438C135.513 179.791 136.101 180.026 136.689 180.378C135.983 179.673 135.278 178.968 134.456 178.381C134.221 178.263 133.868 178.028 133.633 177.911Z" fill="white"/>
<path d="M151.846 188.134C153.256 184.844 155.136 181.671 156.782 178.498C158.544 175.208 160.542 172.152 162.305 168.98C162.305 168.862 162.54 168.98 162.422 169.097C160.777 172.27 159.249 175.56 157.487 178.733C155.724 181.906 153.961 185.196 151.846 188.134C151.846 188.251 151.846 188.251 151.846 188.134Z" fill="#263238"/>
<path opacity="0.1" d="M162.54 180.143L156.312 191.777C156.312 191.777 133.397 178.85 126.464 174.15C122.234 171.212 117.533 167.452 117.533 164.632L162.54 180.143Z" fill="black"/>
<path d="M84.0432 258.64C84.2782 258.875 157.487 257.582 158.192 256.76C159.132 255.585 148.909 187.311 138.568 169.097C133.632 160.402 120.119 155.701 112.246 169.215C93.444 201.413 83.4556 257.935 84.0432 258.64Z" fill="#FE9563"/>
<path d="M158.074 254.175C157.722 254.175 157.369 254.175 157.017 254.175C156.782 254.175 156.547 254.175 156.312 254.175H155.607C155.137 254.175 154.667 254.175 154.197 254.057L152.786 253.822C152.316 253.822 151.846 253.705 151.376 253.587C150.436 253.47 149.496 253.117 148.674 252.882C147.734 252.53 146.911 252.295 146.088 251.825C145.266 251.472 144.443 251.002 143.503 250.532C142.681 250.062 141.858 249.592 141.153 249.122C140.33 248.652 139.625 248.064 138.803 247.477C138.098 246.889 137.275 246.302 136.57 245.714C135.747 245.009 134.925 244.304 134.102 243.599C133.985 243.481 133.867 243.481 133.867 243.364C131.987 241.719 130.107 239.956 128.344 238.193C125.642 235.608 122.939 233.023 120.001 230.673C118.591 229.498 117.063 228.44 115.418 227.617C115.066 227.382 114.713 227.265 114.361 227.147C114.243 227.03 114.008 227.03 113.891 226.912C112.716 226.442 111.423 226.09 110.13 225.855C109.66 225.855 109.19 225.737 108.72 225.737H107.31C106.84 225.737 106.37 225.737 105.9 225.855L104.49 225.972L103.785 226.09L103.08 226.207L101.67 226.442C100.729 226.677 99.9069 226.912 98.9668 227.265C98.6143 227.382 98.1443 227.5 97.7917 227.735C97.5567 227.852 97.4392 227.852 97.3217 227.97C96.1466 228.44 94.9715 229.028 93.9139 229.615C92.3863 230.438 90.7411 231.143 89.096 231.848C89.096 231.73 89.096 231.613 89.2135 231.613C90.7411 231.025 92.2688 230.203 93.7964 229.38C94.854 228.793 95.9116 228.323 96.9692 227.852C97.0867 227.735 97.3217 227.735 97.4392 227.617C97.9092 227.382 98.3793 227.265 98.8493 227.03C99.7894 226.677 100.612 226.442 101.552 226.207L102.962 225.972L103.667 225.855L104.372 225.737L105.782 225.62C106.252 225.62 106.723 225.62 107.193 225.502H108.603C109.073 225.502 109.543 225.502 110.013 225.62C111.423 225.737 112.716 226.207 114.008 226.677C114.126 226.795 114.361 226.795 114.478 226.912C114.831 227.03 115.066 227.147 115.418 227.382C117.063 228.323 118.591 229.38 120.119 230.555C123.056 232.905 125.759 235.608 128.344 238.193C130.225 240.074 132.105 241.836 133.985 243.599C134.102 243.716 134.22 243.834 134.22 243.834C134.925 244.539 135.747 245.126 136.57 245.832C137.98 247.007 139.508 248.182 141.035 249.122C141.858 249.592 142.681 250.062 143.386 250.532C144.208 250.884 145.031 251.354 145.971 251.707C146.793 252.06 147.734 252.412 148.556 252.765C149.496 253 150.319 253.352 151.259 253.47C151.729 253.587 152.199 253.705 152.669 253.705L154.079 253.822C154.549 253.822 155.019 253.822 155.489 253.94H156.194C156.429 253.94 156.664 253.94 156.899 253.94C157.252 253.94 157.604 253.94 157.957 253.822C158.074 254.057 158.074 254.175 158.074 254.175ZM155.959 237.958C155.842 237.958 155.842 238.076 155.724 238.076C152.669 239.721 149.496 241.131 146.206 242.189C142.916 243.129 139.39 243.599 135.983 243.716C135.395 243.716 134.807 243.716 134.22 243.716C134.102 243.716 133.985 243.716 133.867 243.716C131.165 243.599 128.344 243.129 125.759 242.424C124.114 241.954 122.469 241.366 120.824 240.779C119.179 240.074 117.651 239.368 116.123 238.546C113.303 237.136 110.6 235.373 107.898 233.728C107.78 233.61 107.663 233.61 107.428 233.493C107.31 233.375 107.193 233.375 107.193 233.258C104.255 231.378 101.317 229.615 98.1443 228.088H98.0268C97.9092 227.97 97.7917 227.97 97.6742 227.852C95.559 226.912 93.2088 226.207 90.9762 225.855C90.9762 225.972 90.8586 226.09 90.8586 226.207C91.6812 226.325 92.3863 226.442 93.2088 226.677C94.619 227.03 95.9116 227.5 97.2042 227.97C97.3217 227.97 97.4392 228.088 97.5567 228.088C97.6742 228.205 97.9092 228.205 98.0268 228.323C101.2 229.733 104.137 231.495 107.075 233.258C107.193 233.258 107.193 233.375 107.31 233.375C107.428 233.493 107.545 233.493 107.78 233.61C110.483 235.256 113.303 236.901 116.123 238.428C117.651 239.251 119.296 239.956 120.824 240.661C122.469 241.366 124.114 241.954 125.759 242.306C128.462 243.129 131.4 243.599 134.22 243.716C134.337 243.716 134.455 243.716 134.572 243.716C135.042 243.716 135.512 243.716 136.1 243.716C139.625 243.716 143.033 243.246 146.441 242.306C149.849 241.366 153.021 239.956 156.077 238.311C155.959 238.311 155.959 238.076 155.959 237.958ZM151.494 213.634C150.671 213.281 149.849 212.929 149.026 212.694C148.086 212.459 147.263 212.106 146.323 211.989C145.853 211.871 145.383 211.754 144.913 211.754L143.503 211.636C143.033 211.519 142.563 211.636 142.093 211.519H141.388C141.153 211.519 140.918 211.519 140.683 211.519C136.923 211.636 133.162 212.576 129.872 214.339C126.464 215.984 123.526 218.334 120.706 220.802C118.474 222.8 116.358 224.915 114.243 227.03C114.126 227.147 114.008 227.265 113.891 227.382L112.598 228.675C110.953 230.32 109.308 231.965 107.428 233.61C107.31 233.61 107.31 233.728 107.193 233.728C106.252 234.551 105.195 235.373 104.137 236.078C102.61 237.136 100.965 238.076 99.3194 238.663C97.5567 239.368 95.7941 239.603 93.9139 239.603C92.0337 239.603 90.2711 239.368 88.3909 238.781C88.1559 238.663 87.9209 238.663 87.6859 238.546C87.6859 238.663 87.6859 238.781 87.5684 238.898C87.8034 239.016 88.0384 239.016 88.2734 239.133C90.1536 239.604 92.0337 239.956 93.9139 239.956H94.619H95.324H96.0291L96.7341 239.839L97.4392 239.721C97.6742 239.721 97.9092 239.604 98.1443 239.486L98.8493 239.251C99.0843 239.133 99.3194 239.133 99.5544 239.016C101.317 238.311 102.962 237.371 104.49 236.313C105.547 235.491 106.605 234.668 107.663 233.846C107.78 233.728 107.78 233.728 107.898 233.728C108.25 233.493 108.603 233.14 108.838 232.788C110.248 231.495 111.54 230.203 112.833 228.91C113.303 228.44 113.773 227.97 114.243 227.5C114.361 227.382 114.478 227.265 114.596 227.147C116.711 225.032 118.709 223.035 120.824 221.037C123.644 218.569 126.582 216.219 129.872 214.574C133.162 212.929 136.805 211.871 140.565 211.754C140.8 211.754 141.035 211.754 141.27 211.754H141.976C142.446 211.754 142.916 211.754 143.386 211.871L144.796 211.989C145.266 211.989 145.736 212.106 146.206 212.224C147.146 212.341 147.969 212.694 148.909 212.929C149.731 213.281 150.671 213.516 151.494 213.869C151.494 213.751 151.494 213.634 151.494 213.634ZM140.448 172.858C137.98 174.385 135.63 176.031 133.162 177.558C133.045 177.676 132.927 177.676 132.81 177.793C132.34 178.146 131.752 178.498 131.282 178.851C128.227 180.966 125.054 183.081 121.764 184.609C121.176 184.844 120.589 185.079 119.884 185.314C119.766 185.314 119.649 185.431 119.531 185.431C118.591 185.784 117.533 186.019 116.476 186.254C114.713 186.606 112.833 186.489 110.953 186.136C109.19 185.784 107.31 185.196 105.665 184.374C105.312 184.256 105.077 184.021 104.725 183.904C104.607 184.021 104.607 184.139 104.607 184.256C104.842 184.374 105.195 184.609 105.43 184.726C107.075 185.549 108.955 186.136 110.718 186.606L111.54 186.841L112.245 186.959L112.951 187.076H113.656H114.361C114.596 187.076 114.831 187.077 115.066 186.959L115.771 186.841C116.006 186.841 116.241 186.724 116.476 186.724C117.651 186.489 118.826 186.136 120.001 185.784C120.119 185.784 120.236 185.666 120.354 185.666C120.824 185.431 121.411 185.196 121.881 184.961C123.644 184.139 125.172 183.199 126.817 182.259C128.462 181.319 129.989 180.261 131.517 179.203C132.105 178.851 132.575 178.498 133.162 178.028C133.28 177.911 133.397 177.911 133.515 177.793C135.865 176.266 138.098 174.62 140.448 173.21C140.565 173.093 140.448 172.975 140.448 172.858ZM145.736 188.604C145.031 188.839 144.326 189.074 143.738 189.309C143.621 189.309 143.503 189.309 143.503 189.427C142.681 189.662 141.858 189.897 140.918 190.132C137.51 190.837 134.102 190.954 130.695 190.132C127.287 189.427 123.996 188.252 121.176 186.371C120.941 186.254 120.706 186.136 120.589 185.901C120.354 185.784 120.236 185.666 120.119 185.549C117.651 183.786 115.418 181.789 112.716 180.378C111.188 179.556 109.543 178.851 107.898 178.263C107.78 178.263 107.78 178.263 107.78 178.263C107.78 178.263 107.78 178.263 107.78 178.381C107.78 178.381 107.78 178.381 107.78 178.498C107.898 178.498 107.898 178.498 108.015 178.616C108.838 178.968 109.66 179.203 110.483 179.556C111.305 179.908 112.01 180.261 112.833 180.731C115.418 182.141 117.533 184.139 120.001 185.901C120.119 186.019 120.354 186.136 120.471 186.254C120.706 186.489 121.059 186.606 121.294 186.841C124.232 188.839 127.522 190.014 130.93 190.719C134.337 191.659 137.98 191.542 141.388 190.719C142.328 190.484 143.268 190.249 144.091 190.014C144.208 190.014 144.326 190.014 144.326 189.897C144.913 189.662 145.618 189.544 146.206 189.309C145.736 188.839 145.736 188.722 145.736 188.604ZM147.146 194.127C146.441 193.187 145.853 192.364 145.266 191.424C144.796 190.837 144.443 190.249 143.973 189.662C143.856 189.544 143.738 189.427 143.621 189.192C141.976 186.841 140.33 184.609 138.45 182.376C137.158 180.966 135.865 179.556 134.455 178.381C134.22 178.146 133.985 177.911 133.632 177.793C133.515 177.676 133.397 177.558 133.162 177.558C131.987 176.736 130.695 176.148 129.402 175.678C128.932 175.561 128.462 175.443 127.992 175.325L126.582 175.09C126.112 174.973 125.642 174.973 125.172 174.855L123.761 174.738H123.056H122.351H120.941C120.001 174.855 119.061 174.855 118.121 175.09C116.241 175.325 114.478 175.913 112.598 176.383C110.953 176.853 109.19 177.441 107.428 177.793C107.428 177.911 107.428 177.911 107.31 178.028C107.31 178.028 107.31 178.028 107.31 178.146C107.428 178.146 107.428 178.146 107.545 178.146C109.308 177.793 110.953 177.323 112.716 176.853C114.478 176.383 116.358 175.796 118.121 175.561C119.061 175.443 120.001 175.325 120.941 175.325H123.056H123.761L125.172 175.443C125.642 175.443 126.112 175.561 126.582 175.678L127.992 175.913C128.462 176.031 128.932 176.148 129.284 176.266C130.577 176.618 131.635 177.206 132.81 177.911C132.927 178.028 133.045 178.146 133.28 178.146C133.632 178.381 133.867 178.616 134.22 178.851C135.63 180.026 137.04 181.319 138.215 182.729C140.095 184.844 141.741 187.077 143.386 189.309C143.503 189.427 143.621 189.544 143.738 189.779C144.208 190.367 144.678 191.072 145.031 191.659C145.853 192.717 146.558 193.775 147.381 194.832C147.263 194.597 147.146 194.362 147.146 194.127Z" fill="white"/>
<path d="M133.634 174.856C130.343 175.208 123.175 169.685 120.12 164.632C119.885 164.28 120.237 160.637 120.473 156.054C120.59 153.351 120.708 150.296 120.59 147.476L138.217 150.883C138.217 150.883 136.806 156.759 137.041 161.694C137.041 162.047 137.159 162.517 137.159 162.87C137.159 162.87 137.159 162.987 137.159 163.105C137.746 165.22 138.804 174.268 133.634 174.856Z" fill="#774442"/>
<path d="M120.59 155.349C124.35 160.402 129.99 165.337 137.511 164.162C137.394 163.692 137.394 163.34 137.276 163.105C137.276 162.987 137.276 162.987 137.276 162.87C137.159 162.517 137.159 162.164 137.159 161.694C136.924 156.877 138.334 150.883 138.334 150.883L120.707 147.476C120.825 150.061 120.707 152.764 120.59 155.349Z" fill="#263238"/>
<path d="M116.009 127.616C114.363 133.962 118.594 151.706 123.177 155.466C129.875 160.989 140.333 160.989 144.916 153.116C149.264 145.478 143.506 122.446 138.453 119.038C130.815 113.985 118.359 118.333 116.009 127.616Z" fill="#774442"/>
<path d="M133.517 136.782L133.399 136.899C133.752 138.074 133.987 139.485 133.047 140.19V140.307C134.339 139.602 134.104 137.722 133.517 136.782Z" fill="#263238"/>
<path d="M132.107 135.724C130.109 136.077 131.049 139.955 132.812 139.602C134.692 139.367 133.752 135.489 132.107 135.724Z" fill="#263238"/>
<path d="M140.57 134.785C140.57 134.785 140.687 134.902 140.57 134.785C140.922 136.077 141.392 137.37 142.567 137.605V137.722C141.157 137.84 140.57 135.96 140.57 134.785Z" fill="#263238"/>
<path d="M141.274 133.375C143.154 132.787 144.212 136.547 142.449 137.135C140.804 137.605 139.746 133.845 141.274 133.375Z" fill="#263238"/>
<path d="M130.227 134.315C130.697 134.08 131.167 133.727 131.637 133.492C132.108 133.139 132.578 132.904 132.813 132.317C132.93 131.964 132.695 131.494 132.46 131.377C131.755 131.024 131.05 131.259 130.345 131.612C129.64 132.082 129.17 132.552 128.935 133.257C128.7 134.08 129.522 134.667 130.227 134.315Z" fill="#263238"/>
<path d="M142.331 131.494C141.744 131.494 141.274 131.494 140.686 131.494C140.098 131.494 139.511 131.494 139.041 131.142C138.806 130.907 138.688 130.437 138.806 130.084C139.158 129.379 139.981 129.262 140.686 129.262C141.509 129.262 142.096 129.497 142.801 129.967C143.506 130.437 143.036 131.494 142.331 131.494Z" fill="#263238"/>
<path d="M135.046 148.063C135.398 148.298 135.751 148.651 136.221 148.533C136.691 148.416 137.044 148.181 137.396 147.946H137.514C137.279 148.533 136.691 148.886 136.103 149.003C135.516 149.003 135.163 148.651 135.046 148.063C134.928 148.063 134.928 148.063 135.046 148.063Z" fill="#263238"/>
<path d="M135.399 144.186C136.339 145.126 137.396 145.361 138.571 145.361C139.041 145.361 139.629 145.243 140.099 145.126C140.217 145.126 140.334 145.126 140.334 145.008C140.452 145.008 140.452 144.891 140.569 144.891C140.687 144.891 140.804 144.656 140.804 144.538V144.421V144.303C140.569 143.363 140.217 141.953 140.217 141.953C140.569 142.071 142.449 142.423 142.332 141.953C141.157 138.075 139.864 133.61 137.866 129.967C137.749 129.849 137.631 129.967 137.631 130.085C138.571 133.845 140.217 137.488 141.274 141.365C140.687 141.248 139.747 141.13 139.159 141.248C139.041 141.365 139.982 143.951 140.099 144.303C138.571 144.891 137.279 144.656 135.634 143.951C135.399 144.068 135.281 144.186 135.399 144.186Z" fill="#263238"/>
<path d="M139.393 144.773C139.393 144.773 138.805 146.066 137.865 146.771C137.513 147.006 137.043 147.123 136.573 147.123C135.515 147.123 135.28 146.183 135.28 145.478C135.28 144.773 135.398 144.186 135.398 144.186C135.398 144.186 137.16 145.126 139.393 144.773Z" fill="#263238"/>
<path d="M137.865 146.771C137.513 147.006 137.043 147.123 136.573 147.123C135.515 147.123 135.28 146.183 135.28 145.478C136.338 145.243 137.513 145.713 137.865 146.771Z" fill="#FF99BA"/>
<path d="M117.066 142.775C116.361 141.248 109.545 124.561 109.78 122.563C109.898 120.801 111.895 121.153 111.895 121.036C111.895 120.918 111.778 119.391 112.6 118.568C113.423 117.863 114.716 118.333 114.716 118.333C114.716 118.333 114.716 116.688 115.773 115.983C116.713 115.395 117.888 116.1 117.888 116.1C117.888 116.1 118.006 114.455 119.298 113.868C120.591 113.28 121.414 114.338 121.414 114.338C121.414 114.338 121.649 112.693 122.706 112.223C123.764 111.753 124.821 112.81 124.821 112.81C124.821 112.81 125.174 111.282 126.467 111.047C127.759 110.812 128.464 112.223 128.464 112.223C128.464 112.223 129.052 110.695 130.227 110.46C131.402 110.225 132.107 111.753 132.107 111.753C132.107 111.753 132.46 110.342 133.635 110.225C134.81 110.107 135.28 111.753 135.28 111.753C135.28 111.753 135.397 110.46 136.807 110.695C139.04 111.047 141.625 121.858 142.8 126.206C142.8 126.206 141.39 123.033 140.568 123.151C139.628 123.268 139.158 124.679 137.63 125.384C135.397 126.324 130.932 124.091 127.759 125.266C124.704 126.441 122.824 130.084 122.471 135.255C122.001 141.013 118.711 146.418 117.066 142.775Z" fill="#263238"/>
<path d="M120.473 142.07C120.473 142.07 116.007 136.547 113.54 138.192C111.072 139.837 114.597 147.946 117.77 148.886C120.943 149.826 121.883 146.888 121.883 146.888L120.473 142.07Z" fill="#774442"/>
<path d="M114.597 140.542C116.829 141.364 118.122 143.245 119.062 145.242C118.357 144.537 117.417 144.067 116.477 144.89C116.477 144.89 116.477 145.007 116.594 145.007C117.417 144.772 118.122 144.89 118.71 145.477C119.18 145.947 119.532 146.535 119.885 147.122C120.002 147.357 120.355 147.24 120.237 147.005C120.002 144.302 117.652 140.542 114.597 140.542Z" fill="#263238"/>
<path d="M138.451 165.573C138.333 165.455 138.451 165.455 138.451 165.573C139.156 168.98 140.683 176.853 135.278 177.206C133.045 177.324 130.93 176.383 129.05 175.208C127.17 174.151 125.407 172.741 123.762 171.331C121.999 169.685 120.119 168.04 118.591 166.043C118.474 165.925 118.356 166.043 118.474 166.16C120.119 168.04 121.529 170.038 123.292 171.801C125.055 173.446 126.935 174.973 129.05 176.148C131.048 177.206 133.398 178.264 135.63 177.911C137.863 177.676 139.156 176.031 139.508 173.916C139.861 171.213 139.273 168.158 138.451 165.573Z" fill="#263238"/>
<path d="M305.303 139.021L140.56 154.386L152.815 285.783L317.558 270.417L305.303 139.021Z" fill="#263238"/>
<path d="M209.781 239.486L205.433 192.835L255.492 211.636L209.781 239.486Z" fill="#FE9563"/>
<path d="M158.208 159.383L148.497 160.289L149.14 167.192L158.852 166.286L158.208 159.383Z" fill="#FE9563"/>
<path d="M159.508 173.368L149.796 174.273L150.44 181.177L160.152 180.271L159.508 173.368Z" fill="#FE9563"/>
<path d="M160.796 187.235L151.085 188.14L151.729 195.044L161.44 194.138L160.796 187.235Z" fill="#FE9563"/>
<path d="M162.085 201.101L152.374 202.007L153.017 208.91L162.729 208.004L162.085 201.101Z" fill="#FE9563"/>
<path d="M163.385 215.086L153.673 215.992L154.317 222.895L164.029 221.989L163.385 215.086Z" fill="#FE9563"/>
<path d="M164.674 228.953L154.962 229.859L155.606 236.762L165.317 235.856L164.674 228.953Z" fill="#FE9563"/>
<path d="M165.962 242.82L156.251 243.726L156.895 250.629L166.606 249.723L165.962 242.82Z" fill="#FE9563"/>
<path d="M167.379 256.793L157.667 257.699L158.311 264.602L168.023 263.696L167.379 256.793Z" fill="white"/>
<path d="M168.667 270.661L158.956 271.566L159.6 278.47L169.311 277.564L168.667 270.661Z" fill="white"/>
<path d="M298.52 146.333L288.808 147.239L289.452 154.143L299.164 153.237L298.52 146.333Z" fill="#FE9563"/>
<path d="M299.808 160.201L290.097 161.107L290.741 168.01L300.452 167.104L299.808 160.201Z" fill="#FE9563"/>
<path d="M301.107 174.185L291.396 175.091L292.039 181.994L301.751 181.088L301.107 174.185Z" fill="#FE9563"/>
<path d="M302.396 188.052L292.684 188.958L293.328 195.861L303.04 194.955L302.396 188.052Z" fill="#FE9563"/>
<path d="M303.685 201.919L293.974 202.825L294.618 209.728L304.329 208.822L303.685 201.919Z" fill="#FE9563"/>
<path d="M304.985 215.903L295.274 216.809L295.918 223.712L305.629 222.807L304.985 215.903Z" fill="#FE9563"/>
<path d="M306.273 229.77L296.561 230.676L297.205 237.579L306.917 236.674L306.273 229.77Z" fill="#FE9563"/>
<path d="M307.561 243.638L297.85 244.543L298.494 251.447L308.205 250.541L307.561 243.638Z" fill="#FE9563"/>
<path d="M308.861 257.621L299.15 258.527L299.794 265.43L309.505 264.525L308.861 257.621Z" fill="#FE9563"/>
<path d="M125.994 183.081C129.166 192.247 141.623 229.615 143.385 231.378C150.788 238.193 169.59 250.297 171.823 252.765C174.995 256.172 160.894 277.089 155.959 276.502C153.961 276.267 128.814 259.815 121.058 251.707C114.83 245.244 111.54 203.528 111.305 184.139C111.305 167.452 119.766 165.22 125.994 183.081Z" fill="#774442"/>
<path d="M111.893 215.514L137.51 213.751C137.51 213.751 129.402 183.316 121.177 172.387C112.951 161.459 111.306 172.505 110.953 180.848C110.601 189.191 111.893 215.514 111.893 215.514Z" fill="#FE9563"/>
<path d="M137.04 212.106C134.807 212.459 132.574 213.281 130.577 214.339L129.637 214.456C129.754 214.339 129.872 214.339 129.872 214.339C132.104 213.164 134.455 212.341 136.922 211.989C136.922 211.871 137.04 211.989 137.04 212.106ZM126.581 182.024C125.054 182.964 123.409 183.904 121.764 184.609C121.176 184.844 120.588 185.079 119.883 185.314C119.766 185.314 119.648 185.431 119.531 185.431C118.591 185.784 117.533 186.019 116.476 186.254C114.713 186.606 112.833 186.489 110.953 186.136C110.953 186.136 110.953 186.136 110.835 186.136V186.606L111.54 186.841L112.245 186.959L112.95 187.077H113.655H114.36C114.595 187.077 114.83 187.077 115.065 186.959L115.771 186.841C116.006 186.841 116.241 186.724 116.476 186.724C117.651 186.489 118.826 186.136 120.001 185.784C120.118 185.784 120.236 185.666 120.353 185.666C120.823 185.431 121.411 185.196 121.881 184.961C123.526 184.256 125.171 183.316 126.699 182.376C126.699 182.376 126.581 182.141 126.581 182.024ZM129.754 189.779C126.699 189.074 123.644 187.899 121.058 186.136C120.823 186.019 120.588 185.901 120.471 185.666C120.236 185.549 120.118 185.431 120.001 185.314C117.533 183.551 115.3 181.554 112.598 180.143C112.128 179.908 111.658 179.673 111.07 179.438C111.07 179.556 111.07 179.556 111.07 179.673C111.54 179.908 112.01 180.143 112.48 180.378C115.065 181.789 117.181 183.786 119.648 185.549C119.766 185.666 120.001 185.784 120.118 185.901C120.353 186.136 120.706 186.254 120.941 186.489C123.644 188.369 126.816 189.544 129.989 190.249C129.872 190.132 129.754 189.897 129.754 189.779ZM122.821 174.855H122.469H121.058C120.118 174.973 119.178 174.973 118.238 175.208C116.358 175.443 114.595 176.031 112.715 176.501C112.245 176.618 111.658 176.853 111.188 176.971C111.188 177.088 111.188 177.206 111.188 177.206C111.775 177.088 112.245 176.853 112.833 176.736C114.595 176.266 116.476 175.678 118.238 175.443C119.178 175.326 120.118 175.208 121.058 175.208H123.056C122.939 175.09 122.939 174.973 122.821 174.855Z" fill="white"/>
<path d="M112.48 209.756C116.005 209.169 119.648 209.051 123.291 208.816C126.934 208.581 130.694 208.581 134.337 208.464C134.454 208.464 134.454 208.581 134.337 208.699C130.694 209.051 127.169 209.521 123.526 209.639C119.883 209.874 116.24 210.109 112.48 209.756C112.48 209.874 112.48 209.756 112.48 209.756Z" fill="#263238"/>
<path d="M109.895 193.892C110.13 195.42 110.365 196.947 110.718 198.475C110.718 195.302 110.718 192.012 110.835 188.839C110.835 188.722 110.953 188.722 110.953 188.839C111.305 193.305 111.54 197.77 111.658 202.235C111.775 206.583 112.128 210.931 111.893 215.161C112.245 215.161 112.481 215.161 112.833 215.279C112.951 215.279 112.951 215.514 112.833 215.514C112.481 215.514 112.01 215.632 111.658 215.632C111.54 215.632 111.423 215.514 111.423 215.397C110.953 210.931 110.835 206.466 110.835 202C110.835 201.295 110.835 200.59 110.835 199.768C110.365 197.77 110.013 195.772 109.778 193.775C109.66 193.775 109.895 193.657 109.895 193.892Z" fill="#263238"/>
<path d="M136.57 213.869L137.51 213.752L137.392 213.869C136.687 211.989 135.982 210.109 135.395 208.111C134.807 206.231 134.102 204.234 133.514 202.353C132.927 200.473 132.339 198.476 131.869 196.478C131.399 194.48 130.812 192.6 130.459 190.602C131.164 192.483 131.869 194.363 132.574 196.36C133.279 198.241 133.867 200.238 134.454 202.118C135.042 203.999 135.63 205.996 136.1 207.994C136.57 209.992 137.157 211.872 137.627 213.869V213.987H137.51L136.57 213.869Z" fill="#263238"/>
<path d="M132.692 192.717C132.927 193.657 133.044 194.597 133.162 195.655C133.162 196.595 133.162 197.652 133.044 198.593C132.809 197.652 132.692 196.712 132.574 195.655C132.457 194.715 132.457 193.775 132.692 192.717Z" fill="#263238"/>
<path d="M184.163 264.398C182.988 262.871 183.81 262.283 187.101 263.106C190.391 264.046 202.612 270.509 204.61 266.043C206.49 261.578 189.098 252.765 183.458 251.59C177.817 250.415 168.417 250.65 168.417 250.65C171.472 253 178.287 259.58 184.163 264.398Z" fill="#774442"/>
<path d="M153.257 274.857C162.07 282.73 172.646 289.898 184.985 291.073C187.453 291.308 188.863 290.251 188.863 290.251C194.386 290.956 196.266 288.488 196.266 288.488C201.554 287.548 203.199 284.845 203.199 284.845C203.199 284.845 207.664 284.845 207.899 281.673C208.134 278.617 200.966 276.15 195.913 272.977C184.28 265.691 171.471 253 168.298 250.532L153.257 274.857Z" fill="#774442"/>
<path d="M180.05 274.974C183.575 277.09 186.865 279.205 190.625 280.85C194.738 282.613 198.969 283.67 203.199 284.728C203.317 284.728 203.317 284.963 203.199 284.963C195.091 284.14 186.278 280.262 179.932 275.092C179.815 274.974 179.815 274.857 180.05 274.974Z" fill="#263238"/>
<path d="M174.644 281.32C178.17 283.2 184.28 286.373 196.384 288.37V288.488C188.393 288.253 181.225 285.785 174.527 281.555C174.292 281.32 174.409 281.202 174.644 281.32Z" fill="#263238"/>
<path d="M171.706 284.846C177.699 287.783 181.929 288.841 188.862 290.251V290.369C180.872 289.546 178.051 288.371 171.588 285.081C171.353 284.963 171.471 284.728 171.706 284.846Z" fill="#263238"/>
<path d="M215.42 141.953C219.885 139.837 225.291 134.55 228.934 134.079C232.224 133.727 233.399 136.43 233.399 136.43C233.399 136.43 235.162 132.787 238.569 132.904C240.332 133.022 241.742 135.842 241.742 135.842C241.742 135.842 243.27 133.022 246.208 133.257C248.558 133.492 249.615 136.312 249.615 136.312C249.615 136.312 252.318 134.315 254.668 135.255C259.369 137.37 259.486 157.699 251.966 160.872C248.44 162.399 248.675 157.346 248.675 157.346C248.675 157.346 246.56 164.397 242.33 164.515C238.099 164.632 238.804 158.169 238.804 158.169C238.804 158.169 236.689 164.985 232.341 164.75C227.758 164.397 229.639 158.052 229.639 158.052C229.639 158.052 226.583 162.634 223.293 161.577C217.888 159.932 224.703 151.353 223.528 146.771L216.125 144.303L215.42 141.953Z" fill="#774442"/>
<path d="M221.766 137.723C217.418 139.368 212.013 133.963 207.665 134.903C201.672 136.195 207.547 142.893 216.243 144.303H223.176L221.766 137.723Z" fill="#774442"/>
<path d="M249.734 136.665C249.734 136.548 249.851 136.548 249.734 136.665C251.496 143.363 251.261 151.236 248.676 157.699C248.558 157.934 248.206 157.817 248.206 157.582C249.616 150.414 250.321 143.951 249.734 136.665Z" fill="#263238"/>
<path d="M241.624 135.607C241.624 135.49 241.742 135.49 241.742 135.607C243.387 142.541 242.917 151.354 239.039 158.404C238.922 158.639 238.569 158.757 238.687 158.404C240.919 153.586 242.212 142.188 241.624 135.607Z" fill="#263238"/>
<path d="M229.287 158.522C232.694 151.589 233.635 144.303 233.4 136.547C233.4 136.43 233.517 136.43 233.517 136.547C234.575 140.308 234.222 145.125 233.635 149.003C233.047 152.646 231.754 155.819 229.522 158.639C229.404 158.757 229.169 158.639 229.287 158.522Z" fill="#263238"/>
</svg>
