<svg width="36" height="32" viewBox="0 0 36 32" fill="none" xmlns="http://www.w3.org/2000/svg">
<path d="M18 0.415039C8.16183 0.415039 0.188354 6.89262 0.188354 14.887C0.188354 18.338 1.67729 21.4967 4.15422 23.9806C3.28451 27.4873 0.376211 30.6113 0.341423 30.646C0.188354 30.8061 0.146609 31.0426 0.237058 31.2514C0.327508 31.4601 0.522322 31.5853 0.744967 31.5853C5.35789 31.5853 8.81585 29.3728 10.5274 28.0091C12.8026 28.8649 15.3282 29.3589 18 29.3589C27.8381 29.3589 35.8115 22.8813 35.8115 14.887C35.8115 6.89262 27.8381 0.415039 18 0.415039ZM20.2264 18.7832C20.2264 19.0894 19.9759 19.3399 19.6698 19.3399H9.65076C9.34463 19.3399 9.09415 19.0894 9.09415 18.7832V17.67C9.09415 17.3639 9.34463 17.1134 9.65076 17.1134H19.6698C19.9759 17.1134 20.2264 17.3639 20.2264 17.67V18.7832ZM26.9057 12.1039C26.9057 12.41 26.6553 12.6605 26.3491 12.6605H9.65076C9.34463 12.6605 9.09415 12.41 9.09415 12.1039V10.9907C9.09415 10.6845 9.34463 10.4341 9.65076 10.4341H26.3491C26.6553 10.4341 26.9057 10.6845 26.9057 10.9907V12.1039Z" fill="#FAFBFC"/>
</svg>
