<svg width="525" height="522" viewBox="0 0 525 522" fill="none" xmlns="http://www.w3.org/2000/svg">
<path d="M463.874 293.022L480.139 293.394L488.458 293.519C491.19 293.519 494.045 293.519 496.777 293.643H497.274V293.146L497.398 279.24V278.619H496.777L480.388 278.743C474.925 278.743 469.461 278.867 463.998 278.992H463.626V279.364C463.626 281.723 463.75 284.082 463.75 286.441L463.874 293.022ZM463.874 293.022L463.998 285.945C463.998 283.586 464.122 281.351 464.122 279.116L463.75 279.488C469.213 279.612 474.676 279.737 480.139 279.737L496.529 279.861L495.908 279.24L496.156 293.022L496.653 292.525C493.921 292.525 491.19 292.525 488.582 292.649L480.388 292.774L463.874 293.022Z" fill="#EBEBEB"/>
<path d="M482.243 310.653L498.509 311.025L506.827 311.15C509.559 311.15 512.415 311.15 515.146 311.274H515.643V310.777L515.767 296.747V296.126H515.146L498.757 296.25C493.294 296.25 487.831 296.374 482.367 296.498H481.995V296.871C481.995 299.23 482.119 301.589 482.119 303.948L482.243 310.653ZM482.243 310.653L482.367 303.576C482.367 301.217 482.492 298.982 482.492 296.747L482.119 297.119C487.582 297.243 493.045 297.368 498.509 297.368L514.898 297.492L514.525 296.747V310.653L515.022 310.156C512.29 310.156 509.559 310.156 506.952 310.28L498.757 310.405L482.243 310.653Z" fill="#EBEBEB"/>
<path d="M121.186 443.754L137.451 444.127L145.77 444.251C148.501 444.251 151.357 444.251 154.088 444.375H154.585V443.879L154.709 429.972V429.352H154.088L137.699 429.476C132.236 429.476 126.773 429.6 121.31 429.724H120.937V430.097C120.937 432.456 121.061 434.815 121.061 437.174L121.186 443.754ZM121.186 443.754L121.31 436.677C121.31 434.318 121.434 432.083 121.434 429.848L121.061 430.221C126.524 430.345 131.988 430.469 137.451 430.469L153.84 430.593L153.219 429.972L153.343 443.879L153.84 443.382C151.109 443.382 148.377 443.382 145.77 443.506L137.575 443.63L121.186 443.754Z" fill="#EBEBEB"/>
<path d="M139.559 461.261L155.824 461.634L164.143 461.758C166.875 461.758 169.73 461.758 172.462 461.882H172.959V461.385L173.083 447.479V446.858H172.462L156.073 446.983C150.609 446.983 145.146 447.107 139.683 447.231H139.311V447.603C139.311 449.962 139.435 452.322 139.435 454.681L139.559 461.261ZM139.559 461.261L139.683 454.184C139.683 451.825 139.807 449.59 139.807 447.355L139.435 447.728C144.898 447.852 150.361 447.976 155.824 447.976L172.214 448.1L171.593 447.479L171.717 461.385L172.214 460.889C169.482 460.889 166.75 460.889 164.143 461.013L155.948 461.137L139.559 461.261Z" fill="#EBEBEB"/>
<path d="M9.30869 310.653L25.5739 311.025L33.8927 311.149C36.6243 311.149 39.48 311.149 42.2116 311.274H42.7082V310.777L42.8324 296.871V296.25H42.2116L25.8222 296.374C20.3591 296.374 14.896 296.498 9.43286 296.622H9.06035V296.995C9.06035 299.354 9.18452 301.713 9.18452 304.072L9.30869 310.653ZM9.30869 310.653L9.43286 303.576C9.43286 301.216 9.55699 298.982 9.55699 296.747L9.18452 297.119C14.6476 297.243 20.1108 297.367 25.5739 297.367L41.9632 297.492L41.3424 296.871L41.4666 310.777L41.9632 310.28C39.2317 310.28 36.5001 310.28 33.8927 310.404L25.698 310.529L9.30869 310.653Z" fill="#EBEBEB"/>
<path d="M27.6904 14.5273L43.9556 14.8998L52.2745 15.0239C55.006 15.0239 57.8617 15.0239 60.5933 15.1481H61.0899V14.6515L61.2141 0.745321V0.124512H60.5933L44.204 0.248674C38.7408 0.248674 33.2777 0.372836 27.8146 0.496997H27.4421V0.869483C27.4421 3.22856 27.5662 5.58764 27.5662 7.94671L27.6904 14.5273ZM27.6904 14.5273L27.9387 7.45006C27.9387 5.09099 28.0629 2.85607 28.0629 0.621159L27.6904 0.993645C33.1535 1.11781 38.6167 1.24197 44.0798 1.24197H60.5933L59.9725 0.621159L60.0967 14.5273L60.5933 14.0306C57.8617 14.0306 55.1302 14.0306 52.5228 14.1548L44.3281 14.279L27.6904 14.5273Z" fill="#EBEBEB"/>
<path d="M9.30869 32.0336L25.5739 32.4061L33.8927 32.5303C36.6243 32.5303 39.48 32.5303 42.2116 32.6544H42.7082V32.1578L42.8324 18.2517V17.6309H42.2116L25.8222 17.755C20.3591 17.755 14.896 17.8792 9.43286 18.0033H9.06035V18.3758C9.06035 20.7349 9.18452 23.094 9.18452 25.4531L9.30869 32.0336ZM9.30869 32.0336L9.43286 24.9564C9.43286 22.5973 9.55699 20.3624 9.55699 18.1275L9.18452 18.5C14.6476 18.6242 20.1108 18.7483 25.5739 18.7483L41.9632 18.8725L41.3424 18.2517L41.4666 32.1578L41.9632 31.6612C39.2317 31.6612 36.5001 31.6612 33.8927 31.7853L25.698 31.9095L9.30869 32.0336Z" fill="#EBEBEB"/>
<path d="M482.243 14.5269L498.509 14.8994L506.827 15.0236C509.559 15.0236 512.415 15.0236 515.146 15.1477H515.643V14.6511L515.767 0.620809V0H515.146L498.757 0.124162C493.294 0.124162 487.831 0.248324 482.367 0.372486H481.995V0.744971C481.995 3.10405 482.119 5.46312 482.119 7.8222L482.243 14.5269ZM482.243 14.5269L482.367 7.44971C482.367 5.09064 482.492 2.85572 482.492 0.620809L482.243 0.993295C487.706 1.11746 493.17 1.24162 498.633 1.24162H515.146L514.525 0.620809V14.5269L515.022 14.0303C512.29 14.0303 509.559 14.0303 506.952 14.1545L498.757 14.2786L482.243 14.5269Z" fill="#EBEBEB"/>
<path d="M274.27 216.911L290.535 217.283L298.854 217.407C301.586 217.407 304.442 217.407 307.173 217.531H307.67V217.035L307.794 203.129V202.508H307.173L290.784 202.632C285.321 202.632 279.857 202.756 274.394 202.88H274.022V203.253C274.022 205.612 274.146 207.971 274.146 210.33L274.27 216.911ZM274.27 216.911L274.394 209.833C274.394 207.474 274.518 205.239 274.518 203.004L274.146 203.377C279.609 203.501 285.072 203.625 290.535 203.625L306.925 203.749L306.304 203.129L306.428 217.035L306.925 216.538C304.193 216.538 301.462 216.538 298.854 216.662L290.66 216.786L274.27 216.911Z" fill="#EBEBEB"/>
<path d="M45.6924 25.3291H102.683V94.4873H45.6924V25.3291Z" fill="#455A64"/>
<path d="M52.2734 31.5371H96.2267V88.0308H52.2734V31.5371Z" fill="white"/>
<path d="M94.4885 31.5371H96.2267V88.0308H94.4885V31.5371Z" fill="#9E9E9E"/>
<path d="M43.9541 25.3291H45.6924V94.4873H43.9541V25.3291Z" fill="#9E9E9E"/>
<path d="M73.1312 75.4805H62.8257L62.8257 44.5642H73.1312V75.4805Z" fill="#455A64"/>
<path d="M86.0738 54.5234H58.3857V39.3757H86.0738V54.5234Z" stroke="#455A64" stroke-width="1.24162" stroke-miterlimit="10"/>
<path d="M45.6924 195.555H102.683V264.713H45.6924V195.555Z" fill="#455A64"/>
<path d="M52.2734 201.888H96.2267V258.381H52.2734V201.888Z" fill="white"/>
<path d="M94.4885 201.888H96.2267V258.381H94.4885V201.888Z" fill="#9E9E9E"/>
<path d="M43.9541 195.555H45.6924V264.713H43.9541V195.555Z" fill="#9E9E9E"/>
<path d="M71.146 214.925H81.4515V245.841H71.146V214.925Z" fill="#455A64"/>
<path d="M58.2323 209.709H85.9203V224.857H58.2323V209.709Z" stroke="#455A64" stroke-width="1.24162" stroke-miterlimit="10"/>
<path d="M45.6942 110.752H102.685V179.911H45.6942V110.752Z" fill="#FE9563"/>
<path d="M52.2753 117.085H96.2286V173.579H52.2753V117.085Z" fill="white"/>
<path d="M94.4903 117.085H96.2286V173.579H94.4903V117.085Z" fill="#FFCBB2"/>
<path d="M43.96 110.752H45.6983V179.911H43.96V110.752Z" fill="#FFCBB2"/>
<path d="M69.5331 131.611H78.4727V154.085H69.5331V131.611Z" fill="#FE9563"/>
<path d="M60.2197 145.27H84.0588V160.79H60.2197V145.27Z" stroke="#FE9563" stroke-width="1.24162" stroke-miterlimit="10"/>
<path d="M258.103 519.245C198.376 519.245 149.958 513.63 149.958 506.704C149.958 499.779 198.376 494.164 258.103 494.164C317.83 494.164 366.248 499.779 366.248 506.704C366.248 513.63 317.83 519.245 258.103 519.245Z" fill="#E3D7C3"/>
<path d="M524.46 477.775L458.902 477.402H393.345L262.23 477.154L131.115 477.402H65.5575L0 477.775L65.5575 478.023L131.115 478.147L262.23 478.395L393.345 478.147L458.902 478.023L524.46 477.775Z" fill="#263238"/>
<path d="M68.7925 279.737C68.7925 279.737 40.9803 275.888 47.4367 242.24C47.4367 242.24 78.4772 249.317 68.7925 279.737Z" fill="#FE9563"/>
<path d="M67.3063 272.784C66.8096 271.046 66.0646 269.432 65.4438 267.818C65.4438 267.569 65.4439 267.445 65.3197 267.197C65.3197 266.7 65.1955 266.328 65.1955 265.831C65.0714 264.838 65.0714 263.844 64.9472 262.851C64.823 260.864 64.6989 258.878 64.6989 256.891C64.6989 256.767 64.5747 256.767 64.5747 256.891C64.5747 258.878 64.5747 260.864 64.5747 262.975C64.5747 263.969 64.6989 264.962 64.6989 265.955C64.6989 266.203 64.6989 266.452 64.6989 266.576C63.0848 263.224 61.2224 259.995 59.1116 257.015C58.1183 255.65 57.125 254.408 56.1317 253.166C55.0142 251.925 53.8968 250.683 52.7793 249.442C52.6552 249.317 52.531 249.442 52.6552 249.566C54.6418 251.676 56.38 254.284 57.9941 256.643C58.8633 257.885 59.6083 259.25 60.3532 260.616C60.2291 260.616 60.229 260.492 60.1049 260.492C59.7324 260.368 59.4841 260.244 59.1116 260.119C58.3666 259.871 57.6216 259.499 56.8767 259.25C55.3867 258.754 53.8968 258.133 52.4068 257.636C52.2827 257.636 52.2827 257.76 52.4068 257.76C53.8968 258.381 55.3867 259.002 56.7525 259.623C57.4975 259.871 58.2425 260.244 58.8633 260.492C59.2358 260.616 59.6082 260.74 59.9807 260.989C60.229 261.113 60.4774 261.237 60.7257 261.237C61.3465 262.23 61.8431 263.224 62.3398 264.341C63.5814 266.948 64.823 269.556 65.6922 272.287C65.8163 272.536 65.8163 272.66 65.9405 272.908C65.1955 272.412 64.3264 272.163 63.7056 271.791C62.7123 271.294 61.8432 270.922 60.8499 270.425C58.8633 269.556 57.0008 268.563 55.1384 267.569C55.0142 267.569 55.0142 267.693 55.0142 267.693C56.8767 268.687 58.7391 269.804 60.7257 270.922C61.719 271.418 62.5881 271.915 63.5814 272.412C64.3264 272.784 65.3197 273.405 66.1888 273.405C67.0579 276.012 67.8029 278.62 68.0512 281.227C68.2996 285.076 68.2996 288.801 68.4237 292.65C68.4237 292.774 68.5479 292.65 68.5479 292.65C68.7962 289.173 68.9204 285.697 69.0446 282.22C69.0446 278.868 68.2996 275.888 67.3063 272.784Z" fill="#263238"/>
<path d="M63.0783 253.042C62.8299 255.029 62.7058 257.016 62.83 259.002H62.9541C63.0783 257.016 63.0783 255.029 63.3266 253.167C63.2024 252.918 63.0783 252.918 63.0783 253.042Z" fill="#263238"/>
<path d="M55.135 254.656C53.8934 254.16 52.6518 253.663 51.5343 252.918C51.4102 252.918 51.4102 253.042 51.4102 253.042C52.5276 253.787 53.7692 254.408 55.135 254.656C55.135 254.78 55.135 254.78 55.135 254.656Z" fill="#263238"/>
<path d="M69.6572 333.002C69.6572 329.898 69.533 326.918 69.533 323.814C69.533 313.633 69.4088 303.452 69.1605 293.271C69.0363 285.2 68.788 277.13 68.5397 268.935C68.5397 268.935 68.5397 268.811 68.4155 268.811C68.4155 266.576 68.4155 264.341 68.4155 262.23L68.2914 262.106C68.1672 262.106 68.1672 262.106 68.1672 262.23C68.1672 264.465 68.1672 266.7 68.1672 268.935C68.1672 268.935 68.043 268.935 68.043 269.059C67.6706 283.462 67.2981 297.865 67.1739 312.267C67.1739 315.247 67.1739 318.103 67.1739 321.083C67.0498 330.519 67.0498 339.831 67.0498 349.268C67.0498 350.758 67.0498 352.247 67.0498 353.737C67.0498 362.305 67.1739 370.872 67.1739 379.563C67.1739 380.06 67.6706 380.308 68.2914 380.308C68.9122 380.308 69.533 380.06 69.533 379.563C69.533 370.127 69.6572 360.566 69.6572 351.13C69.6572 344.922 69.6572 338.962 69.6572 333.002Z" fill="#263238"/>
<path d="M57.991 323.69C57.991 323.69 44.5815 313.757 31.917 320.462C19.2525 327.167 17.266 352.992 17.266 352.992C17.266 352.992 35.8902 355.6 47.6856 344.549C58.9843 333.747 57.991 323.69 57.991 323.69Z" fill="#FE9563"/>
<path d="M61.712 324.311C59.3529 323.318 56.6214 323.069 54.014 323.318C53.5173 323.193 52.8965 323.193 52.3999 323.193C51.7791 323.193 51.1582 323.069 50.5374 323.069C49.2958 322.945 47.9301 322.945 46.6884 322.821C44.081 322.573 41.3495 322.449 38.7421 322.2C38.6179 322.2 38.6179 322.324 38.7421 322.324C41.3495 322.697 43.9569 323.069 46.5643 323.318C47.9301 323.442 49.2958 323.566 50.5374 323.69C50.9099 323.69 51.1583 323.69 51.5308 323.814C51.1583 323.938 50.7858 323.938 50.2891 324.063C48.1784 324.683 46.1918 325.553 44.2052 326.546C43.2119 326.794 42.0945 327.043 41.1012 327.291C39.4871 327.663 37.7488 328.16 36.1347 328.532C32.9065 329.402 29.6782 330.395 26.45 331.264C26.3259 331.264 26.45 331.512 26.45 331.388C29.6782 330.643 32.9065 329.898 36.1347 329.153C37.7488 328.781 39.2387 328.408 40.8528 328.036C41.2253 327.912 41.722 327.787 42.0944 327.787C38.4937 330.022 35.2655 332.878 32.534 336.106C29.9266 339.335 27.8158 342.811 25.9534 346.536C25.9534 346.66 26.0776 346.784 26.0776 346.66C28.1883 342.935 30.9199 339.335 34.0239 336.23C34.0239 336.355 33.8997 336.603 33.8997 336.727C33.6514 337.472 33.4031 338.341 33.1548 339.086C32.6581 340.7 32.1615 342.19 31.6649 343.804C31.6649 343.929 31.789 343.929 31.789 343.804C32.4098 342.314 32.9065 340.7 33.4031 339.21C33.6514 338.465 33.8998 337.72 34.1481 336.975C34.2723 336.603 34.3964 336.23 34.5206 335.858C34.5206 335.734 34.6447 335.61 34.6447 335.486C36.1347 333.996 37.7488 332.63 39.3629 331.388C41.5978 329.774 43.9569 328.408 46.4401 327.291C46.4401 327.539 46.3159 327.787 46.3159 328.036C46.1918 328.657 46.0676 329.277 45.9435 329.898C45.6951 331.14 45.4468 332.381 45.1985 333.747C44.7018 336.355 44.3294 338.962 43.9569 341.569C43.9569 341.694 44.081 341.694 44.081 341.569C44.7018 338.962 45.4468 336.355 46.0676 333.747C46.316 332.381 46.6884 331.14 46.9367 329.774C47.0609 329.153 47.1851 328.532 47.3093 327.912C47.4334 327.539 47.4334 327.291 47.5576 326.918C47.8059 326.794 48.0542 326.67 48.3025 326.67C51.7791 325.428 55.6281 324.435 59.4771 325.18C63.0778 325.925 66.0577 328.284 67.5476 331.637C67.6718 331.885 68.1684 331.761 68.0443 331.388C67.2993 327.912 64.5677 325.553 61.712 324.311Z" fill="#263238"/>
<path d="M41.2256 335.362C40.8531 337.1 40.4807 338.714 40.1082 340.452C39.7357 342.067 39.3632 343.681 39.1149 345.419C39.1149 345.543 39.2391 345.543 39.2391 345.419C39.7357 343.805 40.1082 342.067 40.3565 340.452C40.729 338.838 40.9773 337.1 41.3498 335.486C41.3498 335.238 41.2256 335.238 41.2256 335.362Z" fill="#263238"/>
<path d="M28.3143 339.583C26.5761 340.452 24.962 341.445 23.2237 342.19C23.0995 342.19 23.2237 342.439 23.3479 342.315C24.962 341.445 26.7002 340.7 28.3143 339.583C28.3143 339.707 28.3143 339.583 28.3143 339.583Z" fill="#263238"/>
<path d="M61.0973 305.439C61.0973 305.439 44.708 306.432 37.1341 295.754C29.5602 284.952 31.2985 269.556 31.2985 269.556C31.2985 269.556 48.4328 271.667 55.2617 279.365C62.0906 287.063 61.0973 305.439 61.0973 305.439Z" fill="#FE9563"/>
<path d="M68.6682 321.58C68.0474 319.842 67.4265 318.104 66.6816 316.365C66.0608 314.751 65.3158 313.137 64.695 311.523C63.2051 308.171 61.5909 305.067 59.8527 301.838C58.7352 299.852 57.4936 297.865 56.252 296.003C56.252 295.755 56.1278 295.382 56.1278 295.134C56.0036 294.637 56.0037 294.14 55.8795 293.644C55.7553 292.65 55.507 291.533 55.3829 290.54C55.0104 288.305 54.5137 286.07 54.1412 283.835C54.1412 283.711 54.0171 283.711 54.0171 283.835C54.3896 286.07 54.5137 288.305 54.8862 290.54C55.0104 291.657 55.1345 292.775 55.3829 293.768C55.3829 294.14 55.507 294.513 55.507 295.01C53.0238 291.409 50.2922 287.932 47.4365 284.58C47.064 284.083 46.6915 283.711 46.1949 283.214C46.1949 283.09 46.0707 282.966 46.0707 282.842C45.9466 282.469 45.8224 282.221 45.6982 281.848C45.4499 281.228 45.2016 280.607 44.9532 279.862C44.4566 278.62 44.0841 277.254 43.7116 276.013C43.7116 275.889 43.4633 276.013 43.5875 276.013C43.96 277.379 44.2083 278.744 44.7049 279.986C44.9533 280.607 45.0774 281.228 45.3257 281.848C45.3257 281.973 45.4499 282.097 45.4499 282.221C43.3392 279.986 41.2284 277.751 38.9935 275.64C38.8693 275.516 38.7452 275.64 38.8693 275.764C43.0908 280.11 46.9399 284.952 50.4164 289.919C50.0439 289.795 49.5473 289.671 49.1748 289.671C47.9332 289.422 46.6915 289.298 45.3257 289.05C42.7183 288.677 39.9868 288.429 37.3794 287.932C37.2552 287.932 37.2552 288.056 37.3794 288.056C39.8626 288.553 42.47 289.174 44.9532 289.671C46.1949 289.919 47.3123 290.167 48.554 290.416C49.5473 290.664 50.4164 290.912 51.4097 291.285C51.658 291.657 51.9063 292.03 52.1547 292.402C53.3963 294.14 54.5137 295.879 55.6312 297.741C55.1345 297.617 54.5137 297.493 54.0171 297.369C52.7755 297.12 51.5338 296.872 50.1681 296.748C47.6848 296.375 45.2016 295.879 42.7183 295.382C42.5942 295.382 42.5942 295.506 42.7183 295.506C45.2016 296.127 47.6848 296.748 50.1681 297.493C51.4097 297.865 52.5271 298.114 53.7687 298.362C54.3896 298.486 55.0104 298.61 55.6312 298.734C55.8795 298.734 56.1278 298.859 56.3761 298.859C58.7352 302.708 60.9701 306.681 63.0809 310.778C63.95 312.516 64.8192 314.379 65.6883 316.117C66.5574 317.98 67.3024 319.842 68.1715 321.704C68.2957 322.201 68.7923 322.077 68.6682 321.58Z" fill="#263238"/>
<path d="M52.0304 284.083C51.6579 282.469 51.4096 280.979 51.0371 279.365C51.0371 279.241 50.9129 279.365 50.9129 279.365C51.1612 280.855 51.5337 282.469 51.782 283.959C52.0304 285.449 52.2787 287.063 52.6512 288.553C52.6512 287.063 52.2787 285.573 52.0304 284.083Z" fill="#263238"/>
<path d="M42.4706 283.586C41.7256 283.214 40.8565 282.841 40.1115 282.593C39.739 282.469 39.2424 282.221 38.8699 282.096C38.6216 281.972 38.4974 281.972 38.2491 281.848C38.0008 281.724 37.7524 281.724 37.5041 281.6C37.38 281.476 37.2558 281.724 37.38 281.724C37.6283 281.724 37.8766 281.972 38.1249 281.972C38.3733 282.096 38.4974 282.096 38.7457 282.221C39.1182 282.345 39.4907 282.593 39.9874 282.717C40.7323 283.09 41.6015 283.462 42.3465 283.71C42.4706 283.835 42.5948 283.71 42.4706 283.586Z" fill="#263238"/>
<path d="M77.7301 292.65C77.7301 292.65 87.663 274.15 102.687 271.294C117.71 268.438 126.898 283.959 126.898 283.959C126.898 283.959 115.972 297.989 102.066 300.472C88.408 302.831 77.7301 292.65 77.7301 292.65Z" fill="#FE9563"/>
<path d="M112.745 279.613C108.896 279.117 104.798 279.117 100.949 279.737C101.198 279.613 101.446 279.489 101.57 279.365C102.688 278.744 103.805 278.247 104.923 277.627C107.282 276.385 109.517 275.143 112 274.15C112.124 274.15 112 273.902 111.876 274.026C109.517 275.143 107.033 276.013 104.674 277.13C103.433 277.627 102.315 278.247 101.198 278.868C100.453 279.241 99.5836 279.613 98.9628 280.11C95.6104 280.731 92.3822 281.848 89.4023 283.338C90.0231 282.717 90.6439 281.972 91.2647 281.352C92.6305 279.862 93.9963 278.247 95.6104 276.758C95.7346 276.633 95.6104 276.509 95.4862 276.633C93.8721 278.123 92.258 279.365 90.7681 280.855C90.0231 281.6 89.2781 282.345 88.6573 283.09C88.2848 283.462 87.9124 283.835 87.6641 284.331C81.0835 287.932 75.4962 293.271 71.8955 299.727C69.7847 303.452 68.2948 307.426 67.5498 311.523C67.5498 311.647 67.674 311.647 67.674 311.523C69.7847 304.57 73.6337 297.989 78.7244 292.774C84.3117 287.187 91.2647 283.09 98.8386 281.103C103.433 279.986 108.027 279.489 112.745 279.862C112.993 279.862 112.993 279.613 112.745 279.613Z" fill="#263238"/>
<path opacity="0.1" d="M126.898 283.958C126.898 283.958 115.972 297.988 102.066 300.472C91.5121 302.334 82.8207 296.871 79.3442 294.139L78.5992 292.898C78.5992 292.898 85.6765 286.938 99.2101 283.461C112.744 279.861 126.898 283.958 126.898 283.958Z" fill="black"/>
<path d="M104.053 273.033C102.935 273.778 101.818 274.399 100.7 275.268C99.707 276.013 98.7137 276.882 97.8445 277.875C97.7204 277.999 97.8445 278.124 97.9687 277.999C98.962 277.13 99.9553 276.261 100.949 275.392C101.942 274.647 103.059 273.778 104.053 273.157C104.177 273.033 104.177 272.909 104.053 273.033Z" fill="#263238"/>
<path d="M112.247 276.137C111.751 276.385 111.13 276.509 110.509 276.758C110.013 277.006 109.392 277.254 108.895 277.503C108.771 277.503 108.771 277.751 108.895 277.751C109.516 277.503 110.013 277.254 110.633 277.13C111.254 276.882 111.751 276.633 112.247 276.385C112.496 276.261 112.372 276.137 112.247 276.137Z" fill="#263238"/>
<path d="M75.7447 315.868C75.7447 315.868 78.3521 334.244 92.134 340.576C105.916 347.033 122.678 340.576 122.678 340.576C122.678 340.576 116.221 300.969 75.7447 315.868Z" fill="#FE9563"/>
<path d="M113.242 328.657C112.001 328.532 110.759 328.284 109.393 328.036C108.772 327.912 108.152 327.787 107.531 327.663C107.158 327.663 106.91 327.539 106.537 327.415C106.165 327.043 105.793 326.67 105.42 326.422C102.813 324.063 99.9569 322.076 96.977 320.338C95.3629 319.344 93.6247 318.475 91.8864 317.73C92.0106 317.73 92.0105 317.73 92.1347 317.73C93.6246 317.855 95.1146 317.855 96.7287 317.979C99.7086 318.103 102.813 318.227 105.793 318.351C105.917 318.351 105.917 318.227 105.793 318.227C102.813 317.979 99.7086 317.73 96.7287 317.482C95.2388 317.358 93.7488 317.234 92.383 317.11C91.6381 316.985 90.8931 316.985 90.1481 316.861C89.8998 316.861 89.7757 316.861 89.5273 316.737C88.7824 316.489 87.9132 316.116 87.1682 315.868C83.4434 314.75 79.346 314.254 75.497 315.247C72.0205 316.116 68.544 318.351 67.6748 322.076C67.6748 322.2 67.799 322.324 67.9231 322.2C69.1648 319.096 72.6413 317.606 75.6212 316.985C77.7319 316.613 79.8427 316.613 81.8293 316.861C81.9534 317.855 82.3259 318.724 82.5743 319.593C82.9467 320.834 83.3192 322.2 83.6917 323.442C84.4367 326.049 85.3058 328.532 86.0508 331.14C86.0508 331.264 86.2991 331.14 86.1749 331.14C85.5541 328.532 84.9333 325.925 84.4367 323.442C84.1884 322.2 83.8159 320.959 83.4434 319.593C83.195 318.724 83.0709 317.855 82.6984 316.985C83.9401 317.234 85.0575 317.482 86.2991 317.855C88.4099 318.475 90.5206 319.22 92.5072 320.089C92.7555 321.455 93.0039 322.697 93.2522 323.938C93.6247 325.553 93.9971 327.167 94.6179 328.781C94.6179 328.905 94.7421 328.781 94.7421 328.781C94.7421 328.657 94.7421 328.532 94.7421 328.532C94.4938 327.043 94.1213 325.553 93.7488 324.063C93.5005 322.821 93.2522 321.704 93.0039 320.462C94.7421 321.207 96.3562 322.076 97.9703 322.945C97.9703 323.318 98.0945 323.69 98.0945 324.063C98.2187 324.683 98.3428 325.304 98.467 325.925C98.7153 327.291 98.9636 328.781 99.3361 330.147C99.9569 332.878 100.702 335.486 101.695 338.093V338.217C101.695 338.217 101.695 338.217 101.819 338.341C101.819 338.465 101.944 338.341 101.944 338.217C101.323 335.486 100.578 332.754 99.9569 330.022C99.7086 328.657 99.3361 327.291 99.0878 325.925C98.9636 325.304 98.8395 324.559 98.7153 323.814C98.7153 323.566 98.5911 323.442 98.5911 323.193C100.454 324.311 102.192 325.428 103.93 326.794C106.91 329.029 109.642 331.512 112.125 334.244C112.249 334.368 112.373 334.244 112.373 334.12C111.38 332.754 110.262 331.388 109.145 330.147C108.4 329.402 107.779 328.657 107.034 328.036C107.158 328.036 107.158 328.036 107.282 328.036C107.903 328.16 108.524 328.284 109.269 328.284C110.511 328.408 111.876 328.532 113.118 328.781C113.366 328.905 113.366 328.657 113.242 328.657Z" fill="#263238"/>
<path d="M103.553 334.865C103.553 334.741 103.553 334.492 103.429 334.368C103.429 334.12 103.305 333.996 103.305 333.747C103.057 332.506 102.808 331.264 102.56 330.022C102.56 329.898 102.436 330.022 102.436 330.022C102.56 331.761 102.932 333.375 103.553 334.865C103.553 334.989 103.553 334.989 103.553 334.865Z" fill="#263238"/>
<path d="M92.1315 334.616C92.0074 334.492 92.0074 334.616 92.1315 334.616C91.6349 332.878 91.2624 331.263 91.0141 329.649C90.8899 328.78 90.6416 327.911 90.5174 327.042C90.3933 326.545 90.3933 326.173 90.2691 325.676C90.1449 325.304 90.145 324.807 90.0208 324.435H89.8966C89.7725 325.18 90.1449 326.173 90.2691 326.918C90.3933 327.787 90.6416 328.656 90.7658 329.649C91.1383 331.512 91.6349 333.25 92.1315 334.988C92.1315 335.112 92.3799 335.112 92.2557 334.988C92.1315 334.864 92.1315 334.74 92.1315 334.616Z" fill="#263238"/>
<path d="M111.998 323.442C109.515 323.07 106.907 322.697 104.424 322.449C104.3 322.449 104.3 322.573 104.424 322.573C106.907 322.945 109.515 323.318 111.998 323.566C112.122 323.566 112.122 323.442 111.998 323.442Z" fill="#263238"/>
<path d="M68.6711 272.908C68.6711 272.908 60.2281 235.908 99.9599 221.009C100.084 221.009 111.01 269.68 68.6711 272.908Z" fill="#FE9563"/>
<path d="M77.3632 251.925C77.4874 251.801 77.6116 251.801 77.7357 251.677C78.4807 251.304 79.2257 250.808 79.9706 250.435L84.5646 247.828C87.5445 246.09 90.6486 244.351 93.6284 242.737C93.7526 242.737 93.6284 242.489 93.5043 242.613C90.4002 244.227 87.2962 245.841 84.1921 247.455L79.5982 249.814C78.9774 250.187 78.3565 250.435 77.7357 250.808C79.1015 248.325 80.4673 245.841 82.0814 243.482C84.1922 240.254 86.4271 237.274 88.7861 234.294C88.9103 234.17 88.662 234.046 88.5378 234.046C85.0613 237.398 81.9572 241.247 79.3498 245.345C79.3498 245.22 79.3498 245.096 79.3498 244.972C79.3498 244.103 79.474 243.11 79.474 242.241C79.474 240.378 79.474 238.64 79.474 236.777C79.474 236.653 79.3498 236.653 79.3498 236.777C79.2257 238.516 79.1015 240.378 78.9774 242.116C78.9774 242.986 78.8532 243.855 78.8532 244.724C78.8532 245.22 78.8532 245.717 78.8532 246.214C77.9841 247.455 77.2391 248.821 76.4941 250.187C75.1283 252.546 74.0108 255.029 72.8934 257.637C72.8934 256.768 72.7693 255.774 72.7693 254.905C72.6451 252.919 72.3967 250.808 72.2726 248.821C72.2726 248.697 72.1485 248.697 72.1485 248.821C72.1485 250.808 72.1485 252.919 72.1485 254.905C72.1485 255.898 72.2726 256.892 72.2726 257.885C72.2726 258.257 72.2726 258.63 72.3968 259.002C71.1551 262.355 70.1618 265.707 69.4169 269.184C68.6719 272.909 68.2994 276.633 67.9269 280.358C68.2994 277.006 69.1686 273.654 70.0377 270.425C70.5343 268.687 71.031 266.949 71.6518 265.211C73.2659 264.466 74.88 263.472 76.4941 262.603C78.1082 261.734 79.8465 260.741 81.4606 259.872C84.813 258.009 88.0411 256.147 91.5177 254.657C91.6418 254.657 91.5177 254.408 91.3935 254.533C87.917 256.147 84.4405 257.637 81.0881 259.251C79.3498 260.12 77.7357 260.989 76.1216 261.982C74.7558 262.727 73.2659 263.596 72.0243 264.466C72.3968 263.348 72.7693 262.106 73.2659 260.989C74.3834 258.009 75.7491 254.905 77.3632 251.925Z" fill="#263238"/>
<path d="M74.0087 243.482C74.0087 243.358 73.8845 243.358 73.8845 243.482C74.0087 245.593 74.1329 247.703 74.3812 249.814C74.3812 249.938 74.6295 249.938 74.6295 249.814C74.3812 247.703 74.1329 245.593 74.0087 243.482Z" fill="#263238"/>
<path d="M93.0055 250.559C90.5223 251.552 88.039 252.546 85.5558 253.539C85.4316 253.539 85.5558 253.663 85.5558 253.663C88.039 252.67 90.5223 251.677 93.0055 250.683C93.1297 250.683 93.1297 250.559 93.0055 250.559Z" fill="#263238"/>
<path d="M96.7282 233.549C94.2449 234.667 91.8858 235.909 89.6509 237.398C89.5267 237.523 89.6509 237.647 89.7751 237.523C92.1342 236.157 94.3691 234.915 96.8523 233.674C96.9765 233.549 96.8523 233.425 96.7282 233.549Z" fill="#263238"/>
<path d="M96.193 413.352H38.8302L38.8302 352.885H96.193V413.352Z" fill="#37474F"/>
<path d="M34.8947 374.224H37.8746V477.651H34.8947V374.224Z" fill="#263238"/>
<path d="M96.8527 374.224H99.8326V477.651H96.8527V374.224Z" fill="#263238"/>
<path d="M67.4258 374.224H70.4057V477.651H67.4258V374.224Z" fill="#263238"/>
<path d="M98.3678 417.765H36.4111V409.446H98.3678V417.765Z" fill="#263238"/>
<path d="M160.918 18.9966H363.55C374.849 18.9966 384.037 28.3087 384.037 39.8558V456.916C384.037 468.463 374.849 477.775 363.55 477.775H160.918C149.619 477.775 140.431 468.463 140.431 456.916V39.8558C140.431 28.3087 149.619 18.9966 160.918 18.9966ZM153.22 444.003C153.22 454.929 161.415 463.869 171.596 463.869H352.872C363.054 463.869 371.248 454.929 371.248 444.003V55.6243C371.248 33.2752 363.054 32.1577 352.872 32.1577H316.617C314.506 32.1577 312.768 34.5168 312.768 37.4967V38.7383C312.768 45.6914 308.919 45.6914 304.325 45.6914H220.268C215.549 45.6914 211.7 45.6914 211.7 38.7383V37.4967C211.7 34.5168 209.962 32.1577 207.851 32.1577H171.596C161.415 32.1577 153.22 35.1376 153.22 55.6243V444.003Z" fill="#263238"/>
<path d="M153.216 55.9974V444.376C153.216 455.302 161.411 464.242 171.592 464.242H352.869C363.05 464.242 371.245 455.302 371.245 444.376V55.9974C371.245 33.6482 363.05 32.5308 352.869 32.5308H316.614C314.503 32.5308 312.765 34.8898 312.765 37.8697V39.1113C312.765 46.0644 308.915 46.0644 304.321 46.0644H220.264C215.546 46.0644 211.697 46.0644 211.697 39.1113V37.8697C211.697 34.8898 209.958 32.5308 207.848 32.5308H171.592C161.411 32.5308 153.216 35.5106 153.216 55.9974Z" fill="white"/>
<path d="M250.813 37.1246H273.658C274.403 37.1246 275.024 36.5038 275.024 35.7588C275.024 35.0139 274.403 34.3931 273.658 34.3931H250.813C250.068 34.3931 249.447 35.0139 249.447 35.7588C249.323 36.5038 250.068 37.1246 250.813 37.1246Z" fill="white"/>
<path d="M322.842 40.9745C322.966 41.0986 323.09 41.2228 323.214 41.3469C323.338 41.4711 323.338 41.4711 323.462 41.5953C324.456 40.7261 325.573 40.2295 326.815 40.2295C328.181 40.2295 329.298 40.7261 330.167 41.5953C330.291 41.4711 330.291 41.4711 330.415 41.3469C330.54 41.2228 330.664 41.0986 330.788 40.9745C330.664 40.8503 330.54 40.7261 330.291 40.602C329.919 40.3536 329.67 40.1053 329.298 39.9812C328.925 39.7328 328.429 39.6087 327.932 39.4845C327.684 39.4845 327.436 39.3604 327.311 39.3604C327.187 39.3604 326.691 39.3604 326.691 39.3604C326.566 39.3604 326.442 39.3604 326.194 39.3604C325.821 39.3604 325.325 39.4845 324.952 39.6087C324.704 39.7328 324.331 39.857 324.083 39.9812C323.835 40.1053 323.587 40.3536 323.338 40.602C323.09 40.7261 322.966 40.8503 322.842 40.9745C322.842 40.8503 322.842 40.8503 322.842 40.9745Z" fill="#A6A6A6"/>
<path d="M329.05 42.5886C329.175 42.4644 329.423 42.2161 329.547 42.0919C328.926 41.4711 328.181 41.0986 327.312 40.9745C325.946 40.8503 324.829 41.2228 323.96 42.0919C324.208 42.3402 324.332 42.4644 324.456 42.5886C325.077 41.9677 325.822 41.5953 326.691 41.5953C327.685 41.5953 328.43 41.9677 329.05 42.5886Z" fill="#A6A6A6"/>
<path d="M325.078 43.0849C325.202 43.2091 325.45 43.4574 325.575 43.5816C325.947 43.3332 326.319 43.0849 326.692 43.0849C327.189 43.0849 327.561 43.2091 327.809 43.5816C327.934 43.4574 328.182 43.2091 328.306 43.0849C327.561 42.2158 326.071 42.0916 325.078 43.0849Z" fill="#A6A6A6"/>
<path d="M326.318 44.2027C326.318 44.451 326.566 44.6993 326.814 44.6993C327.063 44.6993 327.311 44.451 327.311 44.2027C327.311 43.9544 327.063 43.7061 326.814 43.7061C326.442 43.7061 326.318 43.9544 326.318 44.2027Z" fill="#A6A6A6"/>
<path d="M356.985 41.9675C356.985 41.2225 356.364 40.4775 355.495 40.4775C354.75 40.4775 354.005 41.0983 354.005 41.9675C354.005 42.7125 354.626 43.4574 355.495 43.4574C356.364 43.4574 356.985 42.7125 356.985 41.9675Z" fill="#A6A6A6"/>
<path d="M352.516 41.9675C352.516 41.2225 351.895 40.4775 351.026 40.4775C350.281 40.4775 349.536 41.0983 349.536 41.9675C349.536 42.7125 350.157 43.4574 351.026 43.4574C351.895 43.4574 352.516 42.7125 352.516 41.9675Z" fill="#A6A6A6"/>
<path d="M347.919 41.9675C347.919 41.2225 347.298 40.4775 346.429 40.4775C345.56 40.4775 344.939 41.0983 344.939 41.9675C344.939 42.7125 345.56 43.4574 346.429 43.4574C347.298 43.4574 347.919 42.7125 347.919 41.9675Z" fill="#A6A6A6"/>
<path d="M343.327 41.9675C343.327 41.2225 342.706 40.4775 341.837 40.4775C341.092 40.4775 340.347 41.0983 340.347 41.9675C340.347 42.7125 340.968 43.4574 341.837 43.4574C342.706 43.4574 343.327 42.7125 343.327 41.9675Z" fill="#A6A6A6"/>
<path d="M338.858 41.9675C338.858 41.2225 338.237 40.4775 337.368 40.4775C336.623 40.4775 335.878 41.0983 335.878 41.9675C335.878 42.7125 336.499 43.4574 337.368 43.4574C338.237 43.4574 338.858 42.7125 338.858 41.9675Z" fill="#A6A6A6"/>
<path d="M169.616 45.0719H181.412V39.7329H169.616V45.0719ZM180.791 44.5752H170.237V40.3537H180.791V44.5752Z" fill="#A6A6A6"/>
<path d="M172.848 40.6016H180.422V44.2023H172.848V40.6016Z" fill="#A6A6A6"/>
<path d="M168.624 40.9746H169.617V43.8303H168.624V40.9746Z" fill="#A6A6A6"/>
<path d="M355.229 12.168H412.84V55.2521H355.229V12.168Z" fill="#FE9563"/>
<path d="M394.961 55.252H373.108L384.034 67.1715L394.961 55.252Z" fill="#FE9563"/>
<path d="M372.863 36.6276C377.953 43.3324 384.037 46.3122 384.037 46.3122C384.037 46.3122 390.121 43.3324 395.212 36.6276C399.185 31.4128 398.937 23.2181 393.349 21.4799C387.141 19.4933 384.037 28.9296 384.037 28.9296C384.037 28.9296 380.933 19.4933 374.725 21.4799C369.138 23.3423 368.889 31.4128 372.863 36.6276Z" fill="white"/>
<path d="M124.413 122.547H182.024V165.632H124.413V122.547Z" fill="#455A64"/>
<path d="M164.272 165.631H142.296L153.222 177.427L164.272 165.631Z" fill="#455A64"/>
<path d="M147.377 137.447C147.377 140.675 149.984 143.283 153.213 143.283C156.441 143.283 159.048 140.675 159.048 137.447C159.048 134.219 156.441 131.611 153.213 131.611C149.984 131.611 147.377 134.219 147.377 137.447Z" fill="white"/>
<path d="M140.795 156.568H165.628C165.628 156.568 165.007 150.608 163.765 148.87C162.524 147.132 159.296 145.145 153.212 145.145C147.128 145.145 143.899 147.132 142.658 148.87C141.416 150.608 140.795 156.568 140.795 156.568Z" fill="white"/>
<path d="M95.2379 184.257H135.218V214.056H95.2379V184.257Z" fill="#FE9563"/>
<path d="M122.925 214.056H107.653L115.227 222.375L122.925 214.056Z" fill="#FE9563"/>
<path d="M107.527 201.142C111.003 205.86 115.225 207.847 115.225 207.847C115.225 207.847 119.446 205.736 122.923 201.142C125.655 197.542 125.53 191.83 121.557 190.713C117.212 189.347 115.101 195.803 115.101 195.803C115.101 195.803 112.99 189.223 108.644 190.713C104.92 191.954 104.795 197.542 107.527 201.142Z" fill="white"/>
<path d="M287.8 193.067C287.8 193.067 260.857 328.528 258.871 338.585C258.374 340.82 259.988 462.126 259.988 462.126H209.827C209.827 462.126 204.984 356.216 207.468 336.226C209.827 316.236 240.37 193.067 240.37 193.067H287.8Z" fill="#F7A9A0"/>
<path d="M287.8 193.067C287.8 193.067 274.639 258.997 266.072 302.206L240.495 193.067H287.8Z" fill="#263238"/>
<path d="M223.484 260.736L276.75 267.192L287.8 193.067H240.495L223.484 260.736Z" fill="#37474F"/>
<path d="M274.76 257.01C269.048 255.893 263.337 255.148 257.501 254.527C251.79 253.906 246.079 253.285 240.367 252.665C237.139 252.292 233.787 252.044 230.558 251.795C230.31 251.795 230.31 252.044 230.558 252.044C236.27 253.161 242.105 253.782 247.817 254.527C253.528 255.272 259.24 256.017 264.951 256.638C268.179 257.01 271.532 257.259 274.76 257.383C275.008 257.383 275.008 257.01 274.76 257.01Z" fill="#263238"/>
<path d="M280.474 197.413C276.5 211.568 272.775 225.846 269.175 240.125C268.678 242.111 268.182 244.098 267.685 246.209C267.188 248.32 266.692 250.306 266.319 252.417C266.319 252.541 266.443 252.541 266.567 252.417C267.933 248.94 268.678 245.216 269.671 241.739C270.665 238.138 271.534 234.662 272.403 231.061C274.265 223.984 276.004 216.782 277.742 209.705C278.735 205.608 279.729 201.511 280.722 197.537C280.722 197.289 280.474 197.165 280.474 197.413Z" fill="#263238"/>
<path d="M172.833 507.943C175.565 508.812 254.656 508.688 257.636 506.701C258.754 505.956 259.374 494.409 259.747 480.503C259.871 477.523 259.871 474.419 259.995 471.191C259.995 467.466 260.119 463.617 260.119 460.016C260.243 443.503 259.995 428.976 259.995 428.976H208.592V460.016V471.191L208.84 480.503C208.84 480.503 178.669 494.161 175.565 496.644C172.461 499.127 170.102 507.073 172.833 507.943Z" fill="#F7A9A0"/>
<path d="M172.831 507.942C175.563 508.811 254.654 508.687 257.634 506.7C258.751 505.956 259.372 494.408 259.744 480.502C259.869 477.522 259.869 474.418 259.993 471.19C259.993 467.465 260.117 463.616 260.117 460.016H208.59V471.19L208.838 480.502C208.838 480.502 178.667 494.16 175.563 496.643C172.459 499.127 170.1 507.073 172.831 507.942Z" fill="white"/>
<path d="M172.582 508.067C174.444 508.687 208.092 508.812 232.552 508.315C238.264 508.191 243.354 508.067 247.576 507.818C253.287 507.57 257.26 507.197 257.881 506.825C259.247 505.956 259.992 489.07 260.24 471.19H208.465L208.713 480.503C208.713 480.503 178.293 494.16 175.189 496.644C172.209 499.127 169.85 507.197 172.582 508.067Z" fill="#FE9563"/>
<path d="M173.699 504.962C186.984 504.59 240.746 504.341 254.032 505.086C254.156 505.086 254.156 505.211 254.032 505.211C240.87 505.831 187.108 505.583 173.699 505.335C173.45 505.086 173.45 504.962 173.699 504.962Z" fill="#263238"/>
<path d="M206.976 477.647C212.191 476.654 218.648 477.399 222.621 481.124C222.745 481.248 222.621 481.496 222.372 481.372C217.158 479.758 212.315 478.764 206.976 478.268C206.604 478.268 206.604 477.647 206.976 477.647Z" fill="#263238"/>
<path d="M203.126 479.882C208.341 478.889 214.797 479.634 218.77 483.358C218.894 483.483 218.77 483.731 218.522 483.607C213.307 481.993 208.465 480.999 203.126 480.503C202.753 480.503 202.753 480.006 203.126 479.882Z" fill="#263238"/>
<path d="M199.403 482.241C204.618 481.247 211.074 481.992 215.048 485.717C215.172 485.841 215.048 486.09 214.799 485.966C209.584 484.352 204.742 483.358 199.403 482.862C199.031 482.862 199.031 482.241 199.403 482.241Z" fill="#263238"/>
<path d="M195.553 484.476C200.768 483.482 207.224 484.227 211.197 487.952C211.321 488.076 211.197 488.325 210.949 488.2C205.734 486.586 200.892 485.593 195.553 485.096C195.18 485.096 195.18 484.6 195.553 484.476Z" fill="#263238"/>
<path d="M197.17 465.479C199.281 462.623 203.005 463.865 205.24 465.727C208.841 468.707 211.945 473.301 213.311 477.771C213.311 477.895 213.311 477.895 213.187 478.02C213.187 478.392 212.814 478.889 212.318 478.64C207.972 477.026 203.13 475.909 199.405 473.053C197.418 471.315 195.307 468.211 197.17 465.479ZM206.358 474.791C208.469 475.66 210.579 476.405 212.69 477.275C211.076 474.915 209.586 472.556 207.848 470.321C206.979 469.328 206.109 468.211 205.116 467.342C203.502 465.976 197.418 462.872 198.287 468.707C198.784 471.936 203.875 473.798 206.358 474.791Z" fill="#263238"/>
<path d="M226.715 476.281C222.369 478.143 217.403 478.019 212.809 478.516C212.312 478.516 212.064 478.019 212.188 477.647C212.064 477.647 212.064 477.523 212.064 477.399C214.547 473.549 218.768 469.825 222.866 467.838C225.473 466.596 229.446 466.348 230.812 469.576C232.054 472.805 229.198 475.288 226.715 476.281ZM229.074 472.556C231.433 467.217 224.728 468.583 222.866 469.576C221.624 470.197 220.507 470.942 219.389 471.811C217.03 473.425 215.043 475.412 212.933 477.274C215.168 476.902 217.403 476.778 219.637 476.405C222.369 476.157 227.832 475.536 229.074 472.556Z" fill="#263238"/>
<path opacity="0.1" d="M234.664 508.315C239.506 508.191 243.976 508.067 247.577 507.942C253.412 507.694 257.261 507.322 257.882 506.949C259 506.328 259.62 496.395 259.993 483.855L234.664 508.315Z" fill="black"/>
<path d="M282.832 466.224L334.235 462.002C334.235 462.002 324.178 384.401 323.309 369.502C322.812 361.928 314.866 279.236 310.52 242.732C310.52 242.732 318.839 222.866 303.195 192.943H240.493C240.493 192.943 244.715 221.376 251.916 239.504C251.916 239.504 256.634 240.746 265.077 245.464C265.077 245.464 270.54 362.3 272.899 380.179C275.631 402.032 282.832 466.224 282.832 466.224Z" fill="#F7A9A0"/>
<path d="M265.821 267.565H315.238L311.513 242.732C311.513 242.732 318.963 217.527 304.312 192.943H240.492C240.492 192.943 243.1 219.638 250.922 239.752L258.992 243.353L265.821 267.565Z" fill="#37474F"/>
<path d="M258.868 243.353C258.868 242.98 258.123 243.104 258.247 243.353C260.855 258.004 264.952 265.081 265.201 265.702C265.201 265.826 265.325 265.826 265.449 265.702C265.697 265.081 260.11 249.437 258.868 243.353Z" fill="#263238"/>
<path d="M249.425 238.759C255.137 240.745 260.6 243.477 265.815 246.332C266.063 246.457 265.939 246.705 265.691 246.705C260.228 244.346 254.516 242.111 249.177 239.379C248.68 239.255 249.053 238.634 249.425 238.759Z" fill="#263238"/>
<path d="M247.687 201.014C247.687 200.766 248.059 200.766 248.059 201.014C248.059 207.594 248.432 213.306 248.928 219.39C249.177 222.246 251.412 237.89 256.378 236.772C257.247 236.524 257.62 235.779 257.744 234.538C257.868 233.048 257.371 231.185 257.123 229.695C256.626 226.467 256.13 223.115 255.881 219.762C255.385 213.554 255.385 207.346 256.13 201.262C256.13 201.014 256.502 201.014 256.502 201.262C256.502 209.829 256.751 218.397 257.992 226.84C258.613 230.937 260.6 237.021 256.378 237.642C252.032 238.262 249.177 227.957 248.68 225.225C247.066 217.403 247.066 208.96 247.687 201.014Z" fill="#263238"/>
<path d="M256.256 237.145C256.753 238.138 257.001 239.255 257.373 240.373C257.622 241.242 257.87 242.111 257.87 242.98C257.87 243.104 257.622 243.229 257.498 243.105C256.877 242.36 256.628 241.366 256.38 240.497C256.008 239.504 255.635 238.511 255.263 237.517C255.014 236.896 256.008 236.524 256.256 237.145Z" fill="#263238"/>
<path d="M302.069 220.259C297.475 219.762 292.633 219.886 288.287 217.776C283.942 215.665 281.086 211.567 278.851 207.346C277.485 204.739 276.492 202.007 275.747 199.151C275.747 199.027 275.499 199.027 275.499 199.151C275.623 201.759 276.368 204.49 277.361 206.849C278.355 209.208 279.596 211.567 281.086 213.678C282.452 215.665 284.19 217.403 286.425 218.645C288.536 219.886 291.019 220.507 293.378 220.755C296.234 221.004 299.09 221.004 301.945 220.755C302.318 220.755 302.318 220.259 302.069 220.259Z" fill="#263238"/>
<path d="M308.404 247.947C307.907 245.712 307.162 243.353 307.038 240.994C306.914 238.635 308.156 236.648 308.901 234.537C311.632 226.218 310.515 217.03 307.535 208.96C305.797 204.366 303.562 199.896 301.078 195.55C301.078 195.426 300.83 195.55 300.954 195.675C305.052 203.621 308.652 212.064 309.397 221.004C309.77 225.349 309.521 229.695 308.156 233.916C307.535 235.903 306.417 237.765 306.293 239.876C306.169 242.111 306.79 244.222 307.287 246.333C307.907 248.94 309.646 256.762 310.515 259.37C310.639 259.618 311.011 259.494 310.887 259.246C310.515 257.011 308.901 250.43 308.404 247.947Z" fill="#263238"/>
<path d="M312.004 261.108C306.168 260.736 300.333 260.736 294.621 260.736C288.91 260.736 283.074 260.86 277.363 260.984C274.135 261.108 270.782 261.108 267.554 261.357C267.306 261.357 267.306 261.605 267.554 261.729C273.39 262.102 279.225 261.977 284.937 262.102C290.648 262.102 296.484 262.102 302.195 262.102C305.548 262.102 308.776 261.977 312.004 261.605C312.252 261.605 312.252 261.108 312.004 261.108Z" fill="#263238"/>
<path d="M251.798 521.103C254.654 521.724 333.372 514.647 336.228 512.412C337.345 511.543 336.973 500.12 336.104 486.214C335.98 483.234 335.731 480.13 335.483 476.901C335.235 473.177 334.986 469.452 334.614 465.727C333.248 449.213 330.641 433.445 330.641 433.445L280.479 439.28L283.211 470.197L284.204 481.371L285.322 490.559C285.322 490.559 256.392 506.825 253.536 509.556C250.68 512.288 248.942 520.358 251.798 521.103Z" fill="#F7A9A0"/>
<path d="M251.798 521.103C254.654 521.724 333.372 514.647 336.228 512.412C337.345 511.543 336.973 500.12 336.104 486.214C335.98 483.234 335.731 480.13 335.483 476.902C335.235 473.177 334.986 469.452 334.614 465.727L283.211 470.197L284.204 481.371L285.322 490.559C285.322 490.559 256.392 506.825 253.536 509.556C250.68 512.288 248.942 520.358 251.798 521.103Z" fill="white"/>
<path d="M251.548 521.227C253.411 521.6 286.934 518.868 311.27 516.137C316.857 515.516 322.072 514.895 326.169 514.398C331.881 513.653 335.73 513.033 336.351 512.536C337.716 511.543 336.847 494.657 335.606 476.777L284.079 481.247L285.196 490.559C285.196 490.559 256.142 506.825 253.286 509.556C250.431 512.412 248.692 520.482 251.548 521.227Z" fill="#FE9563"/>
<path d="M252.419 517.999C265.704 516.51 319.218 511.543 332.379 511.046C332.503 511.046 332.503 511.171 332.379 511.171C319.342 513.033 265.704 517.503 252.419 518.248C252.171 518.124 252.171 517.999 252.419 517.999Z" fill="#263238"/>
<path d="M283.085 487.828C288.175 486.338 294.632 486.587 298.977 489.939C299.102 490.063 298.977 490.312 298.729 490.312C293.39 489.194 288.548 488.573 283.085 488.449C282.712 488.449 282.712 487.953 283.085 487.828Z" fill="#263238"/>
<path d="M279.486 490.436C284.576 488.946 291.033 489.194 295.378 492.547C295.503 492.671 295.378 492.919 295.13 492.919C289.791 491.802 284.949 491.181 279.486 491.057C279.237 491.057 279.113 490.56 279.486 490.436Z" fill="#263238"/>
<path d="M276.01 493.043C281.101 491.553 287.557 491.801 291.903 495.153C292.027 495.278 291.903 495.526 291.655 495.526C286.316 494.408 281.473 493.788 276.01 493.664C275.638 493.664 275.638 493.167 276.01 493.043Z" fill="#263238"/>
<path d="M272.407 495.65C277.498 494.16 283.954 494.409 288.3 497.761C288.424 497.885 288.3 498.133 288.052 498.133C282.713 497.016 277.87 496.395 272.407 496.271C272.035 496.271 272.035 495.774 272.407 495.65Z" fill="#263238"/>
<path d="M272.28 476.654C274.019 473.674 277.992 474.543 280.351 476.157C284.2 478.764 287.676 483.11 289.539 487.331C289.539 487.456 289.539 487.456 289.415 487.58C289.415 487.952 289.166 488.449 288.67 488.325C284.2 487.083 279.357 486.338 275.384 483.855C273.025 482.365 270.666 479.509 272.28 476.654ZM282.337 485.097C284.572 485.717 286.683 486.338 288.918 486.959C287.18 484.724 285.441 482.489 283.455 480.503C282.462 479.509 281.468 478.64 280.475 477.771C278.737 476.529 272.404 474.046 273.77 479.633C274.391 482.862 279.73 484.352 282.337 485.097Z" fill="#263238"/>
<path d="M302.701 484.848C298.603 487.083 293.637 487.455 289.043 488.325C288.546 488.449 288.298 487.952 288.298 487.58C288.174 487.58 288.174 487.455 288.174 487.331C290.285 483.234 294.134 479.137 298.107 476.778C300.59 475.288 304.563 474.667 306.177 477.895C307.667 480.875 305.06 483.482 302.701 484.848ZM304.687 480.875C306.55 475.412 299.969 477.274 298.231 478.392C297.113 479.137 295.996 480.006 295.003 480.875C292.892 482.737 291.029 484.848 289.043 486.835C291.278 486.214 293.513 485.966 295.748 485.469C298.355 484.972 303.694 483.979 304.687 480.875Z" fill="#263238"/>
<path d="M244.969 153.583C247.949 156.812 253.039 157.557 256.392 154.701C258.13 158.301 260.986 162.275 266.325 162.771C275.761 163.64 280.106 154.701 280.106 154.701C281.1 154.825 282.962 154.825 283.831 154.701C287.805 154.452 291.778 152.714 293.888 149.238C295.627 146.382 295.999 142.781 294.633 139.801C297.862 139.305 301.959 136.325 302.828 132.724C303.946 128.006 301.338 122.667 297.117 120.06C295.13 118.321 295.627 115.962 294.882 113.727C294.137 111.368 290.164 109.506 288.549 107.519C287.432 106.153 283.956 83.4319 279.734 77.0996C276.382 72.009 271.043 71.1398 270.422 71.0157C270.422 71.0157 245.838 59.7169 239.63 80.8245C238.388 85.1701 240.375 107.271 240.251 108.885C240.126 111.12 238.388 112.734 238.14 114.845C237.767 117.204 239.257 119.811 240.747 122.046C241.616 123.288 241.492 125.026 240.375 126.019C238.885 127.509 237.271 129.868 237.891 133.221C238.388 136.325 240.499 138.311 243.355 139.305C241.616 144.271 241.492 149.734 244.969 153.583Z" fill="#263238"/>
<path d="M300.469 136.077C304.814 133.345 304.193 127.634 301.214 124.157C298.73 121.177 294.136 119.191 294.509 114.721H294.633C294.633 117.825 297.24 119.811 299.475 121.55C301.214 123.04 302.828 124.654 303.697 126.889C305.063 130.241 304.318 134.835 300.717 136.449C300.469 136.449 300.344 136.201 300.469 136.077Z" fill="#263238"/>
<path d="M236.402 133.593C236.278 131.483 237.147 129.744 238.513 128.255C239.506 127.137 240.5 126.144 241.12 124.778C241.617 123.412 241.741 121.922 241.369 120.557C241.369 120.432 241.493 120.432 241.493 120.557C241.99 122.295 241.99 124.033 241.12 125.647C240.127 127.634 238.016 129 237.271 131.11C236.526 133.221 237.147 135.704 238.637 137.318C240.251 139.057 242.61 139.677 244.845 139.677C244.969 139.677 244.969 139.926 244.845 139.926C240.872 140.547 236.651 137.815 236.402 133.593Z" fill="#263238"/>
<path d="M278.74 153.583C283.334 155.446 289.294 156.066 293.143 152.341C297.116 148.617 296.992 142.409 293.391 138.435C293.267 138.311 293.391 138.187 293.515 138.311C297.488 142.036 297.737 148.368 293.888 152.341C290.039 156.439 283.334 156.315 278.616 153.831C278.492 153.707 278.616 153.459 278.74 153.583Z" fill="#263238"/>
<path d="M251.304 128.255C224.858 151.97 200.274 178.044 198.411 191.329C195.68 209.705 206.979 214.92 212.069 214.92C225.975 215.044 251.18 159.047 259.871 137.691C268.439 116.956 257.14 123.04 251.304 128.255Z" fill="#F7A9A0"/>
<path d="M211.448 166.248L240.75 182.265C240.75 182.265 259.126 148.617 263.348 132.973C267.569 117.328 261.361 117.825 247.455 129.869C233.549 142.037 211.448 166.248 211.448 166.248Z" fill="#C7C7C7"/>
<path d="M211.448 166.248L240.75 182.265C240.75 182.265 259.126 148.617 263.348 132.973C267.569 117.328 261.361 117.825 247.455 129.869C233.549 142.037 211.448 166.248 211.448 166.248Z" fill="#FE9563"/>
<path opacity="0.1" d="M263.221 132.973C259 148.617 240.624 182.265 240.624 182.265L213.929 167.614L263.345 121.426C264.959 122.667 265.084 126.392 263.221 132.973Z" fill="black"/>
<path d="M217.405 161.779C228.704 169.477 239.63 174.443 241.865 175.685C241.989 175.685 242.113 175.561 241.989 175.561C239.754 174.443 227.711 166.869 217.529 161.654C217.405 161.53 217.405 161.654 217.405 161.779Z" fill="#263238"/>
<path d="M240.502 193.067L242.116 172.083C242.116 172.083 234.046 166.248 237.026 154.701C238.392 149.238 253.167 126.268 261.982 120.06C270.177 114.1 284.331 121.053 287.932 130.862C294.016 147.499 298.486 155.446 304.446 193.067H240.502Z" fill="#FE9563"/>
<path d="M253.542 168.607C257.267 168.98 260.992 169.601 264.593 170.594C266.455 171.091 268.193 171.587 269.931 172.208C270.801 172.456 271.67 172.829 272.539 173.077C273.408 173.326 274.401 173.574 275.395 173.698C275.519 173.698 275.519 173.822 275.395 173.822C274.401 173.822 273.532 173.822 272.663 173.698C271.794 173.574 270.925 173.45 270.056 173.201C268.193 172.705 266.455 172.208 264.593 171.711C260.868 170.718 257.267 169.725 253.418 168.98C253.294 168.856 253.294 168.607 253.542 168.607Z" fill="#263238"/>
<path d="M244.23 171.835C247.334 171.587 250.438 171.463 253.542 171.463C255.032 171.463 256.646 171.587 258.136 171.835C258.881 171.96 259.626 171.96 260.371 172.084C261.24 172.208 261.985 172.456 262.73 172.456C262.854 172.456 262.854 172.58 262.73 172.58C261.985 172.456 261.24 172.58 260.371 172.58C259.626 172.58 258.881 172.58 258.012 172.456C256.522 172.456 254.908 172.332 253.418 172.332C250.314 172.208 247.21 172.084 244.106 172.084C243.982 172.084 244.106 171.835 244.23 171.835Z" fill="#263238"/>
<path d="M287.187 126.64C312.144 145.886 338.218 178.54 338.59 197.413C338.963 216.037 328.533 214.175 326.795 213.554C308.17 207.718 285.821 156.067 277.627 135.083C269.308 114.1 280.979 121.798 287.187 126.64Z" fill="#F7A9A0"/>
<path d="M327.289 164.137L298.236 180.527C298.236 180.527 279.487 147.127 275.017 131.607C270.547 116.087 276.88 116.459 290.91 128.379C304.816 140.298 327.289 164.137 327.289 164.137Z" fill="#FE9563"/>
<path d="M321.207 159.791C310.032 167.614 299.106 172.828 296.995 174.07C296.871 174.07 296.747 173.946 296.871 173.946C299.106 172.828 311.025 165.13 321.083 159.667C321.207 159.543 321.331 159.667 321.207 159.791Z" fill="#263238"/>
<path d="M300.098 179.409C299.85 179.409 298.608 180.03 298.36 180.154C295.628 174.567 289.296 164.386 286.44 158.923C285.074 156.191 283.709 153.459 282.219 150.728C280.729 147.872 279.487 145.016 277.873 142.285C277.873 142.161 277.749 142.285 277.749 142.409C278.618 145.141 279.859 147.624 281.101 150.231C280.853 149.859 280.604 149.362 280.356 148.99C279.735 148.12 279.115 147.251 278.494 146.382C278.37 146.258 278.121 146.382 278.245 146.506C278.742 147.375 279.239 148.245 279.735 149.238C280.232 150.107 280.729 150.976 281.225 151.845C281.722 152.714 282.343 153.459 282.839 154.329C282.964 154.453 282.964 154.577 283.088 154.577C283.833 156.191 284.578 157.805 285.323 159.419C288.054 165.006 297.739 180.899 297.863 180.899C298.235 180.775 299.85 179.782 299.974 179.658C300.222 179.533 300.222 179.409 300.098 179.409Z" fill="#263238"/>
<path d="M213.424 214.175C221.991 212.933 226.958 196.916 236.518 171.463C238.256 166.993 216.031 141.292 212.927 145.513C209.078 150.728 199.021 179.41 197.904 187.232C196.041 202.628 203.367 215.665 213.424 214.175Z" fill="#F7A9A0"/>
<path d="M226.712 197.288C228.947 193.191 230.81 188.97 232.548 184.748C233.417 182.637 234.162 180.402 234.907 178.292C235.652 176.057 236.273 173.822 236.645 171.587C235.9 173.822 234.907 175.808 234.038 177.919C233.169 180.03 232.3 182.141 231.431 184.251C229.692 188.597 227.954 192.819 226.712 197.288Z" fill="#263238"/>
<path d="M205.976 164.013C207.218 155.322 209.701 143.03 212.805 140.547C216.033 137.815 228.077 128.875 231.429 127.758C234.906 126.516 250.178 120.805 253.033 122.419C255.268 123.785 252.661 129.62 245.335 132.476C238.879 134.959 235.651 137.318 233.788 138.063C231.926 138.808 227.456 144.892 228.573 147.624C229.318 149.238 233.912 151.1 236.768 149.734C239.624 148.493 240.369 142.781 243.597 140.174C246.825 137.567 252.661 137.815 252.909 139.429C253.282 141.043 251.295 141.664 248.439 147.003C246.577 150.355 246.453 158.55 242.107 164.386C239.996 167.365 236.147 175.188 236.147 175.188L205.976 164.013Z" fill="#F7A9A0"/>
<path d="M246.699 137.691C247.692 137.442 248.81 137.194 249.555 136.449C249.927 136.077 250.175 135.704 250.175 135.332C250.175 135.083 250.175 134.835 250.175 134.587C250.175 134.338 250.051 134.09 249.927 133.842C249.927 133.718 249.927 133.842 249.927 133.842C250.051 133.966 250.051 134.09 250.175 134.214C250.3 134.338 250.3 134.463 250.3 134.587C250.424 134.835 250.424 135.083 250.424 135.332C250.424 135.828 250.175 136.325 249.803 136.822C249.182 137.567 247.941 137.815 246.699 137.691C246.575 137.691 246.575 137.691 246.699 137.691Z" fill="#263238"/>
<path d="M212.801 140.422C215.532 136.077 222.734 128.254 229.811 125.523C234.529 123.66 250.918 131.731 250.422 134.835C249.925 137.939 247.194 137.939 242.972 137.442C241.482 137.318 233.536 134.338 232.17 136.077C230.183 138.436 227.7 146.754 227.7 146.754L212.801 140.422Z" fill="#F7A9A0"/>
<path d="M250.054 133.593C248.067 130.241 243.597 128.503 239.127 127.013C239.003 127.013 239.003 127.137 239.127 127.137C240.245 127.509 247.446 130.862 250.054 133.593C249.929 133.717 250.054 133.717 250.054 133.593Z" fill="#263238"/>
<path d="M212.809 140.423C215.541 136.077 222.742 128.255 229.819 125.523C234.538 123.661 247.575 133.966 247.078 137.07C246.581 140.174 242.608 140.423 238.138 138.933C236.648 138.436 231.93 135.084 230.564 136.698C228.578 139.057 223.86 145.017 223.86 145.017L212.809 140.423Z" fill="#F7A9A0"/>
<path d="M226.464 141.416C226.961 140.671 227.085 140.546 227.582 139.801C228.078 139.181 228.451 138.436 229.071 137.815C229.568 137.318 229.941 136.697 230.561 136.325C231.182 135.952 231.803 135.828 232.548 135.952C234.038 136.077 235.528 137.07 236.769 137.815C238.259 138.684 241.239 140.05 243.598 139.801C244.219 139.677 244.84 139.677 245.461 139.305C245.833 139.057 246.33 138.808 246.578 138.436C247.572 136.697 246.33 134.835 245.088 133.345C242.729 130.738 239.501 128.875 236.397 127.385C235.652 127.013 234.907 126.64 234.038 126.268C233.169 125.895 232.176 125.523 231.182 125.399C229.568 125.399 226.961 127.013 226.092 127.509C225.967 127.509 225.967 127.385 226.092 127.385C227.085 126.764 229.568 124.778 232.175 124.902C233.169 124.902 234.038 125.399 234.907 125.771C235.776 126.144 236.645 126.64 237.639 127.013C239.377 127.882 240.991 128.875 242.605 129.993C244.095 131.11 245.709 132.228 246.702 133.842C247.572 135.207 247.82 137.07 246.951 138.436C246.206 139.677 244.716 139.926 243.971 140.05C243.226 140.174 242.605 140.174 241.86 140.05C241.115 139.926 238.508 139.181 237.39 138.684C236.025 138.063 234.659 137.194 233.293 136.697C232.548 136.449 231.803 136.449 231.182 136.822C230.561 137.194 230.065 137.815 229.568 138.312C228.451 139.429 227.83 140.174 226.961 141.416C226.464 141.788 226.216 141.664 226.464 141.416Z" fill="#263238"/>
<path d="M210.694 144.271C211.687 142.161 213.425 133.594 215.164 130.986C216.778 128.379 224.352 119.315 227.952 119.687C232.422 120.184 227.704 128.13 225.469 131.483C223.11 134.711 223.483 140.298 223.483 140.298L210.694 144.271Z" fill="#F7A9A0"/>
<path d="M228.57 126.019C227.701 127.012 226.956 128.254 226.335 129.371C225.715 130.489 224.845 131.482 224.349 132.6C223.852 133.717 223.604 134.959 223.48 136.2C223.48 136.821 223.356 137.442 223.356 138.063C223.356 138.684 223.356 139.429 223.356 140.049C223.356 140.173 223.48 140.173 223.48 140.049C223.48 138.808 223.728 137.566 223.976 136.324C224.225 135.083 224.597 133.841 225.094 132.724C226.087 130.365 227.701 128.378 228.694 126.019C228.819 126.019 228.694 125.895 228.57 126.019Z" fill="#263238"/>
<path d="M223.482 141.292C223.233 143.402 223.978 145.513 224.723 147.5C225.468 149.486 226.71 151.349 227.952 152.963C229.193 154.577 230.311 156.315 231.18 158.178C232.049 160.04 232.421 162.151 232.794 164.137C232.918 162.027 232.546 159.916 231.925 157.929C231.304 155.943 230.062 154.08 228.821 152.342C227.455 150.728 226.462 148.99 225.468 147.127C224.972 146.258 224.599 145.265 224.227 144.271C223.854 143.278 223.606 142.285 223.482 141.292Z" fill="#263238"/>
<path d="M276.379 121.674C276.13 123.04 270.419 132.849 262.597 132.476C258.127 132.228 261.107 123.164 261.107 123.164L257.133 110.872L271.909 99.3252C271.909 99.4494 276.503 121.054 276.379 121.674Z" fill="#F7A9A0"/>
<path d="M273.644 107.52C270.912 116.584 264.207 120.929 260.979 122.543L257.13 110.996L271.905 99.4492C271.905 99.4492 272.65 103.05 273.644 107.52Z" fill="#263238"/>
<path d="M239.381 93.862C239.133 114.97 251.797 117.577 256.391 117.577C260.489 117.577 274.643 117.204 277.126 96.2211C279.61 75.2377 269.801 68.4088 260.364 67.788C250.804 67.1672 239.629 72.6303 239.381 93.862Z" fill="#F7A9A0"/>
<path d="M245.209 92.1236C245.705 91.9995 246.078 91.8753 246.575 91.7511C247.071 91.627 247.568 91.5028 247.94 91.0062C248.189 90.7578 248.065 90.2612 247.816 90.137C247.32 89.6404 246.575 89.6404 245.954 89.8887C245.209 90.137 244.712 90.3853 244.34 91.0062C243.967 91.5028 244.588 92.2478 245.209 92.1236Z" fill="#263238"/>
<path d="M259.616 90.8817C259.119 90.8817 258.623 90.7576 258.126 90.7576C257.63 90.6334 257.133 90.6334 256.636 90.2609C256.388 90.0126 256.388 89.6401 256.512 89.3918C256.885 88.771 257.63 88.771 258.25 88.771C258.995 88.8952 259.492 89.0193 260.113 89.6401C260.734 90.0126 260.237 90.8817 259.616 90.8817Z" fill="#263238"/>
<path d="M257.124 96.4688C257.249 96.5929 257.124 96.4688 257.124 96.4688C257.249 98.0829 257.621 99.697 258.863 100.069V100.194C257.249 100.069 256.876 97.8345 257.124 96.4688Z" fill="#263238"/>
<path d="M258.241 94.8544C260.6 94.4819 260.972 99.2001 258.861 99.4484C256.751 99.8209 256.378 95.2269 258.241 94.8544Z" fill="#263238"/>
<path d="M259.239 95.103C259.611 95.3513 260.108 95.7238 260.605 95.7238C261.225 95.7238 261.598 95.2271 261.846 94.7305H261.97C262.095 95.5996 261.846 96.5929 260.853 96.8412C259.984 97.0896 259.239 96.3446 258.991 95.4754C258.866 95.2271 258.991 94.9788 259.239 95.103Z" fill="#263238"/>
<path d="M248.434 97.2139L248.31 97.338C248.558 98.7038 248.558 100.442 247.317 101.063V101.187C248.807 100.69 248.807 98.4555 248.434 97.2139Z" fill="#263238"/>
<path d="M246.945 95.8481C244.586 95.9723 244.959 100.566 247.069 100.442C249.304 100.442 248.932 95.7239 246.945 95.8481Z" fill="#263238"/>
<path d="M246.076 96.2208C245.703 96.4692 245.455 96.9658 244.958 96.9658C244.461 97.09 244.089 96.5933 243.717 96.0967H243.592C243.592 96.9658 243.965 97.8349 244.834 97.9591C245.579 98.0833 246.2 97.2141 246.324 96.345C246.324 96.345 246.2 96.0967 246.076 96.2208Z" fill="#263238"/>
<path d="M257.252 108.016C257.003 108.389 256.631 108.885 256.134 109.009C255.637 109.134 255.017 109.009 254.52 108.885C254.52 108.885 254.396 108.885 254.52 109.009C255.017 109.506 255.762 109.754 256.507 109.506C257.127 109.258 257.376 108.637 257.5 108.016C257.376 108.016 257.376 107.892 257.252 108.016Z" fill="#263238"/>
<path d="M250.799 103.298C250.799 103.298 250.675 105.408 250.799 106.526C250.799 106.65 251.047 106.65 251.42 106.65C253.282 106.774 255.02 106.029 255.89 104.415C255.89 104.291 255.765 104.167 255.765 104.291C254.524 105.408 253.034 105.781 251.544 105.905C251.42 105.657 251.792 102.18 251.668 102.18C251.171 102.18 250.054 102.677 249.433 102.925C249.557 98.4552 250.302 93.8612 250.302 89.3914C250.302 89.2673 250.054 89.1431 250.054 89.3914C248.937 93.9854 248.688 99.2002 248.44 103.918C248.44 104.539 250.426 103.546 250.799 103.298Z" fill="#263238"/>
<path d="M252.041 106.029C252.041 106.029 253.034 107.147 254.152 107.519C254.648 107.644 255.145 107.644 255.517 107.519C256.511 107.147 256.511 106.278 256.262 105.409C256.138 104.788 255.766 104.167 255.766 104.167C255.766 104.167 254.4 105.781 252.041 106.029Z" fill="#263238"/>
<path d="M254.152 107.519C254.648 107.643 255.145 107.643 255.517 107.519C256.511 107.146 256.511 106.277 256.262 105.408C255.269 105.657 254.276 106.526 254.152 107.519Z" fill="#FF9ABB"/>
<path d="M276.007 95.7243C272.655 96.4693 271.041 88.6471 271.041 88.6471C271.041 88.6471 264.088 89.6404 260.487 79.9558C260.487 79.9558 261.232 84.5498 264.709 87.778C264.709 87.778 252.292 88.8954 245.712 79.335C245.712 79.335 248.443 84.3014 250.678 85.7914C250.678 85.7914 245.339 85.0464 242.359 81.1974C242.359 81.1974 240.994 87.4055 239.628 89.2679C239.628 89.2679 237.269 67.9121 257.259 67.5396C257.259 67.5396 269.675 66.6704 275.511 75.8584C281.222 85.0464 276.007 95.7243 276.007 95.7243Z" fill="#263238"/>
<path d="M273.525 96.3453C273.525 96.3453 277.622 89.3922 280.726 90.8822C283.83 92.2479 281.099 102.057 277.622 103.671C274.27 105.285 272.656 102.057 272.656 102.057L273.525 96.3453Z" fill="#F7A9A0"/>
<path d="M279.858 93.6138C279.982 93.6138 279.982 93.7379 279.858 93.6138C277.499 94.8554 276.381 97.2145 275.636 99.6977C276.257 98.7044 277.25 98.2078 278.492 98.9527C278.616 98.9527 278.492 99.0769 278.492 99.0769C277.499 98.9527 276.754 99.2011 276.133 100.07C275.636 100.691 275.388 101.436 275.14 102.057C275.015 102.305 274.643 102.181 274.643 101.933C274.395 98.8286 276.505 94.2346 279.858 93.6138Z" fill="#263238"/>
<path d="M257.634 131.979L269.678 168.11C270.175 169.104 269.678 170.097 268.561 170.221L249.564 171.587C248.446 171.711 247.205 170.842 246.832 169.849L234.788 133.717C234.292 132.724 234.788 131.731 235.906 131.607L254.903 130.241C255.896 130.117 257.138 130.986 257.634 131.979Z" fill="#37474F"/>
<path d="M255.4 132.104L267.444 168.235C267.94 169.228 267.444 170.221 266.326 170.346L247.329 171.711C246.212 171.835 244.97 170.966 244.598 169.973L232.554 133.842C232.057 132.849 232.554 131.855 233.672 131.731L252.668 130.365C253.662 130.241 254.903 131.11 255.4 132.104Z" fill="#455A64"/>
<path d="M250.309 134.214C250.433 135.083 251.178 135.704 252.047 135.704C252.916 135.58 253.537 134.835 253.537 133.966C253.413 133.096 252.668 132.476 251.799 132.476C250.929 132.476 250.184 133.345 250.309 134.214Z" fill="#263238"/>
<path d="M330.639 212.188C322.32 213.429 311.891 207.097 284.823 187.728C281.098 184.996 292.894 153.583 296.991 156.191C302.206 159.543 321.699 173.698 323.065 174.815C334.115 184.996 336.226 211.319 330.639 212.188Z" fill="#F7A9A0"/>
<path d="M306.804 165.503C306.804 165.503 299.106 154.825 293.27 150.479C285.448 144.644 276.384 142.781 272.535 142.285C264.464 141.167 244.226 144.023 243.978 150.107C243.854 155.57 264.34 151.473 264.34 151.473C264.34 151.473 242.736 152.093 243.729 158.674C244.723 165.255 268.313 159.171 268.313 159.171C268.313 159.171 246.088 160.288 248.199 166.869C249.813 171.835 271.542 167.614 271.542 167.614C271.542 167.614 252.421 168.731 253.911 173.946C255.525 179.657 275.763 177.05 275.763 177.05C281.599 189.715 289.545 193.315 295.381 195.178C296.746 195.798 306.804 165.503 306.804 165.503Z" fill="#F7A9A0"/>
<path d="M271.792 150.852C269.185 150.852 266.702 150.852 264.094 150.976C261.611 151.224 259.004 151.472 256.521 151.969C250.312 153.086 246.712 154.701 246.96 154.576C252.547 152.714 261.735 151.845 264.219 151.721C266.702 151.472 269.309 151.1 271.792 150.852C271.917 150.976 271.917 150.852 271.792 150.852Z" fill="#263238"/>
<path d="M272.662 160.039C269.434 160.163 266.206 160.163 262.978 160.412C259.749 160.66 256.645 161.157 253.541 161.653C253.293 161.653 253.417 161.777 253.666 161.777C256.894 161.405 259.874 161.405 263.102 161.032C266.33 160.66 269.558 160.287 272.662 160.039C272.786 160.039 272.786 160.039 272.662 160.039Z" fill="#263238"/>
<path d="M274.897 167.737C269.93 167.613 264.964 168.482 260.121 169.476C259.873 169.476 259.997 169.724 260.246 169.6C265.212 168.979 269.061 168.358 274.897 167.862C275.021 167.862 275.021 167.737 274.897 167.737Z" fill="#263238"/>
<path d="M315.616 169.228C317.603 170.842 319.589 172.58 321.452 174.195C323.314 175.933 325.301 177.547 326.542 179.782C327.908 181.893 328.901 184.252 330.019 186.611C330.515 187.728 331.012 188.97 331.384 190.211C331.881 191.453 332.129 192.695 332.502 193.936C332.254 191.329 331.509 188.846 330.64 186.362C329.77 183.879 328.653 181.52 327.287 179.285C325.921 177.05 323.811 175.312 321.824 173.698C319.962 172.084 317.851 170.594 315.616 169.228Z" fill="#263238"/>
<path d="M211.135 46.5572L198.438 64.7969C197.027 66.8123 194.105 66.7116 192.795 64.6961L180.5 45.751L211.135 46.5572Z" fill="#FE9563"/>
<path d="M128.906 51.797H268.778C274.925 51.797 279.863 46.8591 279.863 40.712V12.0927C279.863 5.94565 274.925 1.00781 268.778 1.00781H129.007C122.86 1.00781 117.922 5.94565 117.922 12.0927V40.712C117.821 46.8591 122.86 51.797 128.906 51.797Z" fill="#FE9563"/>
<path d="M204.255 23.3877C205.465 21.2714 207.379 20.9691 208.589 21.3722C209.999 21.8761 210.705 23.3877 210.705 23.3877C210.705 23.3877 211.41 21.9768 212.821 21.3722C214.131 20.8683 216.046 21.1707 217.154 23.3877C219.573 27.8216 210.604 33.5656 210.604 33.5656C210.604 33.5656 201.837 27.8216 204.255 23.3877Z" fill="white"/>
<path d="M162.518 26.6042C162.518 22.9764 165.44 20.1548 168.967 20.1548C172.595 20.1548 175.417 23.0772 175.417 26.6042C175.417 30.232 172.494 33.0536 168.967 33.0536C167.859 33.0536 166.851 32.7513 166.045 32.3482L162.518 32.8521L163.425 29.8289C162.82 28.922 162.518 27.8135 162.518 26.6042Z" fill="white"/>
<path d="M261.517 32.6505H248.921C248.921 32.6505 250.13 27.8135 255.269 27.8135C260.711 27.9142 261.517 32.6505 261.517 32.6505Z" fill="white"/>
<path d="M251.837 23.7827C251.837 25.6974 253.348 27.2089 255.263 27.2089C257.177 27.2089 258.689 25.6974 258.689 23.7827C258.689 21.868 257.177 20.3564 255.263 20.3564C253.348 20.3564 251.837 21.868 251.837 23.7827Z" fill="white"/>
<path d="M138.18 29.1235C138.18 30.9374 136.971 32.3482 134.351 32.3482C132.738 32.3482 131.328 31.7436 130.521 30.9374L130.925 30.3328C131.529 31.139 132.839 31.6428 134.351 31.6428C136.366 31.6428 137.374 30.6351 137.374 29.2243C137.374 27.7127 136.467 26.705 133.545 26.705H131.328L131.932 21.4648H137.676V22.1702H132.638L132.235 25.9996H133.746C136.971 25.8988 138.18 27.2089 138.18 29.1235Z" fill="white"/>
<path d="M139.687 26.806C139.687 23.3797 141.4 21.3643 143.919 21.3643C146.438 21.3643 148.152 23.4805 148.152 26.806C148.152 30.2322 146.438 32.2476 143.919 32.2476C141.4 32.3484 139.687 30.2322 139.687 26.806ZM147.345 26.806C147.345 23.7828 145.935 22.0697 143.919 22.0697C141.904 22.0697 140.493 23.7828 140.493 26.806C140.493 29.8291 141.904 31.5422 143.919 31.5422C145.935 31.5422 147.345 29.8291 147.345 26.806Z" fill="white"/>
<path d="M153.493 27.9146L151.377 29.8293V32.2478H150.571V20.7598H151.377V28.8215L156.517 24.0852H157.524L154.098 27.31L157.927 32.147H157.02L153.493 27.9146Z" fill="white"/>
<path d="M191.088 31.6424V32.3478H183.429V31.7432L188.165 27.1077C189.475 25.7976 189.778 24.9914 189.778 24.1853C189.778 22.7745 188.77 21.8675 186.956 21.8675C185.545 21.8675 184.537 22.2706 183.731 23.1776L183.127 22.6737C183.933 21.666 185.344 21.1621 186.956 21.1621C189.173 21.1621 190.584 22.2706 190.584 24.0845C190.584 25.193 190.281 26.0999 188.77 27.5108L184.638 31.6424H191.088Z" fill="white"/>
<path d="M196.428 27.914L194.211 29.9294V32.4487H193.405V20.5576H194.211V28.9217L199.552 24.0846H200.559L196.932 27.4101L200.862 32.348H199.854L196.428 27.914Z" fill="white"/>
<path d="M237.139 29.5266C237.139 31.3405 235.829 32.7513 233.209 32.7513C231.596 32.7513 230.085 32.1467 229.279 31.2397L229.682 30.6351C230.387 31.4413 231.697 32.0459 233.209 32.0459C235.224 32.0459 236.333 31.139 236.333 29.5266C236.333 28.015 235.325 27.0073 233.108 27.0073H232.402V26.4027L235.728 22.1702H229.682V21.4648H236.635V22.0695L233.309 26.4027C235.829 26.5035 237.139 27.7127 237.139 29.5266Z" fill="white"/>
<path d="M242.579 28.2167L240.362 30.2322V32.7515H239.556V20.8604H240.362V29.2244L245.703 24.3874H246.711L243.083 27.7129L247.013 32.6507H246.005L242.579 28.2167Z" fill="white"/>
<path d="M401.169 129.492H425.556C432.005 129.492 437.245 124.252 437.245 117.802V106.415C437.245 99.9657 432.005 94.7256 425.556 94.7256H401.169C394.719 94.7256 389.479 99.9657 389.479 106.415V117.802C389.58 124.252 394.719 129.492 401.169 129.492Z" fill="#FE9563"/>
<path d="M404.088 108.935C405.6 106.113 408.119 105.71 409.832 106.315C411.646 107.02 412.654 108.935 412.654 108.935C412.654 108.935 413.662 107.02 415.476 106.315C417.189 105.71 419.708 106.113 421.22 108.935C424.444 114.78 412.654 122.338 412.654 122.338C412.654 122.338 400.864 114.78 404.088 108.935Z" fill="white"/>
<path d="M454.98 396.942L444.097 412.561C442.888 414.275 440.368 414.275 439.26 412.461L428.679 396.236L454.98 396.942Z" fill="#FE9563"/>
<path d="M430.392 405.508H454.88C461.329 405.508 466.569 400.267 466.569 393.818V382.431C466.569 375.981 461.329 370.741 454.88 370.741H430.493C424.044 370.741 418.803 375.981 418.803 382.431V393.818C418.803 400.267 424.044 405.508 430.392 405.508Z" fill="#FE9563"/>
<path d="M433.312 384.95C434.824 382.128 437.343 381.725 439.056 382.329C440.87 383.035 441.878 384.95 441.878 384.95C441.878 384.95 442.885 383.035 444.699 382.329C446.412 381.725 448.932 382.128 450.443 384.95C453.668 390.794 441.878 398.352 441.878 398.352C441.878 398.352 430.087 390.794 433.312 384.95Z" fill="white"/>
<path d="M436.167 270.157L418.53 295.353C416.57 298.152 412.511 298.012 410.691 295.213L393.614 268.897L436.167 270.157Z" fill="#455A64"/>
<path d="M393.619 284.155H438.691C447.65 284.155 454.929 276.877 454.929 267.918V243.982C454.929 235.024 447.65 227.745 438.691 227.745H393.619C384.661 227.745 377.382 235.024 377.382 243.982V267.918C377.522 276.877 384.661 284.155 393.619 284.155Z" fill="#455A64"/>
<path d="M401.035 250.842C403.554 246.363 407.614 245.663 410.413 246.643C413.353 247.762 415.032 250.842 415.032 250.842C415.032 250.842 416.572 247.762 419.652 246.643C422.451 245.663 426.51 246.363 429.03 250.842C434.209 260.36 415.032 272.678 415.032 272.678C415.032 272.678 395.856 260.22 401.035 250.842Z" fill="white"/>
<path d="M451.07 178.467L453.892 178.87L461.046 171.111L461.752 165.568C461.752 165.568 466.085 165.871 464.674 173.126C463.263 180.382 464.07 178.568 464.07 178.568C464.07 178.568 473.24 179.777 473.945 180.684C474.449 181.289 473.542 190.459 473.038 195.498C472.736 198.017 470.922 200.133 468.604 200.436C468.302 200.436 467.899 200.436 467.597 200.436C465.279 200.133 453.791 196.808 453.791 196.808L448.954 196.203L451.07 178.467Z" fill="#FE9563"/>
<path d="M443.289 175.948L442.583 195.296L447.319 195.901L449.738 177.157L443.289 175.948Z" fill="#FE9563"/>
<path d="M482.058 285.185L481.352 286.394C480.647 287.704 479.539 288.813 478.128 289.619L476.919 290.324L478.128 291.03C479.438 291.735 480.546 292.844 481.352 294.255L482.058 295.464L482.763 294.255C483.469 292.945 484.577 291.836 485.988 291.03L487.197 290.324L485.988 289.619C484.678 288.914 483.569 287.805 482.763 286.394L482.058 285.185Z" fill="#FE9563"/>
<path d="M505.219 325.292L504.715 326.3C504.11 327.408 503.203 328.315 502.095 328.92L501.087 329.424L502.095 329.928C503.203 330.532 504.11 331.439 504.715 332.548L505.219 333.555L505.723 332.548C506.327 331.439 507.234 330.532 508.343 329.928L509.351 329.424L508.343 328.92C507.234 328.315 506.327 327.408 505.723 326.3L505.219 325.292Z" fill="#FE9563"/>
<path d="M470.541 354.416L469.433 356.331C468.223 358.548 466.409 360.261 464.293 361.47L462.379 362.579L464.293 363.687C466.51 364.896 468.223 366.71 469.433 368.826L470.541 370.741L471.65 368.826C472.859 366.609 474.673 364.896 476.789 363.687L478.704 362.579L476.789 361.47C474.572 360.261 472.859 358.447 471.65 356.331L470.541 354.416Z" fill="#455A64"/>
<path d="M449.588 59.6572L448.379 61.975C446.968 64.5951 444.852 66.7113 442.232 68.1221L439.914 69.3313L442.232 70.5406C444.852 71.9514 446.968 74.0676 448.379 76.6877L449.588 79.0055L450.797 76.6877C452.208 74.0676 454.324 71.9514 456.944 70.5406L459.262 69.3313L456.944 68.1221C454.324 66.7113 452.208 64.5951 450.797 61.975L449.588 59.6572Z" fill="#455A64"/>
<path d="M473.972 48.3706L473.469 49.3783C472.864 50.4868 471.957 51.3938 470.849 51.9984L469.841 52.5023L470.849 53.0061C471.957 53.6108 472.864 54.5177 473.469 55.6262L473.972 56.6339L474.476 55.6262C475.081 54.5177 475.988 53.6108 477.096 53.0061L478.104 52.5023L477.096 51.9984C475.988 51.3938 475.081 50.4868 474.476 49.3783L473.972 48.3706Z" fill="#FE9563"/>
</svg>
