<svg width="32" height="32" viewBox="0 0 32 32" fill="none" xmlns="http://www.w3.org/2000/svg">
<path d="M16.1285 0.745605C7.63075 0.745605 0.745728 7.63062 0.745728 16.1283C0.745728 24.6261 7.63075 31.5111 16.1285 31.5111C24.6262 31.5111 31.5112 24.6261 31.5112 16.1283C31.5112 7.63062 24.6262 0.745605 16.1285 0.745605ZM21.0906 11.1662C22.1885 11.1662 23.0755 12.0532 23.0755 13.151C23.0755 14.2489 22.1885 15.1359 21.0906 15.1359C19.9928 15.1359 19.1058 14.2489 19.1058 13.151C19.1058 12.0532 19.9928 11.1662 21.0906 11.1662ZM11.1663 11.1662C12.2642 11.1662 13.1512 12.0532 13.1512 13.151C13.1512 14.2489 12.2642 15.1359 11.1663 15.1359C10.0684 15.1359 9.18143 14.2489 9.18143 13.151C9.18143 12.0532 10.0684 11.1662 11.1663 11.1662ZM23.2492 21.7232C21.4814 23.8445 18.8887 25.0603 16.1285 25.0603C13.3683 25.0603 10.7755 23.8445 9.00775 21.7232C8.16418 20.7122 9.69005 19.4468 10.5336 20.4516C11.923 22.1202 13.9575 23.0692 16.1285 23.0692C18.2994 23.0692 20.3339 22.114 21.7233 20.4516C22.5545 19.4468 24.0866 20.7122 23.2492 21.7232Z" fill="#FAFBFC"/>
</svg>
