<svg width="21" height="26" viewBox="0 0 21 26" fill="none" xmlns="http://www.w3.org/2000/svg">
<path d="M12.5999 4.19971C17.2294 4.19971 20.9995 7.96799 20.9995 12.6042C20.9995 17.2307 17.2294 20.9989 12.5999 20.9989C7.97041 20.9989 4.20032 17.2307 4.20032 12.6042C4.20032 7.96799 7.97041 4.19971 12.5999 4.19971ZM11.6432 9.2646C11.4648 9.2646 11.2946 9.30512 11.1324 9.38615C10.9297 9.49961 10.7676 9.67789 10.6784 9.88859C10.6216 10.0345 10.5325 10.4721 10.5325 10.4802C10.4433 10.9583 10.3946 11.7363 10.3946 12.5953C10.3946 13.4146 10.4433 14.1593 10.5162 14.6455C10.5244 14.6536 10.6135 15.1966 10.7108 15.383C10.8892 15.7233 11.2378 15.934 11.6108 15.934H11.6432C11.8865 15.9259 12.3972 15.7152 12.3972 15.7071C13.2567 15.3506 14.9512 14.2403 15.6322 13.5029L15.6809 13.4543C15.7701 13.3651 15.8836 13.2274 15.9079 13.195C16.0376 13.0248 16.1025 12.8141 16.1025 12.6042C16.1025 12.3684 16.0295 12.1496 15.8917 11.9713C15.8592 11.9389 15.7376 11.8011 15.6241 11.6876C14.9593 10.9745 13.2242 9.80755 12.3162 9.45099C12.1783 9.39507 11.8297 9.2727 11.6432 9.2646Z" fill="#FE9C69"/>
<path fill-rule="evenodd" clip-rule="evenodd" d="M12.5998 5.82168e-09C12.5997 5.82168e-09 12.5995 0 12.5994 0C5.64095 0 0 5.64095 0 12.5994C0 19.5579 5.64095 25.1988 12.5994 25.1988C12.5995 25.1988 12.5997 25.1988 12.5998 25.1988V23.5189C12.5997 23.5189 12.5995 23.5189 12.5994 23.5189C6.56875 23.5189 1.67992 18.6301 1.67992 12.5994C1.67992 6.56875 6.56875 1.67992 12.5994 1.67992C12.5995 1.67992 12.5997 1.67992 12.5998 1.67992V5.82168e-09Z" fill="#FE9C69"/>
</svg>
