<svg width="502" height="516" viewBox="0 0 502 516" fill="none" xmlns="http://www.w3.org/2000/svg">
<g clip-path="url(#clip0_2_7143)">
<path d="M412.657 417.401H453.111V404.53H412.657V417.401Z" fill="#EBEBEB"/>
<path d="M167.102 210.148H207.555V197.276H167.102V210.148Z" fill="#EBEBEB"/>
<path d="M435.337 433.728C442.002 433.614 459.241 433.384 465.677 433.269H475.675L475.101 433.843V420.972L475.675 421.546C469.01 421.546 451.886 421.431 445.335 421.317L435.222 421.202L435.452 420.972L435.337 433.728ZM435.337 433.728L435.107 420.857V420.627H435.337C440.393 420.512 450.507 420.397 455.564 420.397L475.79 420.282H476.365V420.857V433.728V434.303H475.79H465.562C459.126 434.073 442.002 433.843 435.337 433.728Z" fill="#EBEBEB"/>
<path d="M243.182 337.766C249.848 337.651 267.087 337.421 273.523 337.306H283.521L282.947 337.881V325.009L283.521 325.584C276.856 325.584 259.732 325.469 253.181 325.354L243.067 325.239L243.297 325.009L243.182 337.766ZM243.182 337.766L242.953 324.894V324.664H243.182C248.239 324.549 258.353 324.434 263.409 324.434L283.636 324.32H284.211V324.894V337.766V338.34H283.636H273.408C266.972 338.226 249.848 337.881 243.182 337.766Z" fill="#FE9563"/>
<path d="M265.707 353.97C272.373 353.855 289.612 353.625 296.047 353.511H306.046L305.471 354.085V341.213L306.046 341.788C299.38 341.788 282.256 341.673 275.706 341.558L265.592 341.443L265.822 341.213L265.707 353.97ZM265.707 353.97L265.477 341.099V340.869H265.707C270.764 340.754 280.877 340.639 285.934 340.639L306.161 340.524H306.735V341.099V353.97V354.545H306.161H295.932C289.497 354.43 272.373 354.085 265.707 353.97Z" fill="#FE9563"/>
<path d="M288.134 337.86H328.587V324.988H288.134V337.86Z" fill="#FE9563"/>
<path d="M0.27808 433.628H40.7318V420.756H0.27808V433.628Z" fill="#FE9563"/>
<path d="M22.7155 20.7637L63.1692 20.7637V7.89203L22.7155 7.89203V20.7637Z" fill="#FE9563"/>
<path d="M0.229118 36.8911L20.5709 36.5463L30.5694 36.4314H40.5679L39.9933 37.006V24.1344L40.5679 24.709L20.3411 24.5941L10.3426 24.4792L0.229118 24.3642L0.458969 24.1344L0.229118 36.8911ZM0.229118 36.8911L-0.000732422 24.0195V23.7896H0.229118L10.3426 23.6747L20.456 23.5598L40.6828 23.4448H41.2575V24.0195V36.8911V37.4657H40.6828H30.4545L20.3411 37.3508L0.229118 36.8911Z" fill="#FE9563"/>
<path d="M412.811 20.6865L433.153 20.3417L443.152 20.2268H453.15L452.576 20.8014V7.92979L453.15 8.50441L432.923 8.38949L422.81 8.27456L412.696 8.15964L412.926 7.92979L412.811 20.6865ZM412.811 20.6865L412.582 7.81486V7.58501H412.811L422.925 7.47008L433.038 7.35516L453.265 7.24023H453.84V7.81486V20.6865V21.2611H453.265H443.037L432.923 21.1462L412.811 20.6865Z" fill="#FE9563"/>
<path d="M332.249 463.494H466.482L470.735 378.334H327.997L332.249 463.494Z" fill="#53595B"/>
<path d="M337.422 388.333H457.979L456.14 416.834H338.916L337.422 388.333Z" stroke="#DBDBDB" stroke-width="1.14925" stroke-miterlimit="10"/>
<path d="M341.1 425.224L342.364 450.852H454.531L456.14 425.224H341.1Z" stroke="#DBDBDB" stroke-width="1.14925" stroke-miterlimit="10"/>
<path d="M410.629 405.227H386.495L385.805 399.136H411.433L410.629 405.227Z" stroke="#DBDBDB" stroke-width="1.14925" stroke-miterlimit="10"/>
<path d="M410.629 441.084H386.495L385.805 434.993H411.433L410.629 441.084Z" stroke="#DBDBDB" stroke-width="1.14925" stroke-miterlimit="10"/>
<path d="M350.867 463.494L349.603 472.803L346.96 491.421H341.788V463.494H350.867Z" fill="#53595B"/>
<path d="M350.867 463.494L349.603 472.803H341.788V463.494H350.867Z" fill="#455A64"/>
<path d="M447.864 463.494L449.128 472.803L451.772 491.421H456.943V463.494H447.864Z" fill="#53595B"/>
<path d="M447.864 463.494L449.128 472.803H456.943V463.494H447.864Z" fill="#455A64"/>
<path d="M477.974 0.574707H285.934V165.608H477.974V0.574707Z" stroke="#FE9563" stroke-width="1.14925" stroke-miterlimit="10"/>
<path d="M294.898 6.32097C294.898 7.58515 293.864 8.61948 292.6 8.61948C291.335 8.61948 290.301 7.58515 290.301 6.32097C290.301 5.05679 291.335 4.02246 292.6 4.02246C293.864 4.02246 294.898 5.05679 294.898 6.32097Z" fill="#A6A6A6"/>
<path d="M304.552 6.32097C304.552 7.58515 303.518 8.61948 302.254 8.61948C300.99 8.61948 299.955 7.58515 299.955 6.32097C299.955 5.05679 300.99 4.02246 302.254 4.02246C303.518 4.02246 304.552 5.05679 304.552 6.32097Z" fill="#EBEBEB"/>
<path d="M314.091 6.32097C314.091 7.58515 313.056 8.61948 311.792 8.61948C310.528 8.61948 309.494 7.58515 309.494 6.32097C309.494 5.05679 310.528 4.02246 311.792 4.02246C313.056 4.02246 314.091 5.05679 314.091 6.32097Z" fill="#FE9563"/>
<path d="M285.934 12.0674H477.859" stroke="#FE9563" stroke-width="1.14925" stroke-miterlimit="10"/>
<path d="M412.467 363.854C413.386 370.29 413.042 376.955 411.433 383.276C410.743 386.264 409.709 389.023 408.445 391.896C406.951 395.458 405.342 398.906 405.686 402.814C406.031 403.044 404.767 403.044 404.767 402.699C394.424 396.838 381.092 395.688 373.163 386.035C369.37 381.438 367.531 375.691 366.612 369.83C365.577 363.509 365.348 356.499 366.957 350.293C368.336 345.006 371.439 339.95 376.38 337.421C381.437 334.778 388.103 335.008 393.504 336.617C405.112 340.179 410.858 352.706 412.467 363.854Z" fill="#FE9563"/>
<path d="M417.754 440.624C416.375 435.912 414.88 431.2 413.501 426.488C410.628 417.294 407.755 408.1 404.422 399.021C402.469 393.62 400.4 388.218 398.216 382.932C398.561 379.599 398.791 376.266 399.48 372.933C400.4 368.911 401.549 365.003 402.813 361.096C402.928 360.866 402.469 360.751 402.354 360.981C400.055 366.382 396.952 373.278 396.952 379.714C394.424 373.738 391.666 367.761 388.792 361.9C388.677 356.959 388.448 352.017 389.252 347.075C389.252 346.845 388.907 346.73 388.907 346.96C388.103 351.212 387.528 355.694 387.873 360.061C385.689 355.694 383.276 351.327 380.748 347.075C380.518 346.73 379.943 347.075 380.173 347.42C384.08 354.89 387.643 362.59 391.091 370.29C386.379 366.153 380.748 362.935 374.886 360.866C374.657 360.751 374.427 361.096 374.657 361.211C381.322 363.969 386.954 367.991 392.24 372.818C394.654 378.45 396.952 384.196 399.251 390.057C392.815 383.736 383.851 379.484 375.346 377.3C375.001 377.185 375.001 377.645 375.231 377.76C385.115 380.748 392.93 386.379 400.4 393.16C401.319 395.459 402.124 397.872 402.928 400.17C406.146 409.02 409.134 417.984 412.122 426.948C413.501 431.2 414.881 435.567 416.26 439.935C417.754 444.532 418.788 449.473 420.742 453.956C420.972 454.415 421.661 454.3 421.546 453.726C420.742 449.359 419.133 444.991 417.754 440.624Z" fill="#263238"/>
<path d="M400.63 354.775C398.792 357.648 397.527 360.751 396.953 364.084C396.953 364.199 397.068 364.199 397.068 364.084C398.217 360.981 399.596 357.878 401.09 355.005C401.205 354.775 400.745 354.545 400.63 354.775Z" fill="#263238"/>
<path d="M382.127 376.381C379.484 374.887 375.921 373.623 372.818 373.278C372.703 373.278 372.703 373.393 372.818 373.393C374.312 373.967 375.921 374.427 377.415 375.002C378.909 375.576 380.403 376.266 381.897 376.841C382.242 377.07 382.472 376.611 382.127 376.381Z" fill="#263238"/>
<path d="M376.956 350.408C376.036 349.833 375.002 349.029 373.968 348.569C373.853 348.454 373.623 348.684 373.853 348.799C374.657 349.603 375.807 350.178 376.841 350.753C376.841 350.867 377.071 350.523 376.956 350.408Z" fill="#263238"/>
<path d="M447.404 399.136C439.934 401.32 432.464 403.388 424.994 405.572C424.304 405.802 411.778 381.553 416.26 369.141C420.512 357.648 430.166 349.029 441.658 345.006C446.945 343.168 453.496 341.673 459.127 342.938C464.184 344.087 467.631 348.109 469.355 352.821C471.539 359.257 470.849 366.842 469.585 373.393C468.436 379.484 466.252 385.46 462.23 390.172C458.322 394.884 453.266 397.412 447.404 399.136Z" fill="#FE9563"/>
<path d="M458.208 376.151C453.496 378.564 448.669 380.288 443.612 381.897C440.394 382.931 436.831 383.851 433.843 385.46C436.946 378.449 440.509 371.554 444.072 364.773C448.899 363.394 453.955 361.211 457.633 357.763C457.863 357.533 457.633 357.303 457.403 357.418C453.381 360.176 449.013 361.9 444.646 363.854C445.681 362.015 446.6 360.176 447.634 358.337C447.864 357.878 447.175 357.303 446.83 357.763C442.922 363.394 439.36 369.37 436.257 375.576C435.452 370.175 435.222 364.773 435.452 359.257C435.452 359.142 435.222 359.142 435.222 359.257C434.303 365.118 434.303 371.324 435.452 377.185C432.809 382.357 430.396 387.758 428.327 393.16C427.522 389.942 426.373 386.724 425.684 383.391C424.649 378.679 424.075 373.852 424.649 369.025C424.649 368.911 424.419 368.911 424.419 369.025C422.925 377.645 424.305 387.299 427.522 395.458C426.258 398.676 425.109 402.009 423.96 405.227C418.328 422.006 414.996 439.36 414.076 457.058C414.076 457.518 414.651 457.518 414.651 457.058C416.719 439.705 420.282 422.466 425.799 405.917C427.982 399.366 430.511 393.045 433.154 386.839C437.521 385.575 442.003 383.736 446.255 382.242C450.508 380.748 454.76 379.139 458.322 376.266C458.552 376.266 458.437 376.036 458.208 376.151Z" fill="#263238"/>
<path d="M465.218 369.141C460.621 370.75 456.369 373.048 451.772 374.657C451.542 374.772 451.657 375.117 451.887 375.002C456.714 373.968 461.541 372.474 465.333 369.371C465.563 369.256 465.333 369.026 465.218 369.141Z" fill="#263238"/>
<path d="M427.982 359.257C427.982 359.027 427.638 358.912 427.638 359.142C426.373 363.394 425.569 367.762 426.718 372.129C426.718 372.244 427.063 372.359 427.063 372.129C427.178 367.762 426.948 363.509 427.982 359.257Z" fill="#263238"/>
<path d="M446.83 349.488C445.336 351.442 444.762 354.2 444.877 356.614C444.877 356.729 445.106 356.843 445.221 356.729C445.796 354.315 446.715 352.132 447.405 349.833C447.52 349.488 447.06 349.258 446.83 349.488Z" fill="#263238"/>
<path d="M358.681 409.824C360.864 416.719 366.036 426.373 374.311 426.488C379.597 426.488 384.999 425.913 390.4 425.798C396.146 425.683 401.893 425.683 407.639 426.028C408.099 426.028 406.949 408.904 393.158 400.515C389.251 398.216 384.539 397.412 380.172 396.492C375.115 395.458 369.943 394.654 364.887 394.883C361.669 394.998 359.14 395.688 357.991 398.906C356.727 402.239 357.531 406.491 358.681 409.824Z" fill="#FE9563"/>
<path d="M364.541 401.089C367.874 401.894 371.322 402.928 374.655 403.963C373.735 403.043 372.931 402.124 371.896 401.204C370.402 400.055 368.908 399.021 367.299 397.986C367.185 397.872 367.299 397.642 367.414 397.757C370.517 398.906 373.62 401.434 375.574 404.192C379.711 405.572 383.964 407.066 387.871 408.675C390.744 409.824 393.273 411.203 395.801 412.812C394.882 411.088 394.077 409.364 392.928 407.87C391.089 405.457 388.676 404.192 386.262 402.469C386.032 402.354 386.262 402.009 386.492 402.124C391.893 404.537 395.226 408.445 397.18 413.731C400.053 415.8 402.582 418.098 404.995 420.857C414.074 431.2 421.314 444.991 421.314 459.012C421.314 459.357 420.74 459.472 420.74 459.127C418.096 445.221 412.695 432.579 403.386 421.776C402.696 420.972 402.122 420.282 401.432 419.592C398.904 419.363 396.491 419.018 393.847 419.018C390.859 419.018 387.986 419.478 385.113 419.707C380.286 420.052 374.999 420.167 370.632 417.754C370.402 417.639 370.517 417.294 370.747 417.409C380.401 420.972 390.514 416.49 400.283 418.558C396.146 414.536 391.434 411.548 386.032 409.364C385.688 409.249 385.458 409.134 385.113 409.019C378.907 409.709 372.356 411.433 366.265 409.364C366.035 409.249 366.15 409.019 366.38 409.134C372.241 410.628 377.873 408.789 383.619 408.445C377.298 406.031 370.977 404.078 364.656 401.664C363.967 401.434 363.967 400.975 364.541 401.089Z" fill="#263238"/>
<path d="M361.783 407.181C364.771 407.64 367.759 407.64 370.862 407.87C370.977 407.87 370.977 407.985 370.862 407.985C367.874 408.675 364.656 408.215 361.783 407.411C361.553 407.411 361.668 407.181 361.783 407.181Z" fill="#263238"/>
<path d="M382.24 401.205C383.849 401.779 385.458 403.158 386.722 404.308C386.837 404.422 386.722 404.767 386.492 404.652C385.687 404.078 384.998 403.618 384.193 403.043C383.504 402.584 382.699 402.239 382.01 401.664C381.78 401.549 382.01 401.205 382.24 401.205Z" fill="#263238"/>
<path d="M430.854 423.615C430.739 423.845 431.084 424.075 431.198 423.845C431.198 423.96 431.313 423.96 431.428 423.96C436.945 425.109 442.576 426.373 448.207 426.948C452.804 427.408 457.976 427.638 461.998 424.994C467.4 421.432 470.963 411.893 468.09 405.802C464.642 398.561 454.184 402.469 449.012 405.112C440.967 408.79 434.531 415.455 430.854 423.615Z" fill="#FE9563"/>
<path d="M426.832 426.948C429.934 423.96 433.267 421.432 436.83 419.248C439.243 415.111 443.036 411.548 447.058 408.905C447.288 408.79 447.403 409.135 447.288 409.25C443.84 411.893 441.197 414.996 438.669 418.329C442.691 416.03 446.943 414.191 451.311 412.582C452.805 409.824 455.333 407.181 458.091 405.802C458.091 405.802 458.206 405.802 458.206 405.917C455.793 407.87 453.839 409.824 452.115 412.352C454.643 411.433 457.287 410.514 459.815 409.594C460.045 409.479 460.16 409.824 459.93 409.939C455.333 411.778 450.621 413.617 446.024 415.8C451.77 416.605 456.942 416.72 462.803 415.8C462.918 415.8 463.033 416.03 462.918 416.03C457.287 417.639 450.736 417.984 445.105 416.26C442.232 417.639 439.358 419.248 436.6 420.972C438.899 420.627 441.082 421.087 443.381 421.547C447.403 422.351 451.311 423.041 455.333 422.926C455.448 422.926 455.563 423.155 455.333 423.155C448.323 424.305 441.772 421.202 434.876 422.006C432.348 423.73 429.935 425.684 427.636 427.867C423.269 432.12 419.821 437.176 417.178 442.693C414.305 448.554 412.696 454.875 410.397 460.966C410.282 461.196 409.938 461.081 409.938 460.851C412.006 448.784 417.982 435.567 426.832 426.948Z" fill="#263238"/>
<path d="M447.863 410.399C448.323 409.594 449.013 408.905 449.702 408.215C450.277 407.641 450.966 406.951 451.771 406.721C451.886 406.721 451.886 406.836 451.886 406.836C451.311 407.526 450.507 407.985 449.932 408.56C449.357 409.135 448.783 409.939 448.208 410.514C447.863 410.629 447.748 410.514 447.863 410.399Z" fill="#263238"/>
<path d="M459.355 414.192C460.39 413.962 461.424 413.962 462.573 413.732C463.607 413.502 464.642 413.157 465.676 412.812C465.791 412.812 465.906 412.927 465.791 413.042C464.067 414.077 461.424 414.881 459.47 414.536C459.125 414.421 459.125 414.192 459.355 414.192Z" fill="#263238"/>
<path d="M398.1 446.025L399.019 456.369L402.122 491.421H429.59L433.497 456.369L434.646 446.025H398.1Z" fill="#37474F"/>
<path d="M398.1 446.025L399.019 456.369H433.497L434.646 446.025H398.1Z" fill="#263238"/>
<path d="M395.323 451.647H437.271V443.257H395.323V451.647Z" fill="#37474F"/>
<path d="M5.17188 491.421L63.439 491.191L121.591 491.076L238.011 490.846L354.43 491.076L412.582 491.191L470.735 491.421L412.582 491.766L354.43 491.881L238.011 491.995L121.591 491.881L63.439 491.766L5.17188 491.421Z" fill="#E3D7C3"/>
<path d="M449.588 21.2607H26.3182V289.037H449.588V21.2607Z" fill="white"/>
<path d="M449.588 289.037C449.473 289.152 26.3179 289.152 26.2029 289.267C26.088 289.152 26.2029 21.4908 26.088 21.3758V21.146H26.3179C26.3179 21.146 449.588 21.3758 449.703 21.3758C449.818 21.2609 449.588 288.922 449.588 289.037ZM449.588 289.037C449.588 289.037 449.358 20.8012 449.588 21.3758L26.3179 21.6057L26.5477 21.3758C26.5477 21.2609 26.6626 289.956 26.3179 288.922L449.588 289.037Z" fill="#FF7B3D"/>
<path d="M449.588 21.2607H26.318V31.604H449.588V21.2607Z" fill="#FF7B3D"/>
<path d="M36.316 26.4324C36.316 27.5817 35.3966 28.5011 34.2474 28.5011C33.0981 28.5011 32.1787 27.5817 32.1787 26.4324C32.1787 25.2832 33.0981 24.3638 34.2474 24.3638C35.3966 24.3638 36.316 25.2832 36.316 26.4324Z" fill="#8E4C2D"/>
<path d="M44.821 26.4324C44.821 27.5817 43.9016 28.5011 42.7524 28.5011C41.6031 28.5011 40.6837 27.5817 40.6837 26.4324C40.6837 25.2832 41.6031 24.3638 42.7524 24.3638C43.9016 24.3638 44.821 25.2832 44.821 26.4324Z" fill="white"/>
<path d="M53.2104 26.4324C53.2104 27.5817 52.291 28.5011 51.1418 28.5011C49.9925 28.5011 49.0731 27.5817 49.0731 26.4324C49.0731 25.2832 49.9925 24.3638 51.1418 24.3638C52.291 24.3638 53.2104 25.2832 53.2104 26.4324Z" fill="#455A64"/>
<path d="M154.575 161.125H110.789V218.473H154.575V161.125Z" fill="#FE9563"/>
<path d="M207.211 161.125H163.424V218.473H207.211V161.125Z" fill="#FE9563"/>
<path d="M259.962 161.125H216.176V218.473H259.962V161.125Z" fill="#FE9563"/>
<path d="M312.598 161.125H268.811V218.473H312.598V161.125Z" fill="#FE9563"/>
<path d="M365.233 161.125H321.447V218.473H365.233V161.125Z" fill="#FE9563"/>
<path d="M138.945 186.868C141.014 188.937 142.048 191.695 142.048 194.453C142.048 197.096 141.014 199.855 138.945 201.923C136.876 203.992 134.118 205.026 131.475 205.026C131.36 205.026 131.36 205.026 131.36 205.026C128.717 205.026 125.959 203.992 123.89 201.923C122.856 201.004 122.856 199.51 123.89 198.476C124.809 197.556 126.418 197.556 127.338 198.476C128.487 199.625 129.866 200.199 131.475 200.199C132.969 200.199 134.463 199.625 135.497 198.476C136.647 197.326 137.221 195.832 137.221 194.453C137.221 192.959 136.647 191.465 135.497 190.316C134.348 189.167 132.969 188.592 131.475 188.592C129.981 188.592 128.487 189.052 127.338 190.316C126.418 191.235 124.809 191.235 123.89 190.316C123.775 190.201 123.545 189.971 123.43 189.741C123.43 189.626 123.43 189.626 123.43 189.626C123.43 189.511 123.43 189.511 123.315 189.396C123.315 189.282 123.315 189.167 123.315 189.052C123.315 189.052 123.315 189.052 123.315 188.937C123.315 188.707 123.315 188.477 123.315 188.247L124.579 177.214C124.694 176.525 125.039 175.835 125.614 175.49C125.729 175.49 125.729 175.49 125.729 175.376C125.729 175.376 125.844 175.376 125.844 175.261C126.188 175.146 126.533 175.031 126.993 175.031H139.635C141.014 175.031 142.048 176.065 142.048 177.444C142.048 178.708 141.014 179.858 139.635 179.858H129.062L128.602 184.11C129.521 183.88 130.556 183.765 131.475 183.765C134.118 183.765 136.876 184.799 138.945 186.868Z" fill="#455A64"/>
<path d="M191.58 186.868C193.649 188.937 194.683 191.695 194.683 194.338C194.683 196.982 193.649 199.74 191.58 201.923C189.512 203.992 186.753 205.026 183.995 205.026C181.352 205.026 178.594 203.992 176.525 201.923C175.606 201.004 175.606 199.395 176.525 198.476C177.444 197.556 179.053 197.556 179.973 198.476C181.122 199.625 182.501 200.199 183.995 200.199C185.489 200.199 186.983 199.625 188.132 198.476C189.282 197.326 189.856 195.832 189.856 194.338C189.856 192.844 189.282 191.35 188.132 190.316C186.983 189.167 185.604 188.592 184.11 188.592C183.421 188.592 182.731 188.362 182.386 187.787C181.352 186.868 181.352 185.374 182.271 184.34L186.638 179.858H179.743C178.364 179.858 177.329 178.823 177.329 177.444C177.329 176.065 178.364 175.031 179.743 175.031H192.385C193.764 175.031 194.798 176.065 194.798 177.444C194.798 177.904 194.683 178.249 194.453 178.593C194.338 178.823 194.224 179.053 193.994 179.168L188.592 184.684C189.741 185.259 190.776 185.949 191.58 186.868Z" fill="#455A64"/>
<path d="M244.332 186.868C246.4 188.937 247.435 191.695 247.435 194.338C247.435 196.982 246.4 199.74 244.332 201.923C242.263 203.992 239.505 205.026 236.747 205.026C234.103 205.026 231.345 203.992 229.277 201.923C228.357 201.004 228.357 199.395 229.277 198.476C230.196 197.556 231.805 197.556 232.724 198.476C233.874 199.625 235.253 200.199 236.747 200.199C238.241 200.199 239.735 199.625 240.884 198.476C242.033 197.326 242.608 195.832 242.608 194.338C242.608 192.844 242.033 191.35 240.884 190.316C239.735 189.167 238.356 188.592 236.862 188.592C236.172 188.592 235.483 188.362 235.138 187.787C234.103 186.868 234.103 185.374 235.023 184.34L239.39 179.858H232.495C231.115 179.858 230.081 178.823 230.081 177.444C230.081 176.065 231.115 175.031 232.495 175.031H245.136C246.515 175.031 247.55 176.065 247.55 177.444C247.55 177.904 247.435 178.249 247.205 178.593C247.09 178.823 246.975 179.053 246.745 179.168L241.344 184.684C242.378 185.259 243.412 185.949 244.332 186.868Z" fill="#455A64"/>
<path d="M300.874 194.913C300.874 200.544 296.277 205.141 290.646 205.141C285.015 205.141 280.418 200.544 280.418 194.913C280.418 191.35 282.256 188.247 285.015 186.408C284.095 185.259 283.636 183.765 283.636 182.156C283.636 178.248 286.853 175.146 290.761 175.146C294.668 175.146 297.771 178.363 297.771 182.156C297.771 183.765 297.312 185.259 296.392 186.408C299.036 188.132 300.874 191.35 300.874 194.913ZM296.277 194.913C296.277 191.925 293.749 189.396 290.761 189.396C287.658 189.396 285.244 191.925 285.13 194.913C285.13 197.901 287.658 200.429 290.761 200.429C293.749 200.429 296.277 197.901 296.277 194.913ZM288.233 182.156C288.233 183.535 289.267 184.569 290.646 184.569C291.91 184.569 292.944 183.42 292.944 182.156C292.944 180.892 291.91 179.857 290.646 179.857C289.382 179.743 288.233 180.777 288.233 182.156Z" fill="#455A64"/>
<path d="M269.04 238.584H206.866V258.122H269.04V238.584Z" fill="#FE9563"/>
<path d="M220.197 249.847C220.427 249.617 220.657 249.617 220.887 249.732C221.347 250.077 222.036 250.537 222.726 250.422C223.185 250.422 223.645 250.307 223.875 250.077C224.22 249.847 224.335 249.617 224.335 249.388C224.335 249.273 224.335 249.158 224.22 249.043C224.105 248.928 224.105 248.813 223.875 248.698C223.645 248.468 223.071 248.353 222.611 248.238C222.151 248.123 221.691 248.008 221.347 247.894C221.002 247.664 220.657 247.434 220.427 247.089C220.312 246.859 220.197 246.629 220.197 246.285C220.197 245.71 220.542 245.25 221.002 244.906C221.462 244.561 222.036 244.446 222.611 244.446C223.53 244.446 224.22 244.905 224.679 245.25C224.909 245.365 225.024 245.71 224.794 245.94C224.68 246.17 224.335 246.285 224.105 246.055C223.645 245.71 223.185 245.48 222.611 245.48C222.151 245.48 221.806 245.595 221.577 245.825C221.347 246.055 221.232 246.285 221.232 246.4C221.232 246.514 221.232 246.629 221.347 246.629C221.347 246.744 221.462 246.744 221.577 246.859C221.806 247.089 222.266 247.204 222.726 247.319C223.185 247.434 223.645 247.549 224.105 247.779C224.45 248.008 224.794 248.238 225.024 248.583C225.139 248.813 225.254 249.158 225.254 249.388C225.254 249.962 224.909 250.537 224.45 250.882C223.99 251.226 223.3 251.456 222.611 251.456C221.577 251.456 220.657 250.882 220.197 250.537C219.968 250.422 219.968 250.077 220.197 249.847Z" fill="white"/>
<path d="M229.622 251.571C228.128 251.571 226.864 250.307 226.864 248.813V245.365C226.864 245.02 227.093 244.791 227.438 244.791C227.783 244.791 228.013 245.02 228.013 245.365V248.813C228.013 249.732 228.817 250.537 229.737 250.537C230.656 250.537 231.461 249.732 231.461 248.813V245.365C231.461 245.02 231.69 244.791 232.035 244.791C232.38 244.791 232.61 245.02 232.61 245.365V248.813C232.38 250.307 231.116 251.571 229.622 251.571Z" fill="white"/>
<path d="M234.564 250.996V245.365C234.564 245.02 234.794 244.791 235.138 244.791H236.517C237.552 244.791 238.356 245.595 238.356 246.629C238.356 247.089 238.241 247.434 238.011 247.779C238.586 248.123 238.931 248.813 238.931 249.502C238.931 250.652 238.011 251.571 236.862 251.571H235.138C234.908 251.571 234.564 251.341 234.564 250.996ZM235.713 247.434H236.517C236.977 247.434 237.322 247.089 237.322 246.629C237.322 246.17 236.977 245.825 236.517 245.825H235.713V247.434ZM235.713 250.422H236.862C237.437 250.422 237.897 249.962 237.897 249.388C237.897 248.813 237.437 248.353 236.862 248.353H235.713V250.422Z" fill="white"/>
<path d="M246.17 245.365V250.996C246.17 251.341 245.941 251.571 245.596 251.571C245.251 251.571 245.021 251.341 245.021 250.996V246.974L243.642 248.928C243.527 249.043 243.412 249.158 243.182 249.158C242.953 249.158 242.838 249.043 242.723 248.928L241.344 246.974V250.996C241.344 251.341 241.114 251.571 240.769 251.571C240.424 251.571 240.194 251.341 240.194 250.996V245.365C240.194 245.02 240.424 244.791 240.769 244.791C240.884 244.791 241.114 244.905 241.229 245.02L243.182 247.664L245.136 245.02C245.251 244.905 245.366 244.791 245.596 244.791C245.826 244.791 246.17 245.02 246.17 245.365Z" fill="white"/>
<path d="M248.469 245.365C248.469 245.02 248.699 244.791 249.044 244.791C249.389 244.791 249.618 245.02 249.618 245.365V250.996C249.618 251.341 249.389 251.571 249.044 251.571C248.699 251.571 248.469 251.341 248.469 250.996V245.365Z" fill="white"/>
<path d="M255.48 245.825H253.986V250.996C253.986 251.341 253.756 251.571 253.411 251.571C253.066 251.571 252.836 251.341 252.836 250.996V245.825H251.342C250.998 245.825 250.768 245.595 250.768 245.25C250.768 244.905 250.998 244.676 251.342 244.676H255.48C255.824 244.676 256.054 244.905 256.054 245.25C256.054 245.595 255.824 245.825 255.48 245.825Z" fill="white"/>
<path d="M246.057 68.2649V76.9992H243.644V68.2649C243.644 64.9321 241.115 62.2888 238.012 62.2888C234.909 62.2888 232.381 65.047 232.381 68.2649V76.9992H229.853V68.2649C229.853 63.553 233.53 59.6455 238.012 59.6455C242.494 59.6455 246.057 63.438 246.057 68.2649Z" fill="#FFB592"/>
<path d="M229.853 70.5635H232.381V76.9993H229.853V70.5635Z" fill="#FE9563"/>
<path d="M246.057 71.1379V76.9991H243.644V71.0229L246.057 71.1379Z" fill="#FE9563"/>
<path d="M249.275 73.7812H226.749V92.5141H249.275V73.7812Z" fill="#FE9563"/>
<path d="M238.932 82.9755L239.851 87.4576H235.829L236.748 82.9755C236.174 82.6307 235.829 81.9411 235.829 81.2516C235.829 80.1023 236.748 79.2979 237.783 79.2979C238.932 79.2979 239.736 80.2173 239.736 81.2516C239.851 82.0561 239.507 82.6307 238.932 82.9755Z" fill="#263238"/>
<path d="M115.731 139.519C115.731 139.404 115.846 139.289 115.96 139.289H118.029C119.178 139.289 120.098 140.208 120.098 141.358C120.098 142.507 119.178 143.426 118.029 143.426H116.19V146.3C116.19 146.414 116.075 146.529 115.96 146.529C115.846 146.529 115.731 146.414 115.731 146.3V139.519ZM118.029 142.967C118.949 142.967 119.638 142.277 119.638 141.358C119.638 140.438 118.949 139.749 118.029 139.749H116.19V142.967H118.029Z" fill="#263238"/>
<path d="M121.821 139.519C121.821 139.404 121.936 139.289 122.051 139.289C122.166 139.289 122.281 139.404 122.281 139.519V146.414C122.281 146.529 122.166 146.644 122.051 146.644C121.936 146.644 121.821 146.529 121.821 146.414V139.519Z" fill="#263238"/>
<path d="M124.464 144.116C124.464 142.737 125.614 141.587 126.993 141.587C128.372 141.587 129.406 142.622 129.521 144.001C129.521 144.116 129.406 144.231 129.291 144.231H125.039C125.039 145.38 125.959 146.184 126.993 146.184C127.682 146.184 128.257 145.84 128.602 145.265C128.717 145.15 128.832 145.15 128.947 145.15C129.061 145.265 129.061 145.38 129.061 145.495C128.602 146.184 127.797 146.644 126.993 146.644C125.614 146.644 124.464 145.495 124.464 144.116ZM125.039 143.656H128.947C128.832 142.737 127.912 141.932 126.993 141.932C125.959 142.047 125.154 142.737 125.039 143.656Z" fill="#263238"/>
<path d="M135.498 141.817V146.414C135.498 146.529 135.383 146.644 135.268 146.644C135.153 146.644 135.038 146.529 135.038 146.414V145.61C134.578 146.184 133.889 146.644 133.084 146.644C131.705 146.644 130.671 145.495 130.671 144.116C130.671 142.737 131.705 141.587 133.084 141.587C133.889 141.587 134.578 141.932 135.038 142.622V141.817C135.038 141.702 135.153 141.587 135.268 141.587C135.383 141.587 135.498 141.587 135.498 141.817ZM135.038 144.116C135.038 142.967 134.119 142.047 133.084 142.047C132.05 142.047 131.131 142.967 131.131 144.116C131.131 145.265 132.05 146.184 133.084 146.184C134.119 146.184 135.038 145.265 135.038 144.116Z" fill="#263238"/>
<path d="M137.336 145.61C137.451 145.495 137.566 145.495 137.681 145.61C138.026 145.84 138.6 146.185 139.29 146.185C139.635 146.185 139.98 146.07 140.324 145.84C140.554 145.725 140.669 145.495 140.669 145.265C140.669 145.035 140.554 144.806 140.324 144.691C140.095 144.576 139.75 144.346 139.175 144.346C138.715 144.231 138.256 144.116 138.026 144.001C137.681 143.771 137.451 143.427 137.451 143.082C137.451 142.622 137.681 142.277 138.026 142.047C138.371 141.818 138.715 141.703 139.29 141.703C139.98 141.703 140.439 142.047 140.784 142.277C140.899 142.392 140.899 142.507 140.899 142.622C140.784 142.737 140.669 142.737 140.554 142.737C140.209 142.507 139.75 142.277 139.29 142.277C138.83 142.277 138.486 142.392 138.256 142.622C138.026 142.737 137.911 142.967 137.911 143.197C137.911 143.427 138.026 143.541 138.256 143.656C138.486 143.771 138.83 143.886 139.29 144.001C139.75 144.116 140.209 144.231 140.554 144.461C140.899 144.691 141.129 145.035 141.129 145.495C141.129 145.955 140.899 146.3 140.554 146.529C140.209 146.759 139.75 146.989 139.29 146.989C138.486 146.989 137.796 146.644 137.336 146.3C137.336 145.84 137.336 145.725 137.336 145.61Z" fill="#263238"/>
<path d="M142.508 144.116C142.508 142.737 143.657 141.587 145.036 141.587C146.415 141.587 147.45 142.622 147.565 144.001C147.565 144.116 147.45 144.231 147.335 144.231H143.083C143.083 145.38 144.002 146.184 145.036 146.184C145.726 146.184 146.3 145.84 146.645 145.265C146.76 145.15 146.875 145.15 146.99 145.15C147.105 145.265 147.105 145.38 147.105 145.495C146.645 146.184 145.841 146.644 145.036 146.644C143.657 146.644 142.508 145.495 142.508 144.116ZM143.083 143.656H146.99C146.875 142.737 145.956 141.932 145.036 141.932C144.117 142.047 143.312 142.737 143.083 143.656Z" fill="#263238"/>
<path d="M152.047 144.116C152.047 142.737 153.196 141.587 154.575 141.587C155.954 141.587 156.988 142.622 157.103 144.001C157.103 144.116 156.988 144.231 156.873 144.231H152.621C152.621 145.38 153.541 146.184 154.575 146.184C155.264 146.184 155.839 145.84 156.184 145.265C156.299 145.15 156.414 145.15 156.529 145.15C156.644 145.265 156.644 145.38 156.644 145.495C156.184 146.184 155.379 146.644 154.575 146.644C153.196 146.644 152.047 145.495 152.047 144.116ZM152.621 143.656H156.529C156.414 142.737 155.494 141.932 154.575 141.932C153.655 142.047 152.851 142.737 152.621 143.656Z" fill="#263238"/>
<path d="M162.505 143.656C162.505 142.737 161.816 142.047 160.896 142.047C159.977 142.047 159.287 142.737 159.287 143.656V146.414V146.529C159.287 146.644 159.172 146.644 159.057 146.644H158.943C158.828 146.644 158.828 146.529 158.828 146.529V146.414V143.656V143.541V141.817C158.828 141.702 158.943 141.587 159.057 141.587C159.172 141.587 159.287 141.702 159.287 141.817V142.277C159.632 141.817 160.207 141.587 160.896 141.587C162.046 141.587 162.965 142.507 162.965 143.656V146.414C162.965 146.529 162.85 146.644 162.735 146.644C162.62 146.644 162.505 146.529 162.505 146.414V143.656Z" fill="#263238"/>
<path d="M167.102 141.817C167.102 141.932 166.987 142.047 166.872 142.047H166.182V145.84C166.182 146.07 166.412 146.185 166.527 146.185C166.642 146.185 166.757 146.3 166.757 146.414C166.757 146.529 166.642 146.644 166.527 146.644C166.067 146.644 165.608 146.3 165.608 145.725V141.932H164.918C164.688 141.932 164.688 141.817 164.688 141.703C164.688 141.588 164.688 141.473 164.918 141.473H165.608V139.519C165.608 139.404 165.723 139.289 165.838 139.289C165.953 139.289 166.067 139.404 166.067 139.519V141.473H166.757C166.987 141.473 167.102 141.588 167.102 141.817Z" fill="#263238"/>
<path d="M168.711 144.116C168.711 142.737 169.86 141.587 171.239 141.587C172.618 141.587 173.652 142.622 173.767 144.001C173.767 144.116 173.652 144.231 173.538 144.231H169.285C169.285 145.38 170.205 146.184 171.239 146.184C171.929 146.184 172.503 145.84 172.848 145.265C172.963 145.15 173.078 145.15 173.193 145.15C173.308 145.265 173.308 145.38 173.308 145.495C172.848 146.184 172.044 146.644 171.239 146.644C169.86 146.644 168.711 145.495 168.711 144.116ZM169.285 143.656H173.193C173.078 142.737 172.158 141.932 171.239 141.932C170.205 142.047 169.4 142.737 169.285 143.656Z" fill="#263238"/>
<path d="M175.262 141.817C175.262 141.702 175.377 141.587 175.492 141.587C175.606 141.587 175.721 141.702 175.721 141.817V142.967C175.721 142.967 175.721 142.852 175.836 142.852C176.181 142.277 176.871 141.587 177.905 141.587C178.02 141.587 178.135 141.702 178.135 141.817C178.135 141.932 178.02 142.047 177.905 142.047C177.215 142.047 176.756 142.392 176.411 142.852C176.066 143.311 175.836 143.886 175.836 144.001V144.116V146.414C175.836 146.529 175.721 146.644 175.606 146.644C175.492 146.644 175.377 146.529 175.377 146.414V141.817H175.262Z" fill="#263238"/>
<path d="M184.8 141.817C184.8 141.932 184.685 142.047 184.57 142.047H183.881V145.84C183.881 146.07 184.111 146.185 184.226 146.185C184.341 146.185 184.456 146.3 184.456 146.414C184.456 146.529 184.341 146.644 184.226 146.644C183.766 146.644 183.306 146.3 183.306 145.725V141.932H182.732C182.502 141.932 182.502 141.817 182.502 141.703C182.502 141.588 182.502 141.473 182.732 141.473H183.421V139.519C183.421 139.404 183.536 139.289 183.651 139.289C183.766 139.289 183.881 139.404 183.881 139.519V141.473H184.57C184.685 141.473 184.8 141.588 184.8 141.817Z" fill="#263238"/>
<path d="M190.777 143.541C190.777 142.622 190.088 142.047 189.168 142.047C188.249 142.047 187.559 142.622 187.559 143.541V146.414C187.559 146.529 187.444 146.529 187.444 146.529C187.329 146.529 187.329 146.529 187.214 146.414C187.214 146.414 187.214 146.414 187.214 146.299C187.214 146.299 187.214 146.299 187.214 146.184V143.311V143.196V139.289C187.214 139.174 187.329 139.059 187.444 139.059C187.559 139.059 187.674 139.174 187.674 139.289V142.047C188.019 141.587 188.708 141.243 189.283 141.243C190.432 141.243 191.467 142.047 191.467 143.311V146.184C191.467 146.299 191.352 146.414 191.237 146.414C191.122 146.414 191.007 146.299 191.007 146.184V143.541H190.777Z" fill="#263238"/>
<path d="M193.075 144.116C193.075 142.737 194.224 141.587 195.604 141.587C196.983 141.587 198.017 142.622 198.132 144.001C198.132 144.116 198.017 144.231 197.902 144.231H193.65C193.65 145.38 194.569 146.184 195.604 146.184C196.293 146.184 196.868 145.84 197.213 145.265C197.327 145.15 197.442 145.15 197.557 145.15C197.672 145.265 197.672 145.38 197.672 145.495C197.213 146.184 196.408 146.644 195.604 146.644C194.224 146.644 193.075 145.495 193.075 144.116ZM193.65 143.656H197.557C197.442 142.737 196.523 141.932 195.604 141.932C194.569 142.047 193.765 142.737 193.65 143.656Z" fill="#263238"/>
<path d="M206.292 139.174C208.246 139.174 209.855 140.898 209.855 142.852C209.855 144.921 208.246 146.53 206.292 146.53C204.338 146.53 202.729 144.806 202.729 142.852C202.844 140.898 204.338 139.174 206.292 139.174ZM206.292 146.185C207.901 146.185 209.28 144.806 209.28 142.967C209.28 141.128 207.901 139.749 206.292 139.749C204.568 139.749 203.304 141.128 203.304 142.967C203.304 144.691 204.683 146.185 206.292 146.185Z" fill="#263238"/>
<path d="M213.302 139.864H211.118C211.003 139.864 210.889 139.749 210.889 139.634C210.889 139.519 211.003 139.404 211.118 139.404H216.06C216.175 139.404 216.29 139.519 216.29 139.634C216.29 139.749 216.175 139.864 216.06 139.864H213.877V146.414C213.877 146.529 213.762 146.644 213.647 146.644C213.532 146.644 213.417 146.529 213.417 146.414V139.864H213.302Z" fill="#263238"/>
<path d="M218.244 139.519C218.244 139.404 218.359 139.289 218.474 139.289H220.543C221.692 139.289 222.611 140.208 222.611 141.358C222.611 142.507 221.692 143.426 220.543 143.426H218.704V146.3C218.704 146.414 218.589 146.529 218.474 146.529C218.359 146.529 218.244 146.414 218.244 146.3V139.519ZM220.543 142.967C221.462 142.967 222.152 142.277 222.152 141.358C222.152 140.438 221.462 139.749 220.543 139.749H218.704V142.967H220.543Z" fill="#263238"/>
<path d="M227.094 144.116C227.094 142.737 228.243 141.587 229.737 141.587C230.312 141.587 230.886 141.817 231.346 142.162C231.461 142.277 231.461 142.392 231.346 142.507C231.231 142.622 231.116 142.622 231.001 142.507C230.656 142.162 230.197 142.047 229.622 142.047C228.473 142.047 227.439 142.967 227.439 144.116C227.439 145.265 228.358 146.184 229.622 146.184C230.082 146.184 230.542 146.069 231.001 145.725C231.116 145.61 231.231 145.725 231.346 145.725C231.461 145.84 231.461 145.955 231.346 146.069C230.886 146.414 230.312 146.644 229.737 146.644C228.243 146.644 227.094 145.495 227.094 144.116Z" fill="#263238"/>
<path d="M235.482 141.473C236.861 141.473 237.896 142.622 237.896 144.001C237.896 145.38 236.861 146.529 235.482 146.529C234.103 146.529 233.069 145.38 233.069 144.001C233.069 142.737 234.103 141.473 235.482 141.473ZM235.482 146.185C236.517 146.185 237.436 145.265 237.436 144.116C237.436 142.967 236.517 142.047 235.482 142.047C234.448 142.047 233.529 142.967 233.529 144.116C233.529 145.265 234.448 146.185 235.482 146.185Z" fill="#263238"/>
<path d="M243.988 145.61C243.528 146.184 242.838 146.644 242.034 146.644C240.655 146.644 239.505 145.495 239.505 144.116C239.505 142.737 240.655 141.587 242.034 141.587C242.838 141.587 243.528 141.932 243.988 142.622V139.634C243.988 139.519 244.103 139.404 244.217 139.404C244.332 139.404 244.447 139.519 244.447 139.634V144.116V144.231V146.529C244.447 146.644 244.332 146.759 244.217 146.759C244.103 146.759 243.988 146.644 243.988 146.529V145.61ZM243.988 144.231V144.116C243.988 142.966 243.068 142.162 242.034 142.162C241 142.162 240.08 143.081 240.08 144.231C240.08 145.38 241 146.299 242.034 146.299C243.068 146.184 243.873 145.265 243.988 144.231Z" fill="#263238"/>
<path d="M246.285 144.116C246.285 142.737 247.435 141.587 248.814 141.587C250.193 141.587 251.227 142.622 251.342 144.001C251.342 144.116 251.227 144.231 251.112 144.231H246.86C246.86 145.38 247.779 146.184 248.814 146.184C249.503 146.184 250.078 145.84 250.423 145.265C250.538 145.15 250.653 145.15 250.767 145.15C250.882 145.265 250.882 145.38 250.882 145.495C250.423 146.184 249.618 146.644 248.814 146.644C247.32 146.644 246.285 145.495 246.285 144.116ZM246.745 143.656H250.653C250.538 142.737 249.618 141.932 248.699 141.932C247.779 142.047 246.975 142.737 246.745 143.656Z" fill="#263238"/>
<path d="M255.825 145.61C255.94 145.495 256.055 145.495 256.17 145.61C256.514 145.84 257.089 146.185 257.779 146.185C258.123 146.185 258.468 146.07 258.813 145.84C259.043 145.725 259.158 145.495 259.158 145.265C259.158 145.035 259.043 144.806 258.813 144.691C258.583 144.576 258.238 144.346 257.664 144.346C257.204 144.231 256.744 144.116 256.514 144.001C256.17 143.771 255.94 143.427 255.94 143.082C255.94 142.622 256.17 142.277 256.514 142.047C256.859 141.818 257.204 141.703 257.779 141.703C258.468 141.703 258.928 142.047 259.273 142.277C259.388 142.392 259.388 142.507 259.388 142.622C259.273 142.737 259.158 142.737 259.043 142.737C258.698 142.507 258.238 142.277 257.779 142.277C257.319 142.277 256.974 142.392 256.744 142.622C256.514 142.737 256.399 142.967 256.399 143.197C256.399 143.427 256.514 143.541 256.744 143.656C256.974 143.771 257.319 143.886 257.779 144.001C258.238 144.116 258.698 144.231 259.043 144.461C259.388 144.691 259.617 145.035 259.617 145.495C259.617 145.955 259.388 146.3 259.043 146.529C258.698 146.759 258.238 146.989 257.779 146.989C256.974 146.989 256.285 146.644 255.825 146.3C255.71 145.84 255.71 145.725 255.825 145.61Z" fill="#263238"/>
<path d="M260.997 144.116C260.997 142.737 262.146 141.587 263.525 141.587C264.904 141.587 265.938 142.622 266.053 144.001C266.053 144.116 265.938 144.231 265.824 144.231H261.571C261.571 145.38 262.491 146.184 263.525 146.184C264.215 146.184 264.789 145.84 265.134 145.265C265.249 145.15 265.364 145.15 265.479 145.15C265.594 145.265 265.594 145.38 265.594 145.495C265.134 146.184 264.33 146.644 263.525 146.644C262.031 146.644 260.997 145.495 260.997 144.116ZM261.456 143.656H265.364C265.249 142.737 264.33 141.932 263.41 141.932C262.491 142.047 261.686 142.737 261.456 143.656Z" fill="#263238"/>
<path d="M271.34 143.656C271.34 142.737 270.65 142.047 269.731 142.047C268.811 142.047 268.122 142.737 268.122 143.656V146.414V146.529C268.122 146.644 268.007 146.644 267.892 146.644H267.777C267.662 146.644 267.662 146.529 267.662 146.529V146.414V143.656V143.541V141.817C267.662 141.702 267.777 141.587 267.892 141.587C268.007 141.587 268.122 141.702 268.122 141.817V142.277C268.467 141.817 269.041 141.587 269.731 141.587C270.88 141.587 271.799 142.507 271.799 143.656V146.414C271.799 146.529 271.685 146.644 271.57 146.644C271.455 146.644 271.34 146.529 271.34 146.414V143.656Z" fill="#263238"/>
<path d="M275.936 141.817C275.936 141.932 275.821 142.047 275.707 142.047H275.017V145.84C275.017 146.07 275.247 146.185 275.362 146.185C275.477 146.185 275.592 146.3 275.592 146.414C275.592 146.529 275.477 146.644 275.362 146.644C274.902 146.644 274.442 146.3 274.442 145.725V141.932H273.753C273.523 141.932 273.523 141.817 273.523 141.703C273.523 141.588 273.523 141.473 273.753 141.473H274.442V139.519C274.442 139.404 274.557 139.289 274.672 139.289C274.787 139.289 274.902 139.404 274.902 139.519V141.473H275.592C275.821 141.473 275.936 141.588 275.936 141.817Z" fill="#263238"/>
<path d="M283.292 141.817C283.292 141.932 283.177 142.047 283.062 142.047H282.373V145.84C282.373 146.07 282.602 146.185 282.717 146.185C282.832 146.185 282.947 146.3 282.947 146.414C282.947 146.529 282.832 146.644 282.717 146.644C282.258 146.644 281.798 146.3 281.798 145.725V141.932H281.108C280.879 141.932 280.879 141.817 280.879 141.703C280.879 141.588 280.879 141.473 281.108 141.473H281.798V139.519C281.798 139.404 281.913 139.289 282.028 139.289C282.143 139.289 282.258 139.404 282.258 139.519V141.473H282.947C283.177 141.473 283.292 141.588 283.292 141.817Z" fill="#263238"/>
<path d="M287.773 141.473C289.153 141.473 290.187 142.622 290.187 144.001C290.187 145.38 289.153 146.529 287.773 146.529C286.394 146.529 285.36 145.38 285.36 144.001C285.36 142.737 286.394 141.473 287.773 141.473ZM287.773 146.185C288.808 146.185 289.727 145.265 289.727 144.116C289.727 142.967 288.808 142.047 287.773 142.047C286.739 142.047 285.82 142.967 285.82 144.116C285.82 145.265 286.739 146.185 287.773 146.185Z" fill="#263238"/>
<path d="M294.785 141.703C294.785 141.588 294.9 141.473 295.014 141.473C295.129 141.473 295.244 141.588 295.244 141.703V144.461C295.244 145.38 295.934 146.07 296.853 146.07C297.773 146.07 298.462 145.38 298.462 144.461V141.703V141.588C298.462 141.588 298.577 141.588 298.577 141.473H298.692C298.692 141.473 298.692 141.473 298.807 141.588V141.703V144.461V144.576V146.185C298.807 147.564 297.658 148.598 296.394 148.598C296.049 148.598 295.704 148.483 295.359 148.368C295.244 148.253 295.244 148.138 295.244 148.023C295.359 147.908 295.474 147.908 295.589 147.908C295.819 148.023 296.164 148.138 296.394 148.138C297.428 148.138 298.347 147.334 298.347 146.185V145.955C298.003 146.414 297.428 146.644 296.738 146.644C295.589 146.644 294.67 145.725 294.67 144.576V141.703H294.785Z" fill="#263238"/>
<path d="M303.288 141.473C304.667 141.473 305.702 142.622 305.702 144.001C305.702 145.38 304.667 146.529 303.288 146.529C301.909 146.529 300.875 145.38 300.875 144.001C300.875 142.737 302.024 141.473 303.288 141.473ZM303.288 146.185C304.323 146.185 305.242 145.265 305.242 144.116C305.242 142.967 304.323 142.047 303.288 142.047C302.254 142.047 301.335 142.967 301.335 144.116C301.335 145.265 302.254 146.185 303.288 146.185Z" fill="#263238"/>
<path d="M307.426 141.703C307.426 141.588 307.541 141.473 307.656 141.473C307.771 141.473 307.886 141.588 307.886 141.703V144.461C307.886 145.38 308.575 146.07 309.495 146.07C310.414 146.07 311.104 145.38 311.104 144.461V141.703C311.104 141.588 311.218 141.473 311.333 141.473C311.448 141.473 311.563 141.588 311.563 141.703V144.461C311.563 145.61 310.644 146.529 309.495 146.529C308.345 146.529 307.426 145.61 307.426 144.461V141.703Z" fill="#263238"/>
<path d="M313.977 141.817C313.977 141.702 314.092 141.587 314.207 141.587C314.322 141.587 314.437 141.702 314.437 141.817V142.967C314.437 142.967 314.437 142.852 314.551 142.852C314.896 142.277 315.586 141.587 316.62 141.587C316.735 141.587 316.85 141.702 316.85 141.817C316.85 141.932 316.735 142.047 316.62 142.047C315.931 142.047 315.471 142.392 315.126 142.852C314.781 143.311 314.551 143.886 314.551 144.001V144.116V146.414C314.551 146.529 314.436 146.644 314.322 146.644C314.207 146.644 314.092 146.529 314.092 146.414V141.817H313.977Z" fill="#263238"/>
<path d="M325.355 143.656C325.355 142.737 324.665 142.047 323.746 142.047C322.826 142.047 322.137 142.737 322.137 143.656V146.414V146.529C322.137 146.644 322.022 146.644 321.907 146.644H321.792C321.677 146.644 321.677 146.529 321.677 146.529V146.414V143.656V143.541V141.817C321.677 141.702 321.792 141.587 321.907 141.587C322.022 141.587 322.137 141.702 322.137 141.817V142.277C322.482 141.817 323.056 141.587 323.746 141.587C324.895 141.587 325.814 142.507 325.814 143.656V146.414C325.814 146.529 325.7 146.644 325.585 146.644C325.47 146.644 325.355 146.529 325.355 146.414V143.656Z" fill="#263238"/>
<path d="M328.112 141.703C328.112 141.588 328.227 141.473 328.342 141.473C328.457 141.473 328.572 141.588 328.572 141.703V144.461C328.572 145.38 329.262 146.07 330.181 146.07C331.1 146.07 331.79 145.38 331.79 144.461V141.703C331.79 141.588 331.905 141.473 332.02 141.473C332.135 141.473 332.25 141.588 332.25 141.703V144.461C332.25 145.61 331.33 146.529 330.181 146.529C329.032 146.529 328.112 145.61 328.112 144.461V141.703Z" fill="#263238"/>
<path d="M342.018 143.656C342.018 142.737 341.329 142.047 340.409 142.047C339.49 142.047 338.8 142.737 338.8 143.656V146.414C338.8 146.529 338.685 146.529 338.685 146.529H338.571C338.571 146.529 338.571 146.529 338.456 146.529V143.656C338.456 142.737 337.766 142.047 336.847 142.047C335.927 142.047 335.238 142.737 335.238 143.656V146.414C335.238 146.529 335.238 146.529 335.123 146.644C335.123 146.644 335.123 146.644 335.008 146.644C334.893 146.644 334.778 146.529 334.778 146.414V143.656V143.541V141.817C334.778 141.702 334.893 141.587 335.008 141.587C335.123 141.587 335.238 141.702 335.238 141.817V142.277C335.582 141.817 336.157 141.587 336.847 141.587C337.651 141.587 338.341 142.047 338.685 142.737C339.03 142.047 339.72 141.587 340.524 141.587C341.673 141.587 342.593 142.507 342.593 143.656V146.414C342.593 146.529 342.478 146.644 342.363 146.644C342.248 146.644 342.133 146.529 342.133 146.414V143.656H342.018Z" fill="#263238"/>
<path d="M344.547 144.231V144.001V139.519C344.547 139.404 344.661 139.289 344.776 139.289C344.891 139.289 345.006 139.404 345.006 139.519V142.507C345.466 141.932 346.155 141.473 346.96 141.473C348.339 141.473 349.488 142.622 349.488 144.001C349.488 145.38 348.339 146.529 346.96 146.529C346.155 146.529 345.466 146.185 345.006 145.495V146.185C345.006 146.3 344.891 146.414 344.776 146.414C344.661 146.414 344.547 146.3 344.547 146.185V144.231ZM345.121 144.116C345.121 145.265 346.041 146.185 347.075 146.185C348.224 146.185 349.029 145.265 349.029 144.116C349.029 142.967 348.109 142.047 347.075 142.047C346.041 142.047 345.121 142.967 345.121 144.116Z" fill="#263238"/>
<path d="M351.213 144.116C351.213 142.737 352.362 141.587 353.741 141.587C355.121 141.587 356.155 142.622 356.27 144.001C356.27 144.116 356.155 144.231 356.04 144.231H351.673C351.673 145.38 352.592 146.184 353.627 146.184C354.316 146.184 354.891 145.84 355.236 145.265C355.35 145.15 355.465 145.15 355.58 145.15C355.695 145.265 355.695 145.38 355.695 145.495C355.236 146.184 354.431 146.644 353.627 146.644C352.247 146.644 351.213 145.495 351.213 144.116ZM351.673 143.656H355.58C355.465 142.737 354.546 141.932 353.627 141.932C352.707 142.047 351.903 142.737 351.673 143.656Z" fill="#263238"/>
<path d="M357.648 141.817C357.648 141.702 357.763 141.587 357.878 141.587C357.993 141.587 358.108 141.702 358.108 141.817V142.967C358.108 142.967 358.108 142.852 358.223 142.852C358.568 142.277 359.257 141.587 360.292 141.587C360.407 141.587 360.522 141.702 360.522 141.817C360.522 141.932 360.407 142.047 360.292 142.047C359.602 142.047 359.142 142.392 358.798 142.852C358.453 143.311 358.223 143.886 358.223 144.001V144.116V146.414C358.223 146.529 358.108 146.644 357.993 146.644C357.878 146.644 357.763 146.529 357.763 146.414V141.817H357.648Z" fill="#263238"/>
<path d="M186.525 118.717L186.41 118.602C186.41 118.602 186.41 118.602 186.41 118.487L186.295 118.372L186.18 118.257L181.238 106.42C181.009 105.845 181.238 105.156 181.813 104.926C182.388 104.696 182.962 104.926 183.307 105.501L187.215 114.924L191.122 105.501C191.352 104.926 192.041 104.696 192.616 104.926C193.191 105.156 193.421 105.845 193.191 106.42L188.134 118.257C188.134 118.257 188.134 118.372 188.019 118.372L187.904 118.487C187.904 118.487 187.904 118.487 187.904 118.602L187.789 118.717L187.674 118.832C187.559 118.832 187.559 118.832 187.559 118.832C187.444 118.832 187.444 118.832 187.33 118.832C187.215 118.832 187.215 118.832 187.1 118.832H186.985C186.64 118.832 186.525 118.832 186.525 118.717Z" fill="#263238"/>
<path d="M194.684 113.89C194.684 111.132 196.868 108.833 199.626 108.833C202.27 108.833 204.338 110.787 204.568 113.545V113.66C204.568 113.66 204.568 113.775 204.568 113.89C204.453 114.35 204.108 114.695 203.534 114.695H197.098C197.213 115.154 197.443 115.729 197.787 116.074C198.247 116.533 199.052 116.878 199.741 116.993C200.431 117.108 201.35 116.878 201.81 116.534C202.27 116.074 203.074 116.189 203.304 116.419C203.534 116.648 203.764 117.338 203.304 117.683C202.27 118.602 201.12 119.062 199.626 119.062C196.868 118.947 194.799 116.648 194.684 113.89ZM196.983 112.856H202.729C202.499 112.051 201.465 110.902 199.741 110.672C197.902 110.787 197.098 112.051 196.983 112.856Z" fill="#263238"/>
<path d="M213.648 109.868C213.648 110.442 213.188 110.902 212.613 110.902C212.154 110.902 211.694 111.017 211.349 111.247C211.004 111.477 210.66 111.821 210.43 112.166C209.97 112.856 209.74 113.545 209.625 113.89V117.798C209.625 118.372 209.166 118.832 208.476 118.832C207.901 118.832 207.442 118.372 207.442 117.798V109.753C207.442 109.178 207.901 108.718 208.476 108.718C209.051 108.718 209.625 109.178 209.625 109.753V109.868C209.74 109.753 209.855 109.523 210.085 109.408C210.775 108.948 211.579 108.604 212.613 108.604C213.188 108.833 213.648 109.293 213.648 109.868Z" fill="#263238"/>
<path d="M218.474 106.305C218.474 106.88 218.014 107.454 217.325 107.454C216.75 107.454 216.176 106.995 216.176 106.305V105.846C216.176 105.271 216.635 104.696 217.325 104.696C217.9 104.696 218.474 105.156 218.474 105.846V106.305ZM218.474 109.983V117.913C218.474 118.487 218.014 119.062 217.325 119.062C216.75 119.062 216.176 118.602 216.176 117.913V109.983C216.176 109.293 216.635 108.834 217.325 108.834C218.014 108.834 218.474 109.293 218.474 109.983Z" fill="#263238"/>
<path d="M225.255 108.144V108.374H225.83C226.405 108.374 226.979 108.834 226.979 109.523C226.979 110.098 226.519 110.673 225.83 110.673H225.255V117.798C225.255 118.373 224.796 118.947 224.106 118.947C223.531 118.947 222.957 118.488 222.957 117.798V110.673H222.382C221.808 110.673 221.233 110.213 221.233 109.523C221.233 108.949 221.693 108.374 222.382 108.374H222.957V108.144C222.957 107.34 223.072 106.765 223.302 106.191C223.531 105.616 224.106 105.156 224.796 104.926C225.255 104.812 225.6 104.812 226.06 104.812C226.634 104.812 227.209 105.271 227.209 105.961C227.209 106.535 226.749 107.11 226.06 107.11C225.83 107.11 225.6 107.11 225.485 107.225C225.37 107.225 225.37 107.225 225.37 107.34C225.485 107.11 225.255 107.455 225.255 108.144Z" fill="#263238"/>
<path d="M231.576 106.305C231.576 106.88 231.116 107.454 230.427 107.454C229.852 107.454 229.278 106.995 229.278 106.305V105.846C229.278 105.271 229.737 104.696 230.427 104.696C231.001 104.696 231.576 105.156 231.576 105.846V106.305ZM231.576 109.983V117.913C231.576 118.487 231.116 119.062 230.427 119.062C229.852 119.062 229.278 118.602 229.278 117.913V109.983C229.278 109.293 229.737 108.834 230.427 108.834C231.116 108.834 231.576 109.293 231.576 109.983Z" fill="#263238"/>
<path d="M234.334 113.89C234.334 111.017 236.632 108.833 239.505 108.833C240.77 108.833 241.804 109.293 242.723 109.983C243.183 110.328 243.298 111.017 242.953 111.477C242.493 111.936 241.919 112.051 241.459 111.707C240.885 111.362 240.31 111.017 239.505 111.017C237.896 111.017 236.517 112.396 236.517 113.89C236.517 115.499 237.896 116.763 239.505 116.763C240.195 116.763 240.885 116.533 241.459 116.074C241.919 115.729 242.608 115.844 242.953 116.304C243.298 116.763 243.183 117.453 242.723 117.798C241.804 118.372 240.77 118.832 239.505 118.832C236.632 118.947 234.334 116.648 234.334 113.89Z" fill="#263238"/>
<path d="M255.251 113.89V117.913C255.251 118.487 254.791 118.947 254.216 118.947C253.642 118.947 253.297 118.602 253.182 118.028C252.377 118.602 251.458 118.947 250.539 118.947C249.16 118.947 248.01 118.372 247.091 117.453C246.171 116.533 245.712 115.269 245.712 113.89C245.712 112.511 246.171 111.247 247.091 110.328C248.01 109.408 249.16 108.833 250.539 108.833C251.573 108.833 252.492 109.178 253.182 109.753C253.297 109.293 253.757 108.833 254.216 108.833C254.791 108.833 255.251 109.293 255.251 109.983V113.89ZM253.067 113.89C253.067 113.086 252.722 112.281 252.263 111.822C251.803 111.247 251.113 111.017 250.424 111.017C249.734 111.017 249.045 111.247 248.585 111.822C248.125 112.281 247.78 113.086 247.78 113.89C247.78 114.695 248.01 115.499 248.585 115.959C249.045 116.419 249.734 116.763 250.424 116.763C251.113 116.763 251.803 116.534 252.263 115.959C252.722 115.499 253.067 114.81 253.067 113.89Z" fill="#263238"/>
<path d="M263.755 109.983C263.755 110.557 263.18 111.132 262.605 111.132H262.146V116.763C262.72 116.763 263.295 117.223 263.295 117.913C263.295 118.602 262.835 119.062 262.146 119.062C260.882 119.062 259.847 118.028 259.847 116.763V111.132H259.273C258.698 111.132 258.123 110.672 258.123 109.983C258.123 109.408 258.583 108.834 259.273 108.834H259.847V105.846C259.847 105.271 260.307 104.696 260.997 104.696C261.571 104.696 262.146 105.156 262.146 105.846V108.834H262.605C263.18 108.834 263.755 109.293 263.755 109.983Z" fill="#263238"/>
<path d="M269.502 106.305C269.502 106.88 269.042 107.454 268.352 107.454C267.778 107.454 267.203 106.995 267.203 106.305V105.846C267.203 105.271 267.663 104.696 268.352 104.696C268.927 104.696 269.502 105.156 269.502 105.846V106.305ZM269.502 109.983V117.913C269.502 118.487 269.042 119.062 268.352 119.062C267.778 119.062 267.203 118.602 267.203 117.913V109.983C267.203 109.293 267.663 108.834 268.352 108.834C269.042 108.834 269.502 109.293 269.502 109.983Z" fill="#263238"/>
<path d="M273.983 117.453C273.063 116.533 272.604 115.269 272.604 113.89C272.604 112.511 273.178 111.362 273.983 110.328C274.902 109.408 276.051 108.833 277.431 108.833C278.81 108.833 279.959 109.408 280.763 110.328C281.683 111.247 282.142 112.511 282.142 113.89C282.142 115.269 281.683 116.533 280.763 117.453C279.959 118.372 278.695 118.947 277.431 118.947C276.051 119.062 274.902 118.487 273.983 117.453ZM274.787 113.89C274.787 114.81 275.017 115.499 275.477 116.074C275.936 116.533 276.626 116.878 277.431 116.878C278.12 116.878 278.81 116.648 279.269 116.074C279.729 115.499 280.074 114.81 280.074 113.89C280.074 113.086 279.844 112.281 279.269 111.822C278.81 111.362 278.12 111.017 277.431 111.017C276.626 111.017 275.936 111.362 275.477 111.822C275.017 112.396 274.787 113.086 274.787 113.89Z" fill="#263238"/>
<path d="M294.095 113.086V117.913C294.095 118.487 293.635 118.947 293.06 118.947C292.486 118.947 292.026 118.487 292.026 117.913V113.086C292.026 111.936 291.107 111.017 289.957 111.017C288.808 111.017 287.889 111.936 287.889 113.086V117.913C287.889 118.028 287.889 118.028 287.889 118.142C287.774 118.602 287.314 119.062 286.854 119.062C286.28 119.062 285.82 118.602 285.82 118.028V113.201V110.098C285.82 109.523 286.28 109.063 286.854 109.063C287.314 109.063 287.659 109.293 287.889 109.638C288.463 109.293 289.268 109.063 290.072 109.063C292.256 108.833 294.095 110.787 294.095 113.086Z" fill="#263238"/>
<path d="M501.419 45.0508C501.419 45.0508 493.834 105.501 481.422 119.063C466.481 135.382 455.678 132.969 449.702 141.358C443.726 132.969 432.923 135.382 417.983 118.948C405.571 105.387 397.986 44.9358 397.986 44.9358C430.74 29.0761 449.702 11.2627 449.702 11.2627C450.277 11.9522 469.24 29.4209 501.419 45.0508Z" fill="#FE9563"/>
<path opacity="0.1" d="M449.702 11.3779V141.359C443.726 132.969 432.923 135.382 417.983 118.948C405.571 105.387 397.986 44.9361 397.986 44.9361C430.74 29.0764 449.702 11.3779 449.702 11.3779Z" fill="#FF9564"/>
<path d="M406.031 49.8773C406.031 49.8773 412.352 100.904 422.925 112.397C435.567 126.188 444.646 124.119 449.703 131.244C454.759 124.119 463.953 126.188 476.48 112.397C486.938 100.904 493.374 49.8773 493.374 49.8773C465.792 36.431 449.703 21.4907 449.703 21.4907C449.703 21.4907 433.728 36.431 406.031 49.8773Z" fill="#FF7B3D"/>
<path d="M449.702 96.6525C460.873 96.6525 469.929 87.5966 469.929 76.4256C469.929 65.2546 460.873 56.1987 449.702 56.1987C438.531 56.1987 429.476 65.2546 429.476 76.4256C429.476 87.5966 438.531 96.6525 449.702 96.6525Z" fill="#455A64"/>
<path d="M447.404 89.527L438.44 80.1032L441.772 76.8852L446.714 82.0569L457.402 65.6226L461.31 68.1509L447.404 89.527Z" fill="white"/>
<path d="M493.375 132.509L490.501 133.084L489.927 136.072L489.237 133.084L486.364 132.509L489.237 131.819L489.927 128.946L490.501 131.819L493.375 132.509Z" fill="#FFC727"/>
<path d="M408.56 109.524L405.687 110.099L405.112 113.087L404.423 110.099L401.549 109.524L404.423 108.834L405.112 106.076L405.687 108.834L408.56 109.524Z" fill="#FFC727"/>
<path d="M421.661 29.9953L418.788 30.5699L418.098 33.558L417.523 30.5699L414.65 29.9953L417.523 29.3058L418.098 26.4326L418.788 29.3058L421.661 29.9953Z" fill="#FFC727"/>
<path d="M488.318 118.948L486.709 119.293L486.364 120.902L485.904 119.293L484.41 118.948L485.904 118.603L486.364 116.994L486.709 118.603L488.318 118.948Z" fill="#FFC727"/>
<path d="M499.35 85.3893L497.741 85.6191L497.396 87.343L497.052 85.6191L495.443 85.3893L497.052 84.9296L497.396 83.4355L497.741 84.9296L499.35 85.3893Z" fill="#FFC727"/>
<path d="M485.789 26.4327L484.18 26.7775L483.835 28.3865L483.491 26.7775L481.882 26.4327L483.491 26.088L483.835 24.479L484.18 26.088L485.789 26.4327Z" fill="#FFC727"/>
<path d="M444.876 148.713L443.267 148.943L442.922 150.667L442.578 148.943L440.969 148.713L442.578 148.253L442.922 146.645L443.267 148.253L444.876 148.713Z" fill="#FFC727"/>
<path d="M399.711 113.546L398.102 113.776L397.757 115.5L397.412 113.776L395.803 113.546L397.412 113.086L397.757 111.478L398.102 113.086L399.711 113.546Z" fill="#FFC727"/>
<path d="M402.124 66.7718L400.515 67.0016L400.17 68.7255L399.825 67.0016L398.216 66.7718L399.825 66.3121L400.17 64.7031L400.63 66.3121L402.124 66.7718Z" fill="#FFC727"/>
<path d="M469.355 126.533C468.781 126.533 468.781 127.452 469.355 127.452C469.93 127.452 469.93 126.533 469.355 126.533Z" fill="#FFC727"/>
<path d="M395.573 42.4072C394.998 42.4072 394.998 43.3266 395.573 43.3266C396.148 43.3266 396.148 42.4072 395.573 42.4072Z" fill="#FFC727"/>
<path d="M483.836 129.176C483.261 129.176 483.261 130.095 483.836 130.095C484.41 130.095 484.41 129.176 483.836 129.176Z" fill="#FFC727"/>
<path d="M436.831 56.6582C436.256 56.6582 436.256 57.5776 436.831 57.5776C437.405 57.5776 437.405 56.6582 436.831 56.6582Z" fill="#FFC727"/>
<path d="M393.849 75.3911C393.275 75.3911 393.275 76.3105 393.849 76.3105C394.424 76.3105 394.424 75.3911 393.849 75.3911Z" fill="#FFC727"/>
<path d="M383.046 70.3345C382.586 70.3345 382.586 71.024 383.046 71.024C383.506 70.9091 383.506 70.3345 383.046 70.3345Z" fill="#FFC727"/>
<path d="M471.539 20.3418C471.079 20.3418 471.079 21.0313 471.539 21.0313C471.998 21.0313 471.998 20.3418 471.539 20.3418Z" fill="#FFC727"/>
<path d="M425.799 132.739C425.339 132.739 425.339 133.428 425.799 133.428C426.143 133.428 426.143 132.739 425.799 132.739Z" fill="#FFC727"/>
<path d="M415.455 126.763C414.306 126.763 414.306 128.487 415.455 128.487C416.604 128.487 416.604 126.763 415.455 126.763Z" fill="#FFC727"/>
<path opacity="0.2" d="M493.672 49.8778C493.672 49.8778 487.351 100.905 476.778 112.397C464.251 126.188 455.057 124.12 450 131.245V21.4912C450.575 21.9509 466.549 36.6614 493.672 49.8778Z" fill="white"/>
<path d="M194.568 204.452V223.76H199.625V232.609L208.474 223.76H268.35V204.452H194.568Z" fill="white"/>
<path d="M194.568 204.452C194.568 211.003 194.798 217.439 194.798 223.76L194.568 223.53H199.625H199.855V223.76V232.609L199.395 232.379L208.129 223.53C208.244 223.415 208.244 223.415 208.359 223.415C223.299 223.415 253.295 223.3 268.235 223.3L267.775 223.76V204.452L268.12 204.797C249.962 204.797 212.956 204.567 194.568 204.452ZM194.568 204.452L231.344 204.223L268.35 204.108H268.695V204.452V223.76V224.22H268.235H238.355C238.469 224.105 207.555 224.335 208.704 224.105L199.855 232.839L199.395 233.299V232.609V223.76L199.625 223.99H194.568H194.338V223.76C194.338 217.324 194.453 210.888 194.568 204.452Z" fill="#FE9563"/>
<path d="M207.441 211.463V214.106H206.751V211.463C206.751 210.429 205.946 209.624 205.027 209.624C204.108 209.624 203.303 210.429 203.303 211.463V214.106H202.614V211.463C202.614 210.084 203.648 208.935 205.027 208.935C206.406 208.935 207.441 210.084 207.441 211.463Z" fill="#FE9563"/>
<path d="M202.614 212.153H203.418V214.106H202.614V212.153Z" fill="#263238"/>
<path d="M207.44 212.382V214.106H206.75V212.267L207.44 212.382Z" fill="#263238"/>
<path d="M208.36 213.072H201.695V218.588H208.36V213.072Z" fill="#FE9563"/>
<path d="M219.046 211.807C218.127 213.646 216.747 215.025 214.909 215.945C215.828 214.221 217.207 212.842 219.046 211.807Z" fill="#FE9563"/>
<path d="M214.909 211.807C216.747 212.727 218.127 214.106 219.046 215.945C217.207 215.025 215.828 213.646 214.909 211.807Z" fill="#FE9563"/>
<path d="M219.85 213.876C217.897 214.451 215.943 214.451 213.989 213.876C215.943 213.301 218.012 213.301 219.85 213.876Z" fill="#FE9563"/>
<path d="M216.977 211.003C217.551 212.957 217.551 214.91 216.977 216.864C216.402 214.91 216.402 212.957 216.977 211.003Z" fill="#FE9563"/>
<path d="M229.161 211.808C228.241 213.646 226.862 215.026 225.023 215.945C225.943 214.221 227.322 212.842 229.161 211.808Z" fill="#FE9563"/>
<path d="M225.023 211.808C226.862 212.727 228.241 214.106 229.161 215.945C227.322 215.026 225.943 213.646 225.023 211.808Z" fill="#FE9563"/>
<path d="M230.08 213.876C228.126 214.451 226.172 214.451 224.219 213.876C226.057 213.302 228.126 213.302 230.08 213.876Z" fill="#FE9563"/>
<path d="M227.091 211.003C227.666 212.957 227.666 214.91 227.091 216.864C226.517 214.91 226.517 212.957 227.091 211.003Z" fill="#FE9563"/>
<path d="M239.274 211.808C238.354 213.646 236.975 215.026 235.136 215.945C236.056 214.221 237.55 212.842 239.274 211.808Z" fill="#FE9563"/>
<path d="M235.136 211.808C236.975 212.727 238.354 214.106 239.274 215.945C237.55 215.026 236.056 213.646 235.136 211.808Z" fill="#FE9563"/>
<path d="M240.193 213.876C238.239 214.451 236.285 214.451 234.332 213.876C236.285 213.302 238.239 213.302 240.193 213.876Z" fill="#FE9563"/>
<path d="M237.204 211.003C237.779 212.957 237.779 214.91 237.204 216.864C236.63 214.91 236.63 212.957 237.204 211.003Z" fill="#FE9563"/>
<path d="M249.387 211.808C248.467 213.646 247.088 215.026 245.25 215.945C246.169 214.221 247.663 212.842 249.387 211.808Z" fill="#FE9563"/>
<path d="M245.25 211.808C247.088 212.727 248.467 214.106 249.387 215.945C247.663 215.026 246.169 213.646 245.25 211.808Z" fill="#FE9563"/>
<path d="M250.306 213.876C248.352 214.451 246.399 214.451 244.445 213.876C246.399 213.302 248.352 213.302 250.306 213.876Z" fill="#FE9563"/>
<path d="M247.318 211.003C247.892 212.957 247.892 214.91 247.318 216.864C246.743 214.91 246.743 212.957 247.318 211.003Z" fill="#FE9563"/>
<path d="M259.5 211.807C258.58 213.646 257.201 215.025 255.362 215.945C256.397 214.221 257.776 212.842 259.5 211.807Z" fill="#FE9563"/>
<path d="M255.362 211.807C257.201 212.727 258.58 214.106 259.5 215.945C257.776 215.025 256.397 213.646 255.362 211.807Z" fill="#FE9563"/>
<path d="M260.419 213.876C258.465 214.451 256.511 214.451 254.558 213.876C256.511 213.301 258.465 213.301 260.419 213.876Z" fill="#FE9563"/>
<path d="M257.432 211.003C258.006 212.957 258.006 214.91 257.432 216.864C256.857 214.91 256.857 212.957 257.432 211.003Z" fill="#FE9563"/>
<path d="M113.775 437.981L47.3485 491.421H51.141L127.796 437.981H113.775Z" fill="#53595B"/>
<path d="M119.982 437.981L87.2278 491.421H90.9054L131.129 437.981H119.982Z" fill="#53595B"/>
<path d="M136.071 437.981L168.825 491.421H165.147L124.923 437.981H136.071Z" fill="#53595B"/>
<path d="M141.817 437.981L208.129 491.421H204.451L127.796 437.981H141.817Z" fill="#C7C7C7"/>
<path d="M252.605 418.328V402.699L161.469 398.906L113.316 270.419H2.9873L42.0619 418.328L135.266 444.531H141.128L252.605 418.328Z" fill="#455A64"/>
<path opacity="0.1" d="M2.9873 270.419H15.6291L56.3127 405.227L138.714 428.557L252.605 402.699V418.328L141.128 444.531H135.266L42.0619 418.328L2.9873 270.419Z" fill="black"/>
<path d="M202.959 515.785C200.2 514.751 137.566 463.494 136.417 460.046C135.957 458.782 142.853 449.243 151.587 437.866C153.426 435.452 155.379 432.924 157.448 430.396C170.435 413.961 184.57 396.722 184.57 396.722L226.518 430.855L198.247 463.609L192.041 470.849C192.041 470.849 207.211 501.19 208.015 505.097C208.935 509.004 205.717 516.819 202.959 515.785Z" fill="#AD6359"/>
<path d="M202.959 515.785C200.2 514.751 137.566 463.494 136.417 460.046C135.842 458.437 146.185 444.646 157.448 430.396L198.247 463.609L192.041 470.849C192.041 470.849 207.211 501.19 208.015 505.097C208.935 509.004 205.717 516.819 202.959 515.785Z" fill="#EBEBEB"/>
<path d="M202.958 515.785C200.2 514.751 137.566 463.494 136.416 460.046C135.957 458.782 142.852 449.243 151.587 437.866L192.04 470.849C192.04 470.849 207.21 501.19 208.015 505.097C208.934 509.005 205.716 516.819 202.958 515.785Z" fill="#FE9563"/>
<path d="M204.108 512.567C193.879 503.718 151.587 469.011 140.669 461.081C140.554 460.966 140.554 461.081 140.669 461.196C150.667 470.16 193.19 504.523 203.993 512.797C204.223 512.912 204.338 512.682 204.108 512.567Z" fill="#263238"/>
<path d="M205.947 499.466C203.533 497.282 200.201 496.478 197.557 496.937C195.144 497.282 192.386 498.431 190.662 500.615C190.662 500.73 190.777 500.73 190.777 500.73C194.684 497.167 201.465 496.593 205.832 499.696C205.947 499.696 206.062 499.581 205.947 499.466Z" fill="#263238"/>
<path d="M195.258 475.217C191.121 471.769 185.03 469.241 179.628 470.505C179.399 470.505 179.514 470.85 179.628 470.85C185.03 471.999 189.857 473.493 194.914 475.791C195.258 475.906 195.603 475.447 195.258 475.217Z" fill="#263238"/>
<path d="M197.557 479.124C193.42 475.676 187.329 473.148 181.927 474.412C181.697 474.412 181.812 474.757 181.927 474.757C187.329 475.906 192.155 477.4 197.212 479.699C197.557 479.814 197.787 479.354 197.557 479.124Z" fill="#263238"/>
<path d="M199.741 483.032C195.604 479.584 189.512 477.056 184.111 478.32C183.881 478.32 183.996 478.665 184.111 478.665C189.512 479.814 194.339 481.308 199.396 483.606C199.741 483.721 199.971 483.262 199.741 483.032Z" fill="#263238"/>
<path d="M201.924 486.939C197.786 483.491 191.695 480.963 186.294 482.227C186.064 482.227 186.179 482.572 186.294 482.572C191.695 483.721 196.522 485.215 201.579 487.514C201.924 487.629 202.154 487.169 201.924 486.939Z" fill="#263238"/>
<path d="M151.587 453.266C146.875 449.473 140.899 456.714 145.61 460.621C150.322 464.414 156.299 457.058 151.587 453.266Z" fill="white"/>
<path d="M209.049 467.632C208.36 464.184 204.337 463.609 201.464 464.414C196.867 465.678 192.04 468.551 188.822 471.999C188.708 472.114 188.822 472.229 188.822 472.229C188.708 472.573 188.822 473.148 189.282 473.148C193.994 473.493 198.936 474.527 203.533 473.493C206.406 472.918 209.624 470.964 209.049 467.632ZM196.522 472.344C194.224 472.229 191.925 471.999 189.627 471.884C192.04 470.39 194.454 468.781 197.097 467.632C198.361 467.057 199.625 466.482 201.005 466.023C203.073 465.333 210.084 465.218 206.751 470.16C204.797 472.918 199.281 472.573 196.522 472.344Z" fill="#263238"/>
<path d="M177.1 465.103C180.318 468.666 184.915 470.735 188.937 473.148C189.397 473.378 189.742 473.033 189.856 472.688C189.971 472.688 190.086 472.688 189.971 472.574C189.282 467.976 187.098 462.69 183.995 459.127C182.156 456.944 178.479 454.875 175.95 457.403C173.652 459.472 175.261 463.035 177.1 465.103ZM176.525 460.621C176.64 454.645 182.271 458.782 183.536 460.506C184.34 461.656 185.144 462.805 185.834 464.069C187.213 466.597 188.247 469.241 189.512 471.884C187.558 470.62 185.604 469.471 183.65 468.206C181.237 466.712 176.525 463.839 176.525 460.621Z" fill="#263238"/>
<path d="M270.074 366.727C266.856 388.678 211.922 451.542 205.601 458.782C204.682 459.817 204.107 460.391 204.107 460.391L159.746 425.339L160.32 424.649L200.429 373.393L82.6309 371.209L127.797 336.961C127.797 336.961 131.359 339.145 138.944 338.111C165.032 334.663 223.759 326.963 237.55 327.652C255.249 328.687 273.062 346.5 270.074 366.727Z" fill="#263238"/>
<path d="M214.795 354.43C213.301 355.924 212.037 357.878 210.658 359.601C209.279 361.44 207.785 363.164 206.406 365.003C206.636 364.428 206.866 363.969 207.21 363.394C208.13 361.555 208.819 359.716 209.854 357.992C209.969 357.878 209.739 357.763 209.739 357.878C208.704 359.601 207.44 361.21 206.406 363.049C205.946 363.854 205.601 364.773 205.142 365.692C204.912 366.152 204.682 366.612 204.567 367.186C204.452 367.416 204.337 367.646 204.337 367.876C203.648 368.681 203.073 369.6 202.498 370.404C201.119 372.358 199.97 374.312 198.591 376.266C198.476 376.38 198.706 376.495 198.706 376.38C200.085 374.657 201.694 372.933 203.073 371.209C204.452 369.37 205.831 367.531 207.21 365.692C208.475 363.854 209.854 362.015 211.118 360.176C212.267 358.337 213.761 356.498 214.795 354.43C214.91 354.43 214.795 354.315 214.795 354.43Z" fill="#37474F"/>
<path d="M210.313 450.048C207.785 447.864 205.027 445.795 202.383 443.727C199.74 441.658 196.982 439.589 194.339 437.636C188.937 433.613 183.536 429.476 178.134 425.454C175.146 423.27 172.158 421.086 169.055 419.133C168.94 419.018 168.825 419.248 168.94 419.362C174.112 423.73 179.513 427.752 184.915 431.774C190.316 435.797 195.718 439.819 201.234 443.842C204.222 446.025 207.21 448.209 210.313 450.277C210.313 450.392 210.428 450.162 210.313 450.048Z" fill="#37474F"/>
<path d="M114.581 279.039C126.763 302.369 141.358 326.963 155.034 330.64C168.136 334.088 199.166 301.449 204.452 290.646C206.291 286.969 181.697 270.534 178.134 273.293C171.584 278.464 157.218 294.898 155.149 294.439C152.966 293.979 135.612 278.464 119.867 265.363C110.443 257.548 106.191 262.949 114.581 279.039Z" fill="#AD6359"/>
<path d="M182.731 235.482L173.307 268.466C172.962 269.385 173.422 270.189 174.342 270.304L191.465 270.879C192.385 270.879 193.534 270.189 193.879 269.155L203.303 236.171C203.648 235.252 203.188 234.448 202.268 234.333L185.145 233.758C184.225 233.758 183.076 234.563 182.731 235.482Z" fill="#A6A6A6"/>
<path d="M184.8 235.597L175.376 268.581C175.031 269.5 175.491 270.304 176.41 270.419L193.534 270.994C194.453 270.994 195.603 270.304 195.947 269.27L205.371 236.286C205.716 235.367 205.256 234.563 204.337 234.448L187.213 233.873C186.179 233.873 185.144 234.563 184.8 235.597Z" fill="#DBDBDB"/>
<path d="M189.397 237.206C189.397 238.01 188.707 238.585 187.903 238.585C187.098 238.585 186.524 237.895 186.524 237.091C186.524 236.286 187.213 235.712 188.018 235.712C188.822 235.712 189.397 236.401 189.397 237.206Z" fill="#455A64"/>
<path d="M212.497 271.913C213.991 262.374 212.842 259.616 218.358 252.261C221.921 247.434 220.427 242.952 214.681 245.71C205.372 250.192 200.89 262.144 200.545 266.742L212.497 271.913Z" fill="#AD6359"/>
<path d="M200.084 297.082C200.084 297.082 209.049 286.624 211.577 276.625C213.301 269.73 215.484 254.1 200.314 239.045C196.752 235.482 189.052 232.954 192.844 240.884C195.487 246.515 198.935 249.388 199.855 252.951C199.855 252.951 189.741 250.882 186.293 254.675C184.799 256.399 180.662 260.996 178.019 265.133C178.019 265.133 178.708 265.937 179.858 266.857C179.858 266.857 176.984 270.649 177.559 277.89L200.084 297.082Z" fill="#AD6359"/>
<path d="M212.267 269.73C210.543 266.397 206.865 259.386 201.809 254.674C196.177 249.503 183.995 240.883 180.203 245.021C177.445 248.124 181.812 251.801 181.812 251.801C181.812 251.801 176.065 249.273 174.112 252.606C172.388 255.594 175.95 258.237 175.95 258.237C175.95 258.237 172.158 257.318 171.009 260.536C169.63 264.443 177.789 265.707 179.858 270.764C180.203 272.028 212.267 269.73 212.267 269.73Z" fill="#AD6359"/>
<path d="M197.212 261.455C195.143 258.582 188.592 253.181 181.812 251.687C181.697 251.687 181.582 251.801 181.697 251.801C188.822 255.019 194.798 259.501 197.212 261.455Z" fill="#263238"/>
<path d="M191.81 266.972C189.742 264.673 182.846 259.501 175.836 258.122C175.721 258.122 175.606 258.237 175.721 258.237C183.306 261.34 189.282 265.133 191.81 266.972Z" fill="#263238"/>
<path d="M169.745 277.545L195.373 304.782C195.373 304.782 168.25 335.122 155.609 332.019C142.852 328.801 118.833 294.439 111.133 272.603C105.846 257.433 114.236 259.961 123.085 267.316C131.934 274.786 155.034 293.174 156.068 292.83C156.988 292.485 169.745 277.545 169.745 277.545Z" fill="#FE9563"/>
<path opacity="0.1" d="M161.125 331.674C159.171 332.249 157.218 332.364 155.609 331.904C142.852 328.686 118.833 294.324 111.133 272.488C107.57 262.489 110.098 260.191 114.695 261.915C128.601 282.371 146.989 309.954 161.125 331.674Z" fill="black"/>
<path d="M187.098 309.264C183.421 305.472 168.71 289.612 165.837 285.934C165.607 285.704 165.722 285.474 165.952 285.704C177.329 296.622 183.765 305.242 187.213 309.034C187.328 309.264 187.213 309.379 187.098 309.264Z" fill="#263238"/>
<path d="M143.197 352.706C143.197 352.706 58.9569 368.106 58.4972 367.646C58.1524 367.187 67.8061 276.051 96.3076 260.651C100.79 258.237 111.823 256.743 116.42 261.57C129.866 275.131 144.231 351.442 143.197 352.706Z" fill="#FE9563"/>
<path d="M142.278 345.121L59.302 359.372C59.6468 356.843 59.9916 353.855 60.5662 350.522L140.784 336.731C141.359 339.949 141.933 342.822 142.278 345.121Z" fill="#EBEBEB"/>
<path d="M139.865 332.364L61.3705 345.81C61.6003 344.316 61.8302 342.822 62.175 341.213L139.06 327.997C139.29 329.491 139.635 330.985 139.865 332.364Z" fill="#EBEBEB"/>
<path d="M112.742 275.361C108.03 275.361 102.054 266.742 100.33 260.421C100.215 259.961 101.709 256.169 103.433 251.342C104.467 248.469 105.502 245.251 106.191 242.148L124.005 251.342C124.005 251.342 120.557 257.203 119.408 262.489C119.293 262.949 119.293 263.409 119.293 263.754C119.293 263.869 119.293 263.869 119.293 263.984C119.063 266.627 117.339 275.361 112.742 275.361Z" fill="#AD6359"/>
<path d="M124.12 251.571C124.12 251.571 120.672 257.433 119.523 262.719C119.408 263.179 119.408 263.524 119.408 263.983C119.408 264.098 119.408 264.098 119.408 264.213C118.834 264.213 118.144 264.098 117.454 263.868C106.422 260.995 106.651 246.515 106.881 242.607L124.12 251.571Z" fill="#263238"/>
<path d="M105.502 221.461C102.629 228.127 104.123 248.354 108.49 253.295C114.926 260.536 126.418 262.375 132.854 254.445C139.06 246.745 136.761 220.427 131.705 215.715C124.235 209.049 109.754 211.693 105.502 221.461Z" fill="#AD6359"/>
<path d="M124.005 236.057L123.89 236.172C124.005 237.551 124.005 239.045 122.856 239.62V239.735C124.35 239.39 124.35 237.321 124.005 236.057Z" fill="#263238"/>
<path d="M122.626 234.793C120.442 234.793 120.672 239.16 122.741 239.16C124.695 239.16 124.465 234.793 122.626 234.793Z" fill="#263238"/>
<path d="M131.936 235.597C131.936 235.597 132.051 235.712 131.936 235.597C132.051 237.091 132.28 238.585 133.545 239.044V239.159C132.051 239.044 131.706 236.976 131.936 235.597Z" fill="#263238"/>
<path d="M133.085 234.218C135.268 233.988 135.613 238.355 133.659 238.585C131.705 238.815 131.246 234.448 133.085 234.218Z" fill="#263238"/>
<path d="M120.788 232.839C121.362 232.609 121.937 232.379 122.396 232.149C123.086 231.919 123.546 231.69 124.005 231.115C124.235 230.77 124.12 230.196 123.776 229.966C123.086 229.391 122.282 229.506 121.477 229.851C120.673 230.196 120.098 230.655 119.638 231.46C119.179 232.264 119.983 233.069 120.788 232.839Z" fill="#263238"/>
<path d="M134.693 231.919C134.118 231.805 133.544 231.69 132.969 231.575C132.28 231.46 131.705 231.345 131.245 230.885C131.015 230.655 131.015 230.081 131.245 229.736C131.82 229.046 132.739 229.046 133.544 229.161C134.463 229.276 135.038 229.621 135.727 230.31C136.187 231 135.498 231.919 134.693 231.919Z" fill="#263238"/>
<path d="M123.201 248.124C123.431 248.469 123.775 248.928 124.235 249.043C124.695 249.158 125.269 249.043 125.729 248.928C125.729 248.928 125.844 248.928 125.729 249.043C125.269 249.503 124.58 249.733 123.89 249.503C123.316 249.273 123.086 248.698 122.971 248.124C123.086 248.124 123.086 248.124 123.201 248.124Z" fill="#263238"/>
<path d="M124.694 244.216C125.499 245.366 126.648 245.94 127.912 246.055C128.487 246.17 129.061 246.17 129.636 246.055C129.751 246.055 130.096 245.94 130.211 245.94C130.325 245.94 130.44 245.825 130.44 245.595L130.211 242.722C130.555 242.837 132.624 243.642 132.509 243.067C132.049 238.585 131.475 233.528 129.981 229.161C129.981 229.046 129.751 229.046 129.751 229.161C130.096 233.528 131.13 237.781 131.59 242.148C130.9 241.918 129.866 241.573 129.406 241.573C129.291 241.573 129.751 245.136 129.751 245.136C128.027 245.481 126.648 245.021 124.924 243.872C124.694 243.987 124.579 244.101 124.694 244.216Z" fill="#263238"/>
<path d="M129.062 245.826C129.062 245.826 128.142 247.09 126.763 247.664C126.303 247.894 125.729 247.894 125.154 247.779C124.005 247.434 124.005 246.4 124.235 245.596C124.35 244.906 124.694 244.217 124.694 244.217C124.694 244.217 126.418 245.711 129.062 245.826Z" fill="#263238"/>
<path d="M126.763 247.664C126.303 247.894 125.729 247.894 125.154 247.779C124.005 247.435 124.005 246.4 124.235 245.596C125.499 245.596 126.648 246.4 126.763 247.664Z" fill="#FF9CBD"/>
<path d="M103.663 239.849C108.95 240.309 111.708 233.988 110.559 228.931C110.559 228.931 124.58 230.885 125.384 219.622C125.384 219.622 128.717 224.794 135.153 224.909L136.072 228.816C137.566 228.357 139.06 224.334 135.612 221.116C135.612 221.116 135.383 215.485 131.245 212.037C127.108 208.59 122.971 210.773 122.971 210.773C122.971 210.773 119.638 208.015 114.466 208.59C109.295 209.164 107.111 213.876 107.111 213.876C107.111 213.876 100.101 215.14 98.9513 220.082C97.6871 225.024 100.215 228.357 100.215 228.357C100.215 228.357 98.4916 230.31 99.296 234.563C99.8707 237.436 102.054 239.734 103.663 239.849Z" fill="#263238"/>
<path d="M125.039 218.588C125.154 219.507 125.154 220.427 125.039 221.346C124.924 222.266 124.809 223.185 124.464 223.989C123.89 225.713 122.74 227.207 121.131 228.012C119.637 228.931 117.684 229.161 115.96 229.276C115.04 229.276 114.121 229.276 113.202 229.161C112.282 229.046 111.363 228.931 110.443 228.816C111.363 229.046 112.282 229.276 113.202 229.391C114.121 229.506 115.04 229.621 115.96 229.621C117.799 229.506 119.752 229.391 121.476 228.471C123.2 227.552 124.464 225.828 124.924 223.989C125.499 222.265 125.384 220.312 125.039 218.588Z" fill="#263238"/>
<path d="M132.165 225.139C130.556 224.564 129.177 223.875 127.913 222.84C127.338 222.381 126.764 221.806 126.304 221.116C125.844 220.427 125.499 219.737 125.155 218.933C125.27 219.737 125.499 220.657 125.844 221.346C126.304 222.151 126.764 222.725 127.453 223.3C128.143 223.875 128.832 224.334 129.637 224.564C130.556 224.909 131.361 225.139 132.165 225.139Z" fill="#263238"/>
<path d="M121.361 242.952C118.718 242.837 116.42 240.884 115.845 238.24C115.155 235.022 117.224 231.919 120.442 231.23C123.66 230.54 126.763 232.609 127.452 235.827C128.142 239.045 126.073 242.148 122.855 242.837C122.281 242.952 121.821 242.952 121.361 242.952ZM121.821 231.919C121.361 231.919 121.017 231.919 120.557 232.034C117.799 232.609 115.96 235.252 116.534 238.125C117.109 240.884 119.752 242.722 122.625 242.148C125.384 241.573 127.223 238.93 126.648 236.057C126.188 233.643 124.12 232.034 121.821 231.919Z" fill="#FFC727"/>
<path d="M134.808 241.918C132.51 241.803 130.556 239.389 130.441 236.286C130.326 234.677 130.671 233.183 131.36 232.034C132.165 230.885 133.199 230.08 134.348 230.08C135.498 229.965 136.762 230.54 137.566 231.689C138.486 232.724 138.945 234.218 139.06 235.712C139.29 238.93 137.451 241.688 135.038 241.918C135.038 241.918 134.923 241.918 134.808 241.918ZM134.808 230.885C134.693 230.885 134.578 230.885 134.463 230.885C133.544 231 132.624 231.574 132.05 232.494C131.36 233.528 131.13 234.792 131.245 236.171C131.475 239.045 133.199 241.228 135.153 240.998C137.107 240.883 138.601 238.47 138.371 235.597C138.256 234.218 137.796 232.953 136.992 232.034C136.417 231.459 135.612 231 134.808 230.885Z" fill="#FFC727"/>
<path d="M127.223 236.516L126.648 235.942C127.453 235.137 129.521 233.988 131.015 235.367L130.441 235.942C129.176 234.792 127.338 236.516 127.223 236.516Z" fill="#FFC727"/>
<path d="M102.284 239.964L101.595 239.619C101.71 239.274 103.089 236.286 104.813 235.941C106.421 235.597 115.845 235.712 116.305 235.712V236.516C113.202 236.401 106.192 236.401 104.927 236.746C103.778 236.976 102.629 239.159 102.284 239.964Z" fill="#FFC727"/>
<path d="M108.606 239.504C108.606 239.504 104.698 232.609 101.595 233.988C98.4921 235.367 101.02 245.021 104.353 246.515C107.686 248.124 109.18 245.021 109.18 245.021L108.606 239.504Z" fill="#AD6359"/>
<path d="M102.4 236.746C102.285 236.746 102.4 236.631 102.4 236.746C104.698 238.01 105.732 240.424 106.422 242.722C105.732 241.803 104.813 241.228 103.549 241.918C103.434 241.918 103.549 242.033 103.549 242.033C104.583 241.918 105.273 242.148 105.847 242.952C106.307 243.527 106.537 244.331 106.767 245.021C106.882 245.251 107.226 245.136 107.226 244.906C107.226 244.906 107.226 244.906 107.226 244.791C107.686 241.803 105.617 237.321 102.4 236.746Z" fill="#263238"/>
<path d="M119.523 266.282C119.293 270.075 118.603 278.924 112.397 277.775C109.869 277.315 107.8 275.591 106.076 273.867C104.237 272.143 100.445 267.316 97.8016 262.03C97.8016 261.915 97.5718 262.03 97.6867 262.145C98.1464 263.639 99.1807 266.167 100.675 268.581C102.054 270.879 103.778 273.063 105.731 274.901C107.57 276.625 109.869 278.349 112.512 278.809C115.04 279.154 116.994 277.889 118.029 275.706C119.408 272.833 119.752 269.385 119.523 266.282Z" fill="#263238"/>
<path d="M86.8837 267.891C73.7822 279.383 39.9941 324.779 48.2688 334.548C56.6583 344.316 108.605 337.536 123.545 332.134C128.027 330.525 114.466 302.483 109.639 301.334C105.502 300.415 83.321 308 82.8613 306.736C82.2867 305.242 86.6538 295.473 93.6643 277.43C101.594 256.743 92.7449 262.834 86.8837 267.891Z" fill="#AD6359"/>
<path d="M131.591 294.898C142.049 294.553 144.807 296.047 153.426 290.991C159.058 287.658 163.655 289.841 159.977 295.703C154.001 305.126 140.67 308.574 135.613 308.344L131.591 294.898Z" fill="#AD6359"/>
<path d="M103.204 302.024C103.204 302.024 115.501 296.737 126.534 295.243C134.234 294.209 151.243 293.749 165.609 311.907C169.056 316.159 170.78 324.779 162.735 319.722C156.989 316.159 154.346 312.137 150.668 310.758C150.668 310.758 151.703 321.906 147.221 325.124C145.267 326.618 139.75 330.41 135.038 332.824C135.038 332.824 134.234 331.904 133.429 330.64C133.429 330.64 128.947 333.283 121.247 331.789L103.204 302.024Z" fill="#AD6359"/>
<path d="M134.004 295.473C137.452 297.656 144.577 302.598 148.944 308.574C153.886 315.24 161.586 329.376 156.644 332.939C152.967 335.582 149.634 330.41 149.634 330.41C149.634 330.41 151.588 336.961 147.795 338.57C144.347 340.064 141.934 335.927 141.934 335.927C141.934 335.927 142.394 340.064 138.831 340.868C134.464 341.903 134.119 332.939 128.832 330.18C127.683 329.606 134.004 295.473 134.004 295.473Z" fill="#AD6359"/>
<path d="M141.129 312.482C144.002 315.125 148.944 322.711 149.748 330.181C149.748 330.296 149.634 330.411 149.634 330.296C146.875 322.366 142.853 315.47 141.129 312.482C141.014 312.597 141.014 312.482 141.129 312.482Z" fill="#263238"/>
<path d="M134.463 317.769C136.646 320.297 141.473 328.342 142.048 335.927C142.048 336.042 141.933 336.157 141.933 336.042C139.52 327.538 136.187 320.757 134.463 317.769C134.463 317.769 134.463 317.654 134.463 317.769Z" fill="#263238"/>
<path d="M150.552 310.643C153.77 312.022 155.839 313.861 158.482 316.045C159.746 317.194 161.125 318.228 162.505 319.262C163.769 320.182 165.722 321.446 167.331 320.412C168.251 319.837 168.366 318.688 168.251 317.768C168.136 316.734 167.331 314.665 166.757 313.746C166.757 313.746 166.757 313.631 166.872 313.746C167.331 314.551 168.366 316.389 168.596 317.309C168.825 318.113 168.94 319.148 168.596 319.952C167.906 321.791 165.722 321.791 164.228 321.101C163.309 320.757 162.505 320.067 161.7 319.607C160.896 319.033 160.206 318.458 159.516 317.883C158.022 316.619 156.643 315.355 155.149 314.091C153.425 312.712 152.276 312.022 150.552 310.643C150.552 310.643 150.437 310.758 150.552 310.643Z" fill="#263238"/>
<path d="M156.414 323.17C155.724 321.216 151.817 312.712 150.437 310.643C150.437 310.643 150.437 310.528 150.552 310.528C152.966 313.286 156.529 320.297 157.218 322.48C158.023 324.664 158.827 327.422 158.597 329.836C158.252 333.398 155.839 333.743 154.92 333.858C153.885 333.973 152.851 333.628 151.931 333.053C151.012 332.364 150.093 331.215 149.518 330.18C149.518 330.18 149.518 330.065 149.633 330.065C150.667 331.559 152.621 333.168 154.575 333.053C155.379 333.053 156.299 332.709 156.873 332.134C157.563 331.33 157.678 330.295 157.678 329.376C157.793 327.422 157.103 325.239 156.414 323.17Z" fill="#263238"/>
<path d="M103.203 302.024L116.075 337.88C116.075 337.88 51.0268 345.81 46.6596 334.203C42.2924 322.595 71.3685 281.682 83.7805 270.189C98.1462 256.858 99.2954 262.03 95.1581 274.672C90.7909 288.003 83.0909 306.966 83.0909 306.966L103.203 302.024Z" fill="#FE9563"/>
<path d="M62.7493 314.206C65.8523 312.482 69.1851 310.988 72.6329 309.724C75.9657 308.46 79.4135 307.54 82.8612 306.736C84.815 306.276 86.8836 305.931 88.8373 305.586C88.9523 305.586 88.9523 305.701 88.8373 305.701C85.2747 306.391 81.8269 307.425 78.4941 308.574C75.1612 309.724 71.7135 310.873 68.3806 312.137C66.5418 312.827 64.5881 313.631 62.7493 314.436C62.6344 314.321 62.6344 314.206 62.7493 314.206Z" fill="#263238"/>
<path d="M102.973 301.909C102.628 301.909 84.7 305.931 84.0104 306.161C84.1254 305.931 88.1478 296.967 88.7224 295.703C88.8373 295.588 88.8373 295.473 88.9522 295.358C89.297 294.784 89.7567 294.209 90.1015 293.634C90.5612 292.83 91.0209 292.14 91.4806 291.336C91.0209 292.025 90.5612 292.83 89.9866 293.519C89.7567 293.864 89.5269 294.209 89.297 294.554C89.7567 293.634 90.1015 292.715 90.4463 291.796C91.0209 290.302 91.5955 288.808 92.1701 287.314C92.1701 287.314 92.1701 287.199 92.0552 287.314C90.906 289.957 89.6418 292.485 88.3776 295.128C87.2284 297.772 82.6313 307.311 82.6313 307.311C82.6313 307.311 102.513 302.484 102.858 302.369C103.203 302.139 103.203 301.909 102.973 301.909Z" fill="#263238"/>
<path d="M101.939 324.434C100.56 320.412 99.181 316.39 97.572 312.482C96.6526 310.184 95.8481 308 94.9287 305.701C94.9287 305.587 94.6989 305.701 94.8138 305.701C96.078 309.724 97.3422 313.861 98.7213 317.884C100.1 321.906 101.594 325.928 103.088 329.836C103.893 332.134 104.812 334.318 105.847 336.501H105.962C104.812 332.479 103.318 328.457 101.939 324.434Z" fill="#263238"/>
<path d="M116.765 338.57C116.19 337.421 115.615 335.812 115.041 334.778C114.926 334.433 114.696 334.548 114.811 334.778C115.156 335.812 115.5 336.846 115.845 337.881C114.926 337.996 114.006 337.996 113.087 338.111C112.053 338.225 111.018 338.34 109.984 338.455C107.915 338.685 105.847 338.915 103.778 339.03C99.6406 339.375 95.3884 339.605 91.2511 339.834C82.8615 340.179 74.3571 340.179 65.9675 339.719C63.669 339.605 61.2556 339.375 58.9571 339.145C56.5436 338.915 54.0153 338.57 52.0615 338.111C51.9466 338.111 51.9466 338.225 52.0615 338.225C54.0153 338.8 55.969 339.26 58.0377 339.605C60.1063 339.949 62.2899 340.179 64.3586 340.409C68.6108 340.754 72.863 340.984 77.1153 340.984C85.5048 341.099 94.0093 340.754 102.399 340.179C104.697 339.949 107.111 339.834 109.409 339.605C110.559 339.49 111.823 339.375 112.972 339.26C114.006 338.915 116.879 338.685 116.765 338.57Z" fill="#263238"/>
<path d="M200.658 337.765H118.716V341.443H200.658V337.765Z" fill="#C7C7C7"/>
<path d="M200.658 337.765V341.443H144.919L147.678 337.765H200.658Z" fill="#A6A6A6"/>
<path d="M156.182 341.443H227.895L238.239 290.876H166.525L156.182 341.443Z" fill="#A6A6A6"/>
<path d="M159.516 341.443H231.229L241.572 290.876H169.859L159.516 341.443Z" fill="#C7C7C7"/>
<path d="M206.979 314.206C207.094 316.619 205.485 318.918 203.416 319.262C201.348 319.722 199.624 318.113 199.624 315.7C199.509 313.286 201.118 310.988 203.187 310.643C205.255 310.298 206.979 311.907 206.979 314.206Z" fill="white"/>
<path d="M367.531 446.485C366.496 449.243 315.01 511.648 311.562 512.797C310.298 513.257 300.759 506.246 289.496 497.512C287.083 495.673 284.555 493.604 282.026 491.651C265.592 478.664 248.468 464.413 248.468 464.413L282.716 422.581L315.355 450.967L322.48 457.173C322.48 457.173 352.82 442.118 356.843 441.313C360.75 440.394 368.68 443.612 367.531 446.485Z" fill="#AD6359"/>
<path d="M367.531 446.485C366.497 449.243 315.01 511.648 311.562 512.797C309.953 513.372 296.277 502.914 282.026 491.651L315.355 450.967L322.48 457.173C322.48 457.173 352.82 442.118 356.843 441.314C360.75 440.394 368.68 443.612 367.531 446.485Z" fill="#EBEBEB"/>
<path d="M367.531 446.485C366.497 449.243 315.01 511.648 311.562 512.797C310.298 513.257 300.759 506.246 289.497 497.512L322.595 457.173C322.595 457.173 352.935 442.118 356.958 441.313C360.75 440.394 368.68 443.612 367.531 446.485Z" fill="#FE9563"/>
<path d="M364.314 445.221C355.465 455.449 320.527 497.627 312.597 508.43C312.482 508.545 312.597 508.545 312.712 508.43C321.791 498.431 356.269 456.024 364.544 445.336C364.659 445.221 364.544 445.106 364.314 445.221Z" fill="#263238"/>
<path d="M351.328 443.382C349.144 445.795 348.34 449.128 348.684 451.771C349.029 454.185 350.064 456.943 352.362 458.667C352.477 458.667 352.477 458.552 352.477 458.552C348.914 454.53 348.34 447.864 351.443 443.497C351.558 443.382 351.328 443.267 351.328 443.382Z" fill="#263238"/>
<path d="M326.963 453.955C323.4 458.092 320.872 464.183 322.251 469.585C322.251 469.815 322.596 469.7 322.596 469.585C323.745 464.183 325.239 459.357 327.538 454.3C327.653 453.955 327.193 453.61 326.963 453.955Z" fill="#263238"/>
<path d="M330.871 451.771C327.308 455.909 324.78 462 326.159 467.401C326.159 467.631 326.504 467.516 326.504 467.401C327.653 462 329.147 457.173 331.446 452.116C331.56 451.771 331.101 451.426 330.871 451.771Z" fill="#263238"/>
<path d="M334.778 449.588C331.215 453.725 328.687 459.816 330.066 465.218C330.066 465.448 330.41 465.333 330.41 465.218C331.56 459.816 333.054 454.989 335.352 449.933C335.467 449.588 335.007 449.243 334.778 449.588Z" fill="#263238"/>
<path d="M338.686 447.404C335.123 451.542 332.595 457.633 333.974 463.034C333.974 463.264 334.318 463.149 334.318 463.034C335.468 457.633 336.962 452.806 339.26 447.749C339.49 447.404 338.915 447.06 338.686 447.404Z" fill="#263238"/>
<path d="M304.897 497.627C300.99 502.339 308.345 508.315 312.253 503.603C316.045 498.891 308.69 492.915 304.897 497.627Z" fill="white"/>
<path d="M319.493 440.164C316.045 440.853 315.471 444.876 316.275 447.749C317.539 452.346 320.412 457.173 323.86 460.391C323.975 460.506 324.09 460.391 324.09 460.391C324.435 460.506 325.009 460.391 325.009 459.931C325.354 455.219 326.388 450.277 325.354 445.68C324.779 442.922 322.826 439.589 319.493 440.164ZM324.205 452.691C324.09 454.989 323.86 457.288 323.745 459.586C322.251 457.173 320.757 454.759 319.493 452.116C318.918 450.852 318.344 449.588 317.884 448.209C317.194 446.14 317.194 439.13 322.021 442.462C324.779 444.416 324.32 449.933 324.205 452.691Z" fill="#263238"/>
<path d="M316.734 472.113C320.297 468.895 322.366 464.298 324.779 460.276C325.009 459.816 324.664 459.472 324.32 459.357C324.32 459.242 324.32 459.127 324.205 459.242C319.608 459.816 314.321 462.115 310.758 465.103C308.46 466.942 306.506 470.619 309.034 473.148C311.218 475.561 314.666 473.952 316.734 472.113ZM312.367 472.688C306.391 472.573 310.643 466.942 312.252 465.678C313.402 464.873 314.551 464.069 315.815 463.494C318.343 462.115 320.987 461.081 323.63 459.931C322.366 461.885 321.217 463.839 319.952 465.792C318.458 467.976 315.585 472.688 312.367 472.688Z" fill="#263238"/>
<path d="M313.745 444.532L275.59 489.812L160.434 407.755L149.057 399.711C149.057 399.711 145.839 401.894 140.897 404.538C134.116 408.215 124.118 412.812 115.269 413.961C100.558 415.915 78.2627 415.455 66.0806 398.676C55.8523 384.54 59.3 366.382 59.3 366.382L75.5045 359.602C75.5045 359.602 114.119 328.227 138.943 327.538C149.516 327.193 164.687 335.467 178.822 343.972C192.958 352.476 313.745 444.532 313.745 444.532Z" fill="#263238"/>
<path d="M148.942 399.711C148.942 399.711 145.724 401.894 140.782 404.538C132.278 394.079 114.235 375.117 113.775 374.427L148.942 399.711Z" fill="#37474F"/>
<path d="M89.6408 349.144C87.3423 350.753 85.0438 352.361 82.8602 353.97C80.6766 355.579 78.2632 357.073 76.1945 358.797C74.0109 360.521 71.9423 362.475 69.8736 364.314C68.8393 365.233 67.9199 366.153 67.0005 367.072C66.0811 367.991 65.0467 368.911 64.2423 370.06C64.1273 370.175 64.3572 370.29 64.3572 370.175C65.5064 369.485 66.4258 368.566 67.4602 367.761C68.4945 366.842 69.6438 365.923 70.6781 365.118C72.7467 363.394 74.9303 361.67 76.999 359.947C79.0676 358.223 81.0214 356.384 82.9751 354.66C85.1587 352.706 87.4572 350.982 89.6408 349.144C89.7557 349.144 89.7557 349.144 89.6408 349.144Z" fill="#37474F"/>
<path d="M301.908 440.164C299.609 442.578 297.425 445.221 295.242 447.749C293.058 450.278 290.875 452.921 288.806 455.564C284.554 460.736 280.187 466.023 276.049 471.194C273.751 474.067 271.452 477.055 269.269 480.043C269.154 480.158 269.384 480.388 269.499 480.158C274.096 475.217 278.348 469.93 282.6 464.758C286.852 459.587 291.105 454.3 295.357 449.014C297.655 446.14 300.069 443.267 302.137 440.164C302.137 440.164 302.022 440.049 301.908 440.164Z" fill="#37474F"/>
<path d="M215.369 446.83C209.508 442.118 196.177 432.809 190.201 428.442C184.11 424.075 178.133 419.593 172.042 415.341C170.318 414.076 168.48 412.927 166.756 411.663C165.032 410.399 163.193 409.364 161.354 408.1C161.239 407.985 161.124 408.215 161.239 408.215C162.848 409.364 164.342 410.744 165.951 411.893C167.445 413.042 168.939 414.191 170.433 415.341C173.421 417.524 176.295 419.708 179.283 422.006C185.259 426.488 191.35 430.856 197.441 435.223C200.889 437.636 211.577 444.876 215.139 447.175C215.254 447.29 215.484 446.945 215.369 446.83Z" fill="#37474F"/>
<path d="M253.18 398.217C247.778 393.62 235.481 384.77 229.735 380.518C223.989 376.266 218.357 371.899 212.496 367.646C206.75 363.394 201.119 359.142 195.372 354.89C189.856 350.752 184.339 346.615 178.478 342.938C175.26 340.984 172.042 339.145 168.595 337.421C165.262 335.812 161.929 334.088 158.366 333.054C158.251 333.054 158.251 333.169 158.251 333.284C161.124 334.893 164.227 336.387 167.101 337.996C169.974 339.605 172.847 341.214 175.605 342.938C181.466 346.615 186.868 350.638 192.384 354.775C203.762 363.164 215.254 371.669 226.747 379.944C233.183 384.655 246.054 394.194 252.72 398.447C253.065 398.791 253.295 398.447 253.18 398.217Z" fill="#37474F"/>
</g>
<defs>
<clipPath id="clip0_2_7143">
<rect width="501.419" height="515.9" fill="white"/>
</clipPath>
</defs>
</svg>
